<svg width="24" height="24" viewBox="0 0 24 24" fill="none" xmlns="http://www.w3.org/2000/svg">
    <path d="M15.5073 3.64752C16.4103 2.68073 17.0212 1.33847 16.854 0C15.553 0.0464296 13.9762 0.763701 13.0423 1.73041C12.2052 2.58623 11.4723 3.95401 11.6679 5.26622C13.1196 5.36443 14.6027 4.61275 15.5073 3.64752ZM18.278 12.8911C18.2502 9.89033 20.6537 8.44912 20.7602 8.37948C19.4089 6.34176 17.3045 6.06294 16.5551 6.03149C14.7632 5.84338 13.0612 7.11666 12.1514 7.11666C11.2454 7.11666 9.84392 6.05619 8.35776 6.08467C6.40402 6.11686 4.6038 7.25455 3.60037 9.05765C1.57081 12.685 3.08018 18.0584 5.05789 21.0007C6.02468 22.4411 7.17578 24.0569 8.68738 23.9984C10.1465 23.94 10.6966 23.0279 12.4571 23.0279C14.2183 23.0279 14.7114 23.9984 16.2522 23.9692C17.82 23.94 18.8123 22.5011 19.7708 21.0562C20.8799 19.3857 21.3371 17.7684 21.3633 17.6867C21.3297 17.6672 18.3102 16.4794 18.278 12.8911Z" fill="#CCD0D2"/>
</svg>
