<svg width="16" height="16" viewBox="0 0 16 16" fill="none" xmlns="http://www.w3.org/2000/svg">
    <path d="M12.2979 11.6589C12.1619 11.5317 11.9411 11.5317 11.8051 11.6589L8.34856 14.8884V0.325599C8.34856 0.145814 8.19249 0 8.00006 0C7.80763 0 7.65157 0.145814 7.65157 0.325599L7.65157 14.8884L4.19491 11.6588C4.0589 11.5317 3.83818 11.5317 3.70211 11.6589C3.56599 11.786 3.56599 11.9922 3.70217 12.1194L7.75368 15.9046C7.82169 15.9682 7.91091 16 8.00006 16C8.08922 16 8.17843 15.9682 8.24644 15.9046L12.2979 12.1193C12.4341 11.9922 12.4341 11.786 12.2979 11.6589Z" fill="white"/>
</svg>
