<svg width="16" height="10" viewBox="0 0 16 10" fill="none" xmlns="http://www.w3.org/2000/svg">
    <path d="M11.6589 0.702207C11.5317 0.838236 11.5318 1.059 11.659 1.19498L14.8886 4.65156H0.325742C0.145957 4.65156 0.000147542 4.80763 0.00015429 5.00006C0.000161038 5.19249 0.145981 5.34856 0.325766 5.34856H14.8885L11.6591 8.80521C11.532 8.94123 11.532 9.16194 11.6592 9.29801C11.7863 9.43414 11.9925 9.43414 12.1197 9.29796L15.9048 5.24644C15.9684 5.17843 16.0002 5.08922 16.0002 5.00006C16.0002 4.91091 15.9684 4.82169 15.9047 4.75368L12.1193 0.702207C11.9922 0.566061 11.786 0.566061 11.6589 0.702207Z" fill="currentColor"/>
</svg>
