<svg width="23" height="24" viewBox="0 0 23 24" fill="none" xmlns="http://www.w3.org/2000/svg">
    <g clip-path="url(#clip0)">
        <path d="M10.8621 6.37414C10.8684 6.56027 11.0245 6.71637 11.2106 6.72258L15.9384 6.88315L5.64077 17.1804C5.51364 17.3076 5.52089 17.521 5.65696 17.6571C5.79303 17.7931 6.00649 17.8004 6.13362 17.6733L16.4313 7.37603L16.5918 12.1038C16.5982 12.2898 16.7542 12.4459 16.9404 12.4522C17.1265 12.4586 17.2723 12.3128 17.2659 12.1266L17.0777 6.58523C17.0745 6.49219 17.0339 6.40663 16.9709 6.34359C16.9078 6.28055 16.8223 6.23994 16.7292 6.23684L11.1877 6.04862C11.0015 6.04222 10.8557 6.18801 10.8621 6.37414Z" fill="white"/>
    </g>
    <defs>
        <clipPath id="clip0">
            <rect width="16" height="16" fill="white" transform="matrix(0.70712 -0.707093 0.70712 0.707093 0 12)"/>
        </clipPath>
    </defs>
</svg>
