<svg width="24" height="24" viewBox="0 0 24 24" fill="none" xmlns="http://www.w3.org/2000/svg">
    <path d="M17.4884 5.55307C17.2976 5.75711 17.2976 6.08826 17.4884 6.29222L22.3326 11.4771H0.488399C0.218722 11.4771 0 11.7112 0 11.9998C0 12.2885 0.218722 12.5226 0.488399 12.5226H22.3326L17.4882 17.7076C17.2976 17.9116 17.2975 18.2427 17.4883 18.4468C17.679 18.651 17.9883 18.651 18.179 18.4467L23.857 12.3694C23.9523 12.2674 24 12.1336 24 11.9998C24 11.8661 23.9523 11.7323 23.8569 11.6303L18.179 5.55307C17.9883 5.34885 17.679 5.34885 17.4884 5.55307Z" fill="white"/>
</svg>
