<svg width="516" height="428" viewBox="0 0 516 428" fill="none" xmlns="http://www.w3.org/2000/svg">
    <path d="M404.038 171.951C412.299 172.049 413.774 178.589 416.527 181.342C416.527 181.342 401.235 180.703 391.598 182.031C381.026 183.457 396.367 172.688 404.038 171.951Z" fill="#AEC5CE"/>
    <path d="M372.617 232.578C387.418 230.12 389.975 228.743 389.483 204.649C389.041 180.556 398.531 172.836 403.989 171.951C403.989 171.951 387.664 173.77 369.52 173.327C351.376 172.885 321.824 170.623 321.824 170.623C321.824 170.623 308.646 212.418 330.921 221.957C353.195 231.497 357.571 235.037 372.617 232.578Z" fill="#EFEFEF"/>
    <path d="M375.764 186.948C368.094 186.85 333.281 186.161 333.281 186.161C333.281 186.161 322.217 190.488 329.74 191.717C336.182 192.75 365.979 192.603 374.24 192.504C374.584 190.636 375.076 188.767 375.764 186.948Z" fill="white"/>
    <path d="M373.601 196.733C362.882 196.536 333.477 195.995 333.477 195.995C333.477 195.995 322.414 200.322 329.937 201.551C336.133 202.535 364.013 202.437 373.453 202.387C373.355 200.47 373.404 198.601 373.601 196.733Z" fill="white"/>
    <path d="M374.879 224.957C366.471 224.809 327.774 224.269 327.774 224.269C327.774 224.269 317.841 225.744 325.364 226.924C332.051 228.006 363.963 227.76 370.749 227.711C372.421 227.366 374.83 226.825 374.879 224.957Z" fill="white"/>
    <path d="M320.054 128.533C337.559 131.827 339.23 155.38 339.771 169.05C340.312 182.719 335.936 232.038 372.618 232.579C372.618 232.579 337.559 235.332 310.76 230.956C283.913 226.58 256.525 228.202 256.525 228.202C256.525 228.202 262.032 119.19 320.054 128.533Z" fill="#AEC5CE"/>
    <path d="M294.337 145.497C301.467 131.237 307.368 127.008 316.759 128.09C316.759 128.09 298.714 126.32 277.373 125.779C256.033 125.238 233.562 122.485 230.808 123.026C228.055 123.566 218.221 123.566 216.549 139.449C214.926 155.38 294.337 145.497 294.337 145.497Z" fill="#EFEFEF"/>
    <path d="M346.213 211.287C346.213 211.287 371.487 211.631 374.043 211.336" stroke="white" stroke-width="1.5" stroke-miterlimit="10" stroke-linecap="round" stroke-linejoin="round" stroke-dasharray="12 12"/>
    <path d="M219.155 146.775C211.632 150.365 203.814 155.331 199.487 158.183C195.209 161.035 183.408 168.558 180.211 171.41C177.015 174.262 161.625 190.685 157.347 194.619C153.069 198.552 144.956 203.519 142.006 207.502C137.482 213.5 135.564 223.925 132.368 233.562C129.172 243.2 118.453 264.638 114.126 272.506C109.799 280.373 100.555 287.503 100.555 287.503C100.555 287.503 98.391 321.431 109.504 337.51C120.616 353.588 121.993 363.57 128.09 363.226C134.187 362.882 136.302 360.03 144.169 358.948C152.037 357.866 163.1 342.525 167.034 338.247C170.967 333.969 180.949 318.235 182.768 313.219C184.539 308.204 207.059 290.355 207.059 290.355C207.059 290.355 251.706 293.551 259.573 291.781C267.441 290.01 270.637 288.191 272.063 284.257C273.489 280.324 272.8 274.964 264.54 274.276L263.802 262.77C263.802 262.77 270.342 261.835 277.472 260.409C284.601 258.984 292.518 258.295 294.878 248.903C296.599 242.02 290.6 237.84 278.111 239.954C265.621 242.069 258.442 241.725 258.442 241.725C258.442 241.725 276.685 233.169 280.963 229.235C285.241 225.301 290.944 224.22 295.616 216.008C300.238 207.797 294.19 202.437 288.83 204.6C283.47 206.764 262.77 216.008 262.77 216.008L219.155 146.775Z" fill="#4F28FE"/>
    <path opacity="0.1" d="M287.798 224.515C288.24 222.056 288.781 219.647 289.519 217.287C290.748 213.205 292.616 209.321 295.665 206.272C295.714 206.223 295.714 206.223 295.763 206.174C294.141 204.306 291.436 203.617 288.879 204.65C283.52 206.813 262.819 216.057 262.819 216.057L230.071 163.985C229.432 164.723 228.792 165.46 228.153 166.149C228.645 166.444 228.891 167.132 228.399 167.673C225.941 170.378 223.236 172.836 220.335 175C209.419 183.113 204.6 175.786 192.504 181.539C185.915 184.637 183.653 195.651 172.197 205.387C166.001 210.599 162.756 221.024 162.805 228.891C162.854 237.988 163.493 247.133 164.083 256.181C164.723 265.13 165.46 274.079 166.247 283.028C166.886 290.06 167.673 297.042 166.739 304.123C165.952 310.318 163.936 316.268 160.691 321.578C158.92 324.43 156.855 327.085 154.593 329.593C152.528 331.855 150.266 333.92 148.25 336.231C144.366 340.607 140.383 345.77 139.105 351.622C138.515 354.228 138.613 357.031 139.842 359.44C139.891 359.587 139.99 359.686 140.039 359.784C141.219 359.44 142.596 359.194 144.169 358.948C152.037 357.866 163.1 342.525 167.034 338.247C170.967 333.969 180.949 318.235 182.768 313.219C184.588 308.204 207.059 290.355 207.059 290.355C207.059 290.355 251.706 293.551 259.573 291.781C262.229 291.191 264.343 290.551 266.064 289.863C266.064 287.699 266.359 285.536 267.293 283.618C268.326 281.455 270.096 279.783 272.063 278.357C271.129 276.292 268.867 274.62 264.54 274.276L263.802 262.77C263.802 262.77 270.342 261.836 277.472 260.41C277.865 260.311 278.258 260.262 278.652 260.164C278.701 251.755 283.077 245.412 293.551 242.364C291.092 239.709 285.831 238.627 278.111 239.954C265.621 242.118 258.442 241.725 258.442 241.725C258.442 241.725 276.685 233.169 280.963 229.235C282.979 227.416 285.388 226.187 287.798 224.515Z" fill="black"/>
    <path d="M191.914 171.312C192.898 173.082 193.832 174.852 194.815 176.671" stroke="#EFEFEF" stroke-width="1.5" stroke-miterlimit="10" stroke-linecap="round" stroke-linejoin="round"/>
    <path d="M155.184 211.583C159.707 212.468 163.346 216.795 163.395 221.417" stroke="#EFEFEF" stroke-width="1.5" stroke-miterlimit="10" stroke-linecap="round" stroke-linejoin="round"/>
    <path d="M168.41 306.089C164.919 312.383 163.69 319.71 159.953 325.807C154.741 334.412 144.661 336.133 136.99 341.787" stroke="#EFEFEF" stroke-width="1.5" stroke-miterlimit="10" stroke-linecap="round" stroke-linejoin="round"/>
    <path d="M271.571 254.657C272.309 256.23 272.997 257.902 274.423 258.295" stroke="#EFEFEF" stroke-width="1.5" stroke-miterlimit="10" stroke-linecap="round" stroke-linejoin="round"/>
    <path d="M240.839 311.104L164.969 303.68C156.806 302.893 151.545 294.632 154.249 286.912L204.945 140.825C206.862 135.269 212.32 131.778 218.172 132.368L295.567 135.466C303.729 136.252 308.99 144.513 306.286 152.233L254.066 302.647C252.149 308.154 246.691 311.645 240.839 311.104Z" fill="#060001"/>
    <path d="M238.971 298.713L169.836 291.928C162.412 291.19 157.593 283.716 160.051 276.635L206.125 143.923C207.895 138.858 212.861 135.712 218.172 136.203L287.699 139.547C295.124 140.284 299.943 147.758 297.484 154.839L251.067 291.043C249.248 296.009 244.281 299.205 238.971 298.713Z" fill="#EFEFEF"/>
    <path d="M193.783 281.061L208.731 281.897C210.747 281.995 212.124 284.061 211.435 285.978L210.845 287.699C210.403 288.978 209.124 289.814 207.796 289.715L192.898 288.83C190.882 288.732 189.554 286.716 190.193 284.847L190.734 283.176C191.177 281.848 192.406 281.012 193.783 281.061Z" fill="#4F28FE"/>
    <path d="M209.37 284.896L208.927 286.126C208.583 287.06 207.698 287.65 206.715 287.601L195.995 286.962" stroke="white" stroke-width="1.5" stroke-miterlimit="10" stroke-linecap="round" stroke-linejoin="round"/>
    <path d="M205.387 167.575L242.364 169.001L240.495 174.311L203.666 172.836L205.387 167.575Z" fill="white"/>
    <path d="M209.173 155.724L268.031 158.133L266.162 163.395L207.403 160.985L209.173 155.724Z" fill="white"/>
    <path opacity="0.19" d="M169.836 291.928L200.814 294.976C201.847 291.928 202.732 288.83 203.519 285.683C205.092 279.291 207.796 273.144 211.091 267.49C214.287 261.933 218.172 256.819 222.007 251.706C225.301 247.379 228.596 243.101 231.644 238.577C234.84 233.808 237.938 228.792 239.807 223.334C241.036 219.695 241.577 215.762 240.741 212.123C240.593 211.582 240.446 211.041 240.249 210.5C240.102 210.107 240.151 210.205 240.003 209.861C239.905 209.615 239.758 209.419 239.659 209.222C239.512 208.976 239.364 208.779 239.217 208.534C239.217 208.484 239.069 208.386 239.069 208.337C239.02 208.288 238.971 208.189 238.922 208.14C238.627 207.796 238.282 207.452 237.938 207.157C237.938 207.157 237.938 207.157 237.889 207.108C237.84 207.059 237.84 207.058 237.791 207.009C237.692 206.96 237.594 206.862 237.496 206.813C237.299 206.714 237.102 206.567 236.906 206.468C236.709 206.37 236.512 206.272 236.266 206.173C236.217 206.173 236.119 206.124 236.07 206.075C235.971 206.026 235.873 205.977 235.726 205.977C235.283 205.829 234.791 205.731 234.3 205.633C234.201 205.633 234.103 205.583 233.955 205.583C233.906 205.583 233.71 205.534 233.71 205.534C233.464 205.485 233.218 205.485 232.972 205.485C230.464 205.338 228.35 205.78 225.891 206.419C219.696 208.091 213.943 211.091 208.386 214.237C201.994 217.876 195.848 221.908 189.8 226.137C184.686 229.726 179.621 233.463 174.655 237.249C174.213 237.594 173.77 237.938 173.328 238.282L160.002 276.635C157.593 283.667 162.362 291.19 169.836 291.928Z" fill="#060001"/>
    <path opacity="0.22" d="M239.758 223.285C237.889 228.743 234.841 233.758 231.595 238.528C230.022 240.839 228.399 243.052 226.776 245.313L182.818 242.658C180.212 242.511 178.491 239.954 179.327 237.495L180.949 232.529C183.899 230.365 186.85 228.251 189.849 226.137C195.897 221.908 202.043 217.876 208.436 214.237C213.992 211.09 219.745 208.091 225.941 206.419C228.399 205.731 230.513 205.337 233.021 205.485C233.267 205.485 233.513 205.534 233.759 205.534C233.808 205.534 234.005 205.583 234.005 205.583C234.103 205.583 234.201 205.632 234.3 205.632C234.791 205.731 235.234 205.829 235.726 205.977C235.824 206.026 235.922 206.075 236.07 206.075C236.119 206.075 236.217 206.124 236.266 206.173C236.463 206.272 236.709 206.37 236.906 206.468C237.102 206.567 237.299 206.665 237.496 206.813C237.594 206.862 237.692 206.96 237.742 207.009C237.791 207.058 237.791 207.058 237.84 207.108C237.84 207.108 237.84 207.108 237.889 207.157C238.233 207.452 238.578 207.747 238.873 208.14C238.922 208.189 238.971 208.288 239.069 208.337C239.069 208.386 239.217 208.534 239.217 208.534C239.364 208.73 239.512 208.976 239.659 209.222C239.807 209.419 239.905 209.664 240.003 209.861C240.151 210.205 240.102 210.107 240.249 210.5C240.446 211.041 240.594 211.582 240.741 212.123C241.528 215.712 240.987 219.646 239.758 223.285Z" fill="black"/>
    <path opacity="0.19" d="M238.135 182.817C239.954 176.523 247.674 169.541 259.278 161.674C270.883 153.806 274.226 152.135 284.159 152.135C294.141 152.135 300.779 145.89 302.844 148.398C304.909 150.905 294.534 173.721 294.534 173.721C294.534 173.721 292.469 180.752 290.404 185.325C288.338 189.898 271.719 193.635 268.424 186.161C265.081 178.687 256.377 182.031 247.674 183.653C238.971 185.276 237.299 185.718 238.135 182.817Z" fill="#060001"/>
    <path d="M273.686 202.24L258.688 244.379C258.098 246.051 256.476 247.084 254.755 246.985L226.776 245.314L182.818 242.658C180.212 242.511 178.491 239.954 179.327 237.495L180.949 232.529L193.193 195.553C193.734 193.881 195.356 192.75 197.126 192.848L270.145 196.929C272.8 197.126 274.571 199.732 273.686 202.24Z" fill="#060001"/>
    <path d="M256.033 212.615C257.41 213.697 258.148 215.565 257.902 217.286C257.656 219.007 256.377 220.581 254.755 221.22" stroke="#EFEFEF" stroke-width="1.5" stroke-miterlimit="10" stroke-linecap="round" stroke-linejoin="round"/>
    <path d="M209.763 228.448L198.897 227.858L197.176 233.07L207.501 233.611C208.239 231.89 208.977 230.169 209.763 228.448Z" fill="#94F700"/>
    <path d="M211.73 228.546C210.993 230.267 210.206 231.988 209.468 233.709L228.104 234.693C228.694 232.972 229.284 231.202 229.874 229.481L211.73 228.546Z" fill="#94F700"/>
    <path d="M255.296 200.912C254.853 201.945 254.411 202.977 253.968 204.01L265.081 204.6C265.425 203.567 265.769 202.535 266.162 201.502L255.296 200.912Z" fill="#94F700"/>
    <path d="M231.89 229.579C231.3 231.3 230.71 233.07 230.12 234.791L241.479 235.381L243.347 230.169L231.89 229.579Z" fill="#94F700"/>
    <path d="M254.263 214.188C255.099 214.877 255.591 216.008 255.443 217.09C255.296 218.171 254.509 219.155 253.476 219.548" stroke="#EFEFEF" stroke-width="1.5" stroke-miterlimit="10" stroke-linecap="round" stroke-linejoin="round"/>
    <path d="M252.69 215.319C253.132 215.664 253.378 216.254 253.28 216.844C253.181 217.434 252.788 217.925 252.247 218.122" stroke="#EFEFEF" stroke-width="1.5" stroke-miterlimit="10" stroke-linecap="round" stroke-linejoin="round"/>
    <path d="M258.098 247.969C257.066 252.787 252.886 256.721 248.117 257.754C247.182 257.95 246.199 258.049 245.216 258C244.232 257.95 243.347 257.803 242.462 257.508C238.282 256.082 235.873 251.902 236.955 247.084C237.938 242.511 241.774 238.724 246.199 237.495C247.379 237.151 248.608 237.004 249.838 237.053C251.067 237.102 252.198 237.348 253.23 237.79C256.967 239.413 259.082 243.396 258.098 247.969Z" fill="#4F28FE"/>
    <path d="M253.427 238.233C253.28 238.823 251.509 239.216 249.395 239.118C247.281 239.02 245.658 238.479 245.806 237.938C245.855 237.79 246.002 237.643 246.199 237.545C247.379 237.2 248.608 237.053 249.838 237.102C251.067 237.151 252.198 237.397 253.23 237.84C253.378 237.938 253.427 238.085 253.427 238.233Z" fill="#EFEFEF"/>
    <path d="M258.098 247.969C257.705 249.788 252.64 251.066 246.789 250.821C240.938 250.575 236.561 248.903 236.955 247.083" stroke="white" stroke-width="1.5" stroke-miterlimit="10" stroke-linecap="round" stroke-linejoin="round"/>
    <path d="M252.591 255.787C250.723 256.475 248.215 256.82 245.461 256.721C242.757 256.623 240.397 256.033 238.873 255.246" stroke="white" stroke-width="1.5" stroke-miterlimit="10" stroke-linecap="round" stroke-linejoin="round"/>
    <path d="M258.098 242.658C257.803 243.986 253.378 244.871 248.166 244.625C242.954 244.428 238.971 243.199 239.266 241.872" stroke="white" stroke-width="1.5" stroke-miterlimit="10" stroke-linecap="round" stroke-linejoin="round"/>
    <path d="M248.117 257.754C250.329 255.934 252.296 252.394 253.23 248.264C254.263 243.642 253.624 239.659 251.804 237.938C250.379 237.889 248.903 237.692 247.477 237.741C244.97 239.266 242.609 243.15 241.577 247.772C240.692 251.902 241.085 255.541 242.462 257.508" stroke="white" stroke-width="1.5" stroke-miterlimit="10" stroke-linecap="round" stroke-linejoin="round"/>
    <path d="M249.592 237.741L245.216 257.999" stroke="white" stroke-width="1.5" stroke-miterlimit="10" stroke-linecap="round" stroke-linejoin="round"/>
    <path d="M221.269 84.2298C225.203 84.1806 229.087 84.2789 233.021 84.3773C227.022 75.2315 220.04 70.1669 213.304 71.1503C211.042 71.4945 208.927 72.4779 207.01 74.1006C211.828 74.6906 216.746 78.3293 221.269 84.2298Z" fill="#AEC5CE"/>
    <path d="M213.402 181.982C205.584 171.853 198.995 154.938 196.143 135.269C192.062 107.242 196.979 80.1979 213.254 71.0521C212.173 70.9046 205.731 71.888 204.65 72.0356C190.341 74.1007 181.736 104.833 186.604 138.22C189.161 155.774 194.619 171.066 201.355 181.392C205.387 181.687 209.419 181.883 213.402 181.982Z" fill="#E6373C"/>
    <path d="M216.795 82.4595L235.43 82.8037L231.103 89.6876L216.795 82.4595Z" fill="#AEC5CE"/>
    <path d="M256.82 65.742C256.131 71.2 250.575 69.1349 251.804 74.0519C253.034 78.9199 258.197 78.0348 262.278 77.3956C266.359 76.7563 271.571 80.1491 273.341 78.1823C275.111 76.1663 274.521 68.3481 271.473 65.6929C268.424 63.0376 256.82 65.742 256.82 65.742Z" fill="#060001"/>
    <path d="M255.738 79.313C251.657 80.9848 248.559 85.4102 246.838 90.3273C246.101 92.4416 245.117 93.8676 244.527 95.1952C243.298 97.9488 242.216 99.6698 241.724 100.358C241.036 101.243 239.02 100.604 235.971 99.5222C232.136 98.1946 231.202 107.144 233.759 108.373C236.316 109.553 244.576 111.766 246.101 110.389C247.625 109.012 251.559 99.5222 253.821 95.2935C256.082 91.0648 255.738 79.313 255.738 79.313Z" fill="#4F28FE"/>
    <path d="M228.35 100.899C229.628 103.603 232.972 105.718 232.972 105.718C232.972 105.718 236.07 105.128 234.939 101.194C233.808 97.2603 229.432 98.1945 229.432 98.1945L228.35 100.899Z" fill="#E6373C"/>
    <path d="M227.219 91.5567L234.152 91.2617C234.545 91.2617 234.89 91.4584 235.037 91.8518L238.774 102.227C238.971 102.817 238.578 103.407 237.938 103.407L231.743 103.505C231.399 103.505 231.054 103.309 230.907 102.964L226.432 92.786C226.186 92.2451 226.58 91.6059 227.219 91.5567Z" fill="#060001"/>
    <path d="M227.76 99.1781C227.465 96.8179 227.17 95.982 228.743 94.0643C230.317 92.1466 231.546 91.1141 231.546 91.9991C231.546 92.8842 229.284 95.4411 229.284 95.4411L229.088 97.2604C229.088 97.2604 230.022 95.3919 231.005 94.9494C231.939 94.4577 233.415 93.8184 233.906 94.261C234.398 94.7035 232.972 95.3919 232.972 95.3919C232.972 95.3919 234.201 95.0477 234.496 95.5394C234.791 96.0803 233.513 96.7195 233.513 96.7195C233.513 96.7195 234.693 96.6212 233.857 97.8505C233.021 99.0797 231.792 100.014 231.349 100.555C230.907 101.096 231.989 102.03 230.858 103.308C229.776 104.636 227.858 100.063 227.76 99.1781Z" fill="#E6373C"/>
    <path d="M242.511 100.801C243.495 101.637 244.527 102.473 245.511 103.309C245.56 101.981 244.921 100.653 243.839 99.8667" stroke="#EFEFEF" stroke-width="1.5" stroke-miterlimit="10" stroke-linecap="round" stroke-linejoin="round"/>
    <path d="M233.169 95.2935C231.792 95.8343 230.612 96.8669 229.923 98.1945" stroke="#F49460" stroke-width="1.5" stroke-miterlimit="10" stroke-linecap="round" stroke-linejoin="round"/>
    <path d="M233.267 96.7197C232.087 97.5065 231.153 98.6374 230.612 99.9158" stroke="#F49460" stroke-width="1.5" stroke-miterlimit="10" stroke-linecap="round" stroke-linejoin="round"/>
    <path d="M252.345 100.309C251.214 105.669 249.739 108.816 248.707 112.454C250.231 113.831 252.05 114.913 254.066 115.601C258.836 117.273 264.097 117.175 269.064 116.585C270.489 116.437 271.866 116.191 273.243 115.945C272.21 111.913 271.178 108.078 273.44 100.358C276.587 89.4914 280.274 86.0986 277.472 82.6075C276.046 80.7882 273.096 79.8539 270.391 78.9197C269.309 78.5263 268.228 78.2313 267.097 77.9854C265.572 77.6412 263.999 77.5429 262.524 77.6904C259.721 78.0838 257.312 78.5263 255.443 79.5589C252.935 80.8865 251.313 83.1484 250.575 87.3771C249.248 94.8019 253.525 94.5069 252.345 100.309Z" fill="#4F28FE"/>
    <path opacity="0.22" d="M275.947 92.835C275.407 92.8841 274.817 92.9333 274.276 93.0808C273.538 93.2775 273.046 93.5234 272.555 94.0151C272.014 94.5559 271.67 95.1952 271.276 95.9327C270.735 96.9162 270.194 97.8996 269.801 98.9322C269.113 100.751 268.768 102.817 269.26 104.784C269.654 106.259 270.588 107.537 272.014 108.176C272.063 106.013 272.407 103.505 273.341 100.358C274.226 97.3095 275.161 94.851 275.947 92.835Z" fill="black"/>
    <path d="M261.639 74.9369C261.049 81.7225 263.655 86.1971 263.655 86.1971C263.655 86.1971 268.769 80.8866 268.523 77.8872C268.326 75.0353 269.113 72.4292 269.113 72.4292L261.639 74.9369Z" fill="#E6373C"/>
    <path opacity="0.22" d="M266.998 77.9856C266.605 79.2641 266.015 80.5425 265.326 81.7226C264.638 82.8044 259.721 89.7375 257.705 83.4928C257.115 81.6734 256.033 80.4442 255.345 79.6083C257.262 78.5757 259.623 78.1331 262.425 77.7398C263.901 77.4939 265.474 77.6414 266.998 77.9856Z" fill="black"/>
    <path d="M254.361 87.6724C253.673 89.0983 253.034 90.4751 252.64 91.9994C252.247 93.5237 252.149 95.1463 252.591 96.6215" stroke="#EFEFEF" stroke-width="1.5" stroke-miterlimit="10" stroke-linecap="round" stroke-linejoin="round"/>
    <path d="M260.164 80.2476C260.409 83.247 260.655 86.2464 260.901 89.2459C261.491 88.5575 262.13 87.8691 262.72 87.1807C263.556 88.2624 264.392 89.3442 265.228 90.3768C266.507 87.4265 267.834 84.5254 269.113 81.5752" stroke="#EFEFEF" stroke-width="1.5" stroke-miterlimit="10" stroke-linecap="round" stroke-linejoin="round"/>
    <path d="M263.016 88.2129C261.393 90.7698 261.196 93.9659 261.049 97.0145C260.803 102.227 259.18 106.652 258.885 111.815" stroke="#EFEFEF" stroke-width="1.5" stroke-miterlimit="10" stroke-linecap="round" stroke-linejoin="round"/>
    <path d="M273.489 169.394C273.784 162.805 273.341 150.218 273.489 146.038C273.636 141.859 275.161 126.714 274.177 120.42C273.735 117.617 272.948 115.355 272.456 112.798C272.358 112.848 272.309 112.897 272.21 112.946C268.523 114.814 264.245 115.257 260.164 114.716C256.328 114.224 252.444 112.897 249.297 110.537C248.559 112.749 247.92 114.962 247.576 117.765C246.642 125.485 246.15 133.991 246.592 144.415C246.838 150.07 247.428 154.643 247.527 158.134C247.674 165.805 248.756 169.64 245.068 176.032C242.118 181.146 241.479 180.507 243.298 182.916C245.117 185.276 250.674 177.901 252.001 176.819C255.591 173.918 253.329 172.443 254.066 167.673C255.984 155.233 255.197 155.725 255.64 150.365C256.132 143.678 258.443 127.845 259.278 127.697C261.786 127.206 263.655 142.842 264.736 149.333C265.867 156.364 264.638 155.282 265.917 162.412C266.9 167.772 269.555 172.64 267.883 176.131C266.212 179.622 268.572 180.9 269.703 184.096C270.834 187.292 273.489 190.243 275.308 188.718C277.128 187.194 277.128 184.785 275.997 181.982C274.866 179.179 273.194 175.983 273.489 169.394Z" fill="#060001"/>
    <path d="M253.87 112.602C253.624 113.487 253.378 114.372 253.132 115.257" stroke="#EFEFEF" stroke-width="1.5" stroke-miterlimit="10" stroke-linecap="round" stroke-linejoin="round"/>
    <path d="M265.425 114.372C265.474 115.208 265.523 116.044 265.572 116.88" stroke="#EFEFEF" stroke-width="1.5" stroke-miterlimit="10" stroke-linecap="round" stroke-linejoin="round"/>
    <path d="M258.197 114.52C258.197 118.011 258.688 121.502 259.721 124.796" stroke="#EFEFEF" stroke-width="1.5" stroke-miterlimit="10" stroke-linecap="round" stroke-linejoin="round"/>
    <path d="M248.313 170.181C249.543 171.705 252.296 171.509 253.329 169.837" stroke="#4F28FE" stroke-width="1.5" stroke-miterlimit="10" stroke-linecap="round" stroke-linejoin="round"/>
    <path d="M269.506 174.951C270.391 175.934 271.817 176.475 273.145 176.229" stroke="#4F28FE" stroke-width="1.5" stroke-miterlimit="10" stroke-linecap="round" stroke-linejoin="round"/>
    <path d="M255.541 67.5116C255.64 68.5934 256.082 69.7243 256.279 70.9536C256.525 72.3796 256.574 73.953 257.361 75.2315C258.787 77.4933 260.852 80.1978 263.507 79.5585C269.211 78.0834 270.489 73.658 271.62 68.8884C271.325 65.4956 270.244 58.71 261.737 60.5785C257.066 61.562 255.197 64.0697 255.541 67.5116Z" fill="#E6373C"/>
    <path d="M269.85 69.4788C270.047 69.233 270.391 69.1346 270.686 69.1346C270.834 69.1346 271.03 69.1838 271.129 69.233C271.227 69.2821 271.325 69.3313 271.424 69.3805C271.473 69.1838 271.522 69.0363 271.571 68.8396C272.555 64.7584 270.391 57.5795 261.884 59.448C257.459 60.4314 255.394 63.6767 255.443 66.9219C259.033 68.8396 262.475 68.4954 266.31 67.5612C266.9 67.4136 267.638 69.233 267.982 69.7247C268.375 70.2164 269.555 70.8064 269.752 69.528C269.85 69.528 269.85 69.4788 269.85 69.4788Z" fill="#060001"/>
    <path d="M269.801 69.5282C270.096 69.0365 272.014 68.2006 271.67 70.4625C271.325 72.7243 271.178 72.9702 270.145 73.6094C269.162 74.2978 269.801 69.5282 269.801 69.5282Z" fill="#E6373C"/>
    <path d="M254.755 66.5776C254.706 66.8726 254.706 67.2168 254.804 67.5118C254.902 67.8069 255.099 68.1019 255.394 68.2002C255.738 68.3477 256.131 68.2002 256.427 67.9544C256.722 67.7085 256.918 67.3643 257.066 67.0201C257.361 66.4301 258.688 62.7422 257.066 63.234C255.787 63.5782 254.853 65.3975 254.755 66.5776Z" fill="#060001"/>
    <path d="M259.967 72.7734C259.918 73.9535 259.918 75.1828 259.868 76.3629C260.606 76.7071 261.442 76.8055 262.327 76.5596" stroke="#F49460" stroke-width="1.5" stroke-miterlimit="10" stroke-linecap="round" stroke-linejoin="round"/>
    <path d="M257.656 71.4949C258.148 71.2491 258.787 71.2491 259.278 71.5933C259.77 71.8883 260.016 72.4784 260.016 73.0684" stroke="#F49460" stroke-width="1.5" stroke-miterlimit="10" stroke-linecap="round" stroke-linejoin="round"/>
    <path d="M270.539 70.2163C270.096 70.6588 269.899 71.3472 270.047 71.9373" stroke="#F49460" stroke-width="1.5" stroke-miterlimit="10" stroke-linecap="round" stroke-linejoin="round"/>
    <path d="M272.653 115.847C272.653 115.847 271.522 118.011 270.686 118.552C269.85 119.092 268.129 120.617 267.982 123.272C267.785 125.927 266.752 126.173 267.982 126.37C269.211 126.566 269.555 122.682 270.145 122.338C270.686 121.944 271.079 123.862 273.046 125.436C273.046 125.436 274.079 123.37 274.472 122.043C274.866 120.715 275.997 119.24 275.997 119.24L272.653 115.847Z" fill="#E6373C"/>
    <path d="M283.372 100.899C281.848 96.9653 280.52 87.8195 277.373 82.6074L272.85 91.5565C272.85 91.5565 277.324 104.685 276.242 106.947C275.505 108.57 272.456 114.569 271.03 117.617C271.768 120.223 275.407 124.993 276.242 122.633C278.848 118.306 281.995 113.438 283.225 111.077C284.749 108.275 284.897 104.784 283.372 100.899Z" fill="#4F28FE"/>
    <path d="M272.456 92.1958C272.899 93.6218 273.341 94.9986 273.833 96.4245" stroke="#EFEFEF" stroke-width="1.5" stroke-miterlimit="10" stroke-linecap="round" stroke-linejoin="round"/>
    <path d="M276.39 106.652C277.177 105.767 278.357 105.275 279.537 105.324" stroke="#EFEFEF" stroke-width="1.5" stroke-miterlimit="10" stroke-linecap="round" stroke-linejoin="round"/>
    <path d="M255.984 328.609C308.4 308.007 313.317 267.244 313.317 267.244L366.619 269.949C366.619 269.949 358.112 316.513 326.741 331.314C299.451 338.444 255.984 328.609 255.984 328.609Z" fill="#EFEFEF"/>
    <path d="M286.372 312.924C286.372 312.924 333.527 316.661 336.133 316.415" stroke="white" stroke-width="1.5" stroke-miterlimit="10" stroke-linecap="round" stroke-linejoin="round" stroke-dasharray="12 12"/>
    <path d="M316.71 277.127L353.638 278.848C353.638 278.848 352.507 281.75 351.917 283.175L314.989 282.045L316.71 277.127Z" fill="#AEC5CE"/>
    <path d="M340.951 287.994L312.432 286.667L310.711 291.584L338.64 292.469C339.329 290.895 340.116 289.42 340.951 287.994Z" fill="#AEC5CE"/>
    <path d="M305.991 299.254L323.742 300.238" stroke="white" stroke-width="1.5" stroke-miterlimit="10" stroke-linecap="round" stroke-linejoin="round"/>
    <path d="M302.156 302.844L317.3 303.63" stroke="white" stroke-width="1.5" stroke-miterlimit="10" stroke-linecap="round" stroke-linejoin="round"/>
    <path d="M335.395 301.024L344.541 301.664" stroke="white" stroke-width="1.5" stroke-miterlimit="10" stroke-linecap="round" stroke-linejoin="round"/>
    <path d="M333.33 305.548L342.476 306.188" stroke="white" stroke-width="1.5" stroke-miterlimit="10" stroke-linecap="round" stroke-linejoin="round"/>
    <path d="M148.054 231.054C159.117 227.858 164.133 221.761 170.181 218.565C176.278 215.369 197.323 196.438 203.027 195.356C208.731 194.274 217.68 199.634 221.269 199.634C224.859 199.634 238.43 197.864 241.97 203.912C245.56 210.009 238.381 220.335 228.399 221.761C218.417 223.187 210.894 222.843 210.894 222.843C210.894 222.843 195.897 238.577 192.308 242.855C188.718 247.133 189.111 248.559 189.111 248.559C189.111 248.559 179.474 278.209 175.196 289.617C170.918 301.024 161.969 312.826 161.969 312.826C161.969 312.826 134.827 304.27 135.515 278.898C136.253 253.575 148.054 231.054 148.054 231.054Z" fill="#4F28FE"/>
    <path d="M177.36 250.772C180.949 250.083 184.489 249.346 188.079 248.657" stroke="#EFEFEF" stroke-width="1.5" stroke-miterlimit="10" stroke-linecap="round" stroke-linejoin="round"/>
    <path d="M202.929 199.143C204.895 202.388 206.862 205.633 208.829 208.878" stroke="#EFEFEF" stroke-width="1.5" stroke-miterlimit="10" stroke-linecap="round" stroke-linejoin="round"/>
    <path d="M207.01 198.946C207.846 200.47 208.682 202.044 209.517 203.568" stroke="#EFEFEF" stroke-width="1.5" stroke-miterlimit="10" stroke-linecap="round" stroke-linejoin="round"/>
    <path d="M222.744 201.552C225.99 203.469 225.154 208.878 228.153 211.189C229.628 212.32 231.694 212.369 233.562 212.369C235.775 212.369 238.135 212.32 239.954 211.042C241.331 210.058 242.216 208.485 242.757 206.911" stroke="#EFEFEF" stroke-width="1.5" stroke-miterlimit="10" stroke-linecap="round" stroke-linejoin="round"/>
    <path d="M180.998 211.14C172.934 217.287 165.854 221.564 160.199 226.727C154.544 231.939 148.054 231.054 148.054 231.054" stroke="#EFEFEF" stroke-width="1.5" stroke-miterlimit="10" stroke-linecap="round" stroke-linejoin="round"/>
</svg>
