<svg width="317" height="305" viewBox="0 0 317 305" fill="none" xmlns="http://www.w3.org/2000/svg">
<path d="M304.038 112.951C312.298 113.05 313.774 119.589 316.527 122.343C316.527 122.343 301.235 121.704 291.597 123.031C281.026 124.457 296.367 113.689 304.038 112.951Z" fill="#AEC5CE"/>
<path d="M272.617 173.579C287.418 171.12 289.975 169.744 289.483 145.65C289.041 121.556 298.531 113.836 303.988 112.951C303.988 112.951 287.664 114.77 269.52 114.328C251.376 113.885 221.824 111.624 221.824 111.624C221.824 111.624 208.646 153.419 230.92 162.958C253.195 172.497 257.571 176.037 272.617 173.579Z" fill="#EFEFEF"/>
<path d="M275.764 127.948C268.094 127.85 233.281 127.162 233.281 127.162C233.281 127.162 222.217 131.489 229.74 132.718C236.182 133.751 265.979 133.603 274.24 133.505C274.584 131.636 275.076 129.768 275.764 127.948Z" fill="white"/>
<path d="M273.601 137.733C262.882 137.536 233.477 136.996 233.477 136.996C233.477 136.996 222.414 141.323 229.937 142.552C236.133 143.535 264.013 143.437 273.453 143.388C273.355 141.47 273.404 139.602 273.601 137.733Z" fill="white"/>
<path d="M274.879 165.957C266.471 165.81 227.774 165.269 227.774 165.269C227.774 165.269 217.841 166.744 225.364 167.924C232.051 169.006 263.963 168.76 270.749 168.711C272.421 168.367 274.83 167.826 274.879 165.957Z" fill="white"/>
<path d="M220.054 69.5333C237.559 72.8277 239.23 96.3806 239.771 110.05C240.312 123.72 235.936 173.038 272.617 173.579C272.617 173.579 237.559 176.333 210.76 171.956C183.913 167.58 156.525 169.203 156.525 169.203C156.525 169.203 162.032 60.1908 220.054 69.5333Z" fill="#AEC5CE"/>
<path d="M194.337 86.4972C201.467 72.2376 207.368 68.0089 216.759 69.0907C216.759 69.0907 198.714 67.3205 177.373 66.7796C156.033 66.2388 133.562 63.4852 130.808 64.0261C128.055 64.5669 118.221 64.567 116.549 80.4492C114.926 96.3806 194.337 86.4972 194.337 86.4972Z" fill="#EFEFEF"/>
<path d="M246.213 152.288C246.213 152.288 271.487 152.632 274.043 152.337" stroke="white" stroke-width="1.5" stroke-miterlimit="10" stroke-linecap="round" stroke-linejoin="round" stroke-dasharray="12 12"/>
<path d="M119.155 87.7754C111.632 91.3649 103.814 96.3311 99.4865 99.1831C95.2086 102.035 83.4076 109.558 80.2115 112.41C77.0154 115.262 61.6249 131.685 57.347 135.619C53.0691 139.552 44.9559 144.519 42.0057 148.502C37.4819 154.5 35.5643 164.925 32.3682 174.562C29.1721 184.2 18.4528 205.638 14.1258 213.506C9.79871 221.373 0.554573 228.503 0.554573 228.503C0.554573 228.503 -1.60895 262.431 9.50368 278.51C20.6163 294.588 21.9931 304.57 28.0903 304.226C34.1875 303.882 36.3018 301.03 44.1692 299.948C52.0366 298.866 63.1 283.525 67.0337 279.247C70.9674 274.969 80.9491 259.235 82.7684 254.219C84.5385 249.204 107.059 231.355 107.059 231.355C107.059 231.355 151.706 234.551 159.573 232.781C167.441 231.01 170.637 229.191 172.063 225.257C173.489 221.324 172.8 215.964 164.54 215.276L163.802 203.77C163.802 203.77 170.342 202.835 177.472 201.409C184.601 199.984 192.518 199.295 194.878 189.903C196.599 183.02 190.6 178.84 178.111 180.954C165.621 183.069 158.442 182.725 158.442 182.725C158.442 182.725 176.685 174.169 180.963 170.235C185.241 166.301 190.944 165.22 195.616 157.008C200.238 148.797 194.19 143.437 188.83 145.6C183.47 147.764 162.77 157.008 162.77 157.008L119.155 87.7754Z" fill="#4F28FE"/>
<path opacity="0.1" d="M187.798 165.515C188.24 163.056 188.781 160.647 189.519 158.287C190.748 154.205 192.616 150.321 195.665 147.272C195.714 147.223 195.714 147.223 195.763 147.174C194.141 145.306 191.436 144.617 188.879 145.65C183.52 147.813 162.819 157.057 162.819 157.057L130.071 104.985C129.432 105.723 128.792 106.46 128.153 107.149C128.645 107.444 128.891 108.132 128.399 108.673C125.941 111.378 123.236 113.836 120.335 116C109.419 124.113 104.6 116.786 92.5043 122.539C85.9153 125.637 83.6535 136.651 72.1967 146.387C66.0011 151.599 62.7558 162.024 62.805 169.891C62.8542 178.988 63.4934 188.133 64.0835 197.181C64.7227 206.13 65.4602 215.079 66.247 224.028C66.8862 231.06 67.6729 238.042 66.7387 245.123C65.9519 251.318 63.9359 257.268 60.6906 262.578C58.9205 265.43 56.8553 268.085 54.5934 270.593C52.5283 272.855 50.2664 274.92 48.2504 277.231C44.3659 281.607 40.383 286.77 39.1046 292.622C38.5145 295.228 38.6129 298.031 39.8422 300.44C39.8913 300.587 39.9897 300.686 40.0388 300.784C41.2189 300.44 42.5957 300.194 44.1692 299.948C52.0366 298.866 63.1 283.525 67.0337 279.247C70.9674 274.969 80.9491 259.235 82.7684 254.219C84.5877 249.204 107.059 231.355 107.059 231.355C107.059 231.355 151.706 234.551 159.573 232.781C162.229 232.191 164.343 231.551 166.064 230.863C166.064 228.699 166.359 226.536 167.293 224.618C168.326 222.455 170.096 220.783 172.063 219.357C171.129 217.292 168.867 215.62 164.54 215.276L163.802 203.77C163.802 203.77 170.342 202.836 177.472 201.41C177.865 201.311 178.258 201.262 178.652 201.164C178.701 192.755 183.077 186.412 193.551 183.364C191.092 180.709 185.831 179.627 178.111 180.954C165.621 183.118 158.442 182.725 158.442 182.725C158.442 182.725 176.685 174.169 180.963 170.235C182.979 168.416 185.388 167.187 187.798 165.515Z" fill="black"/>
<path d="M91.9142 112.312C92.8976 114.082 93.8319 115.852 94.8153 117.671" stroke="#EFEFEF" stroke-width="1.5" stroke-miterlimit="10" stroke-linecap="round" stroke-linejoin="round"/>
<path d="M55.1835 152.583C59.7072 153.468 63.3459 157.795 63.395 162.417" stroke="#EFEFEF" stroke-width="1.5" stroke-miterlimit="10" stroke-linecap="round" stroke-linejoin="round"/>
<path d="M68.4105 247.089C64.9193 253.383 63.6901 260.71 59.9531 266.807C54.7409 275.412 44.6609 277.133 36.9902 282.787" stroke="#EFEFEF" stroke-width="1.5" stroke-miterlimit="10" stroke-linecap="round" stroke-linejoin="round"/>
<path d="M171.571 195.657C172.309 197.23 172.997 198.902 174.423 199.295" stroke="#EFEFEF" stroke-width="1.5" stroke-miterlimit="10" stroke-linecap="round" stroke-linejoin="round"/>
<path d="M140.839 252.105L64.9685 244.68C56.8062 243.893 51.5449 235.633 54.2493 227.913L104.945 81.8259C106.862 76.2696 112.32 72.7784 118.172 73.3685L195.567 76.4662C203.729 77.253 208.99 85.5137 206.286 93.2335L154.066 243.647C152.149 249.155 146.691 252.646 140.839 252.105Z" fill="#060001"/>
<path d="M138.971 239.714L69.8365 232.928C62.4117 232.191 57.5929 224.717 60.0514 217.636L106.125 84.9235C107.895 79.8589 112.861 76.712 118.172 77.2037L187.699 80.5473C195.124 81.2849 199.943 88.7589 197.484 95.8395L151.067 232.043C149.248 237.009 144.281 240.205 138.971 239.714Z" fill="#EFEFEF"/>
<path d="M93.7828 222.062L108.731 222.898C110.747 222.996 112.124 225.061 111.435 226.979L110.845 228.7C110.403 229.978 109.124 230.814 107.796 230.716L92.8977 229.831C90.8817 229.732 89.5541 227.716 90.1933 225.848L90.7342 224.176C91.1767 222.848 92.406 222.012 93.7828 222.062Z" fill="#4F28FE"/>
<path d="M109.37 225.897L108.927 227.126C108.583 228.06 107.698 228.651 106.715 228.601L95.9954 227.962" stroke="white" stroke-width="1.5" stroke-miterlimit="10" stroke-linecap="round" stroke-linejoin="round"/>
<path d="M105.387 108.575L142.364 110.001L140.495 115.312L103.666 113.836L105.387 108.575Z" fill="white"/>
<path d="M109.173 96.7246L168.031 99.134L166.162 104.395L107.403 101.986L109.173 96.7246Z" fill="white"/>
<path opacity="0.19" d="M69.8365 232.928L100.814 235.977C101.847 232.928 102.732 229.83 103.519 226.683C105.092 220.291 107.796 214.145 111.091 208.49C114.287 202.934 118.172 197.82 122.007 192.706C125.301 188.379 128.596 184.101 131.644 179.578C134.84 174.808 137.938 169.793 139.807 164.335C141.036 160.696 141.577 156.762 140.741 153.124C140.593 152.583 140.446 152.042 140.249 151.501C140.102 151.108 140.151 151.206 140.003 150.862C139.905 150.616 139.758 150.419 139.659 150.223C139.512 149.977 139.364 149.78 139.217 149.534C139.217 149.485 139.069 149.387 139.069 149.337C139.02 149.288 138.971 149.19 138.922 149.141C138.627 148.797 138.282 148.452 137.938 148.157C137.938 148.157 137.938 148.157 137.889 148.108C137.84 148.059 137.84 148.059 137.791 148.01C137.692 147.961 137.594 147.862 137.496 147.813C137.299 147.715 137.102 147.567 136.906 147.469C136.709 147.371 136.512 147.272 136.266 147.174C136.217 147.174 136.119 147.125 136.07 147.076C135.971 147.026 135.873 146.977 135.726 146.977C135.283 146.83 134.791 146.731 134.3 146.633C134.201 146.633 134.103 146.584 133.955 146.584C133.906 146.584 133.71 146.535 133.71 146.535C133.464 146.486 133.218 146.486 132.972 146.486C130.464 146.338 128.35 146.781 125.891 147.42C119.696 149.092 113.943 152.091 108.386 155.238C101.994 158.877 95.8479 162.909 89.7999 167.137C84.6861 170.727 79.6215 174.464 74.6552 178.25C74.2127 178.594 73.7701 178.938 73.3276 179.283L60.0023 217.636C57.5929 224.667 62.3625 232.19 69.8365 232.928Z" fill="#060001"/>
<path opacity="0.22" d="M139.758 164.286C137.889 169.744 134.841 174.759 131.595 179.529C130.022 181.84 128.399 184.053 126.776 186.314L82.8176 183.659C80.2116 183.512 78.4906 180.955 79.3265 178.496L80.9491 173.53C83.8994 171.366 86.8497 169.252 89.8491 167.138C95.8971 162.909 102.043 158.877 108.436 155.238C113.992 152.091 119.745 149.092 125.941 147.42C128.399 146.732 130.513 146.338 133.021 146.486C133.267 146.486 133.513 146.535 133.759 146.535C133.808 146.535 134.005 146.584 134.005 146.584C134.103 146.584 134.201 146.633 134.3 146.633C134.791 146.732 135.234 146.83 135.726 146.978C135.824 147.027 135.922 147.076 136.07 147.076C136.119 147.076 136.217 147.125 136.266 147.174C136.463 147.273 136.709 147.371 136.906 147.469C137.102 147.568 137.299 147.666 137.496 147.814C137.594 147.863 137.692 147.961 137.742 148.01C137.791 148.059 137.791 148.059 137.84 148.109C137.84 148.109 137.84 148.109 137.889 148.158C138.233 148.453 138.578 148.748 138.873 149.141C138.922 149.19 138.971 149.289 139.069 149.338C139.069 149.387 139.217 149.535 139.217 149.535C139.364 149.731 139.512 149.977 139.659 150.223C139.807 150.42 139.905 150.665 140.003 150.862C140.151 151.206 140.102 151.108 140.249 151.501C140.446 152.042 140.594 152.583 140.741 153.124C141.528 156.713 140.987 160.647 139.758 164.286Z" fill="black"/>
<path opacity="0.19" d="M138.135 123.818C139.954 117.524 147.674 110.542 159.278 102.674C170.883 94.8069 174.226 93.1351 184.159 93.1351C194.141 93.1351 200.779 86.8904 202.844 89.3981C204.909 91.9058 194.534 114.721 194.534 114.721C194.534 114.721 192.469 121.753 190.404 126.326C188.338 130.898 171.719 134.635 168.424 127.161C165.081 119.687 156.377 123.031 147.674 124.654C138.971 126.276 137.299 126.719 138.135 123.818Z" fill="#060001"/>
<path d="M173.686 143.24L158.688 185.38C158.098 187.052 156.476 188.084 154.755 187.986L126.776 186.314L82.8176 183.659C80.2116 183.511 78.4906 180.954 79.3265 178.496L80.9491 173.53L93.1927 136.553C93.7336 134.881 95.3562 133.75 97.1264 133.849L170.145 137.93C172.8 138.127 174.571 140.733 173.686 143.24Z" fill="#060001"/>
<path d="M156.033 153.616C157.41 154.697 158.148 156.566 157.902 158.287C157.656 160.008 156.377 161.581 154.755 162.221" stroke="#EFEFEF" stroke-width="1.5" stroke-miterlimit="10" stroke-linecap="round" stroke-linejoin="round"/>
<path d="M109.763 169.448L98.8965 168.858L97.1755 174.071L107.501 174.611C108.239 172.89 108.977 171.169 109.763 169.448Z" fill="#94F700"/>
<path d="M111.73 169.547C110.993 171.268 110.206 172.989 109.468 174.71L128.104 175.693C128.694 173.972 129.284 172.202 129.874 170.481L111.73 169.547Z" fill="#94F700"/>
<path d="M155.296 141.913C154.853 142.945 154.411 143.978 153.968 145.01L165.081 145.6C165.425 144.568 165.769 143.535 166.162 142.503L155.296 141.913Z" fill="#94F700"/>
<path d="M131.89 170.58C131.3 172.301 130.71 174.071 130.12 175.792L141.479 176.382L143.347 171.17L131.89 170.58Z" fill="#94F700"/>
<path d="M154.263 155.189C155.099 155.877 155.591 157.008 155.443 158.09C155.296 159.172 154.509 160.155 153.476 160.549" stroke="#EFEFEF" stroke-width="1.5" stroke-miterlimit="10" stroke-linecap="round" stroke-linejoin="round"/>
<path d="M152.69 156.32C153.132 156.664 153.378 157.254 153.28 157.844C153.181 158.434 152.788 158.926 152.247 159.123" stroke="#EFEFEF" stroke-width="1.5" stroke-miterlimit="10" stroke-linecap="round" stroke-linejoin="round"/>
<path d="M158.098 188.969C157.066 193.788 152.886 197.722 148.117 198.754C147.182 198.951 146.199 199.049 145.216 199C144.232 198.951 143.347 198.803 142.462 198.508C138.282 197.082 135.873 192.903 136.955 188.084C137.938 183.511 141.774 179.725 146.199 178.496C147.379 178.152 148.608 178.004 149.838 178.053C151.067 178.102 152.198 178.348 153.23 178.791C156.967 180.413 159.082 184.396 158.098 188.969Z" fill="#4F28FE"/>
<path d="M153.427 179.233C153.28 179.823 151.509 180.217 149.395 180.118C147.281 180.02 145.658 179.479 145.806 178.938C145.855 178.791 146.002 178.643 146.199 178.545C147.379 178.201 148.608 178.053 149.838 178.102C151.067 178.152 152.198 178.398 153.23 178.84C153.378 178.938 153.427 179.086 153.427 179.233Z" fill="#EFEFEF"/>
<path d="M158.098 188.969C157.705 190.788 152.64 192.067 146.789 191.821C140.938 191.575 136.561 189.903 136.955 188.084" stroke="white" stroke-width="1.5" stroke-miterlimit="10" stroke-linecap="round" stroke-linejoin="round"/>
<path d="M152.591 196.787C150.723 197.476 148.215 197.82 145.461 197.722C142.757 197.623 140.397 197.033 138.873 196.247" stroke="white" stroke-width="1.5" stroke-miterlimit="10" stroke-linecap="round" stroke-linejoin="round"/>
<path d="M158.098 183.659C157.803 184.986 153.378 185.871 148.166 185.626C142.954 185.429 138.971 184.2 139.266 182.872" stroke="white" stroke-width="1.5" stroke-miterlimit="10" stroke-linecap="round" stroke-linejoin="round"/>
<path d="M148.117 198.754C150.329 196.935 152.296 193.395 153.23 189.264C154.263 184.642 153.624 180.659 151.804 178.938C150.379 178.889 148.903 178.693 147.477 178.742C144.97 180.266 142.609 184.151 141.577 188.773C140.692 192.903 141.085 196.542 142.462 198.508" stroke="white" stroke-width="1.5" stroke-miterlimit="10" stroke-linecap="round" stroke-linejoin="round"/>
<path d="M149.592 178.741L145.216 199" stroke="white" stroke-width="1.5" stroke-miterlimit="10" stroke-linecap="round" stroke-linejoin="round"/>
<path d="M121.269 25.2298C125.203 25.1806 129.087 25.2789 133.021 25.3773C127.022 16.2315 120.04 11.1669 113.304 12.1503C111.042 12.4945 108.927 13.4779 107.01 15.1006C111.828 15.6906 116.746 19.3293 121.269 25.2298Z" fill="#AEC5CE"/>
<path d="M113.402 122.982C105.584 112.853 98.9948 95.9378 96.1429 76.2694C92.0617 48.242 96.9788 21.1979 113.254 12.0521C112.173 11.9046 105.731 12.888 104.65 13.0356C90.3408 15.1007 81.7358 45.8326 86.6037 79.2197C89.1606 96.7737 94.6186 112.066 101.355 122.392C105.387 122.687 109.419 122.883 113.402 122.982Z" fill="#E6373C"/>
<path d="M116.795 23.4595L135.43 23.8037L131.103 30.6876L116.795 23.4595Z" fill="#AEC5CE"/>
<path d="M156.82 6.74205C156.131 12.2 150.575 10.1349 151.804 15.0519C153.034 19.9199 158.197 19.0348 162.278 18.3956C166.359 17.7563 171.571 21.1491 173.341 19.1823C175.111 17.1663 174.521 9.34811 171.473 6.69288C168.424 4.03765 156.82 6.74205 156.82 6.74205Z" fill="#060001"/>
<path d="M155.738 20.313C151.657 21.9848 148.559 26.4102 146.838 31.3273C146.101 33.4416 145.117 34.8676 144.527 36.1952C143.298 38.9488 142.216 40.6698 141.724 41.3582C141.036 42.2432 139.02 41.604 135.971 40.5222C132.136 39.1946 131.202 48.1437 133.759 49.373C136.316 50.5531 144.576 52.7658 146.101 51.389C147.625 50.0122 151.559 40.5222 153.82 36.2935C156.082 32.0648 155.738 20.313 155.738 20.313Z" fill="#4F28FE"/>
<path d="M128.35 41.8989C129.628 44.6033 132.972 46.7177 132.972 46.7177C132.972 46.7177 136.07 46.1276 134.939 42.194C133.808 38.2603 129.432 39.1945 129.432 39.1945L128.35 41.8989Z" fill="#E6373C"/>
<path d="M127.219 32.5567L134.152 32.2617C134.545 32.2617 134.89 32.4584 135.037 32.8518L138.774 43.2268C138.971 43.8169 138.577 44.4069 137.938 44.4069L131.743 44.5053C131.399 44.5053 131.054 44.3086 130.907 43.9644L126.432 33.786C126.186 33.2451 126.58 32.6059 127.219 32.5567Z" fill="#060001"/>
<path d="M127.76 40.1781C127.465 37.8179 127.17 36.982 128.743 35.0643C130.317 33.1466 131.546 32.1141 131.546 32.9991C131.546 33.8842 129.284 36.4411 129.284 36.4411L129.087 38.2604C129.087 38.2604 130.022 36.3919 131.005 35.9494C131.939 35.4577 133.414 34.8184 133.906 35.261C134.398 35.7035 132.972 36.3919 132.972 36.3919C132.972 36.3919 134.201 36.0477 134.496 36.5394C134.791 37.0803 133.513 37.7195 133.513 37.7195C133.513 37.7195 134.693 37.6212 133.857 38.8505C133.021 40.0797 131.792 41.014 131.349 41.5549C130.907 42.0957 131.989 43.03 130.858 44.3084C129.776 45.6361 127.858 41.0632 127.76 40.1781Z" fill="#E6373C"/>
<path d="M142.511 41.8009C143.495 42.6369 144.527 43.4728 145.511 44.3087C145.56 42.9811 144.921 41.6534 143.839 40.8667" stroke="#EFEFEF" stroke-width="1.5" stroke-miterlimit="10" stroke-linecap="round" stroke-linejoin="round"/>
<path d="M133.169 36.2935C131.792 36.8343 130.612 37.8669 129.923 39.1945" stroke="#F49460" stroke-width="1.5" stroke-miterlimit="10" stroke-linecap="round" stroke-linejoin="round"/>
<path d="M133.267 37.7197C132.087 38.5065 131.153 39.6374 130.612 40.9158" stroke="#F49460" stroke-width="1.5" stroke-miterlimit="10" stroke-linecap="round" stroke-linejoin="round"/>
<path d="M152.345 41.309C151.214 46.6687 149.739 49.8156 148.707 53.4543C150.231 54.831 152.05 55.9128 154.066 56.6012C158.836 58.273 164.097 58.1747 169.063 57.5846C170.489 57.4371 171.866 57.1912 173.243 56.9454C172.21 52.9134 171.178 49.078 173.44 41.3582C176.587 30.4914 180.274 27.0986 177.472 23.6075C176.046 21.7882 173.096 20.8539 170.391 19.9197C169.309 19.5263 168.228 19.2313 167.097 18.9854C165.572 18.6412 163.999 18.5429 162.524 18.6904C159.721 19.0838 157.312 19.5263 155.443 20.5589C152.935 21.8865 151.313 24.1484 150.575 28.3771C149.248 35.8019 153.525 35.5069 152.345 41.309Z" fill="#4F28FE"/>
<path opacity="0.22" d="M175.947 33.835C175.407 33.8841 174.816 33.9333 174.276 34.0808C173.538 34.2775 173.046 34.5234 172.555 35.0151C172.014 35.5559 171.67 36.1952 171.276 36.9327C170.735 37.9162 170.194 38.8996 169.801 39.9322C169.113 41.7515 168.768 43.8167 169.26 45.7835C169.653 47.2586 170.588 48.5371 172.014 49.1763C172.063 47.0128 172.407 44.5051 173.341 41.3581C174.226 38.3095 175.161 35.851 175.947 33.835Z" fill="black"/>
<path d="M161.639 15.9369C161.049 22.7225 163.655 27.1971 163.655 27.1971C163.655 27.1971 168.768 21.8866 168.523 18.8872C168.326 16.0353 169.113 13.4292 169.113 13.4292L161.639 15.9369Z" fill="#E6373C"/>
<path opacity="0.22" d="M166.998 18.9856C166.605 20.2641 166.015 21.5425 165.326 22.7226C164.638 23.8044 159.721 30.7375 157.705 24.4928C157.115 22.6734 156.033 21.4442 155.345 20.6083C157.262 19.5757 159.623 19.1331 162.425 18.7398C163.901 18.4939 165.474 18.6414 166.998 18.9856Z" fill="black"/>
<path d="M154.361 28.6724C153.673 30.0983 153.034 31.4751 152.64 32.9994C152.247 34.5237 152.149 36.1463 152.591 37.6215" stroke="#EFEFEF" stroke-width="1.5" stroke-miterlimit="10" stroke-linecap="round" stroke-linejoin="round"/>
<path d="M160.164 21.2476C160.409 24.247 160.655 27.2464 160.901 30.2459C161.491 29.5575 162.13 28.8691 162.72 28.1807C163.556 29.2624 164.392 30.3442 165.228 31.3768C166.507 28.4265 167.834 25.5254 169.113 22.5752" stroke="#EFEFEF" stroke-width="1.5" stroke-miterlimit="10" stroke-linecap="round" stroke-linejoin="round"/>
<path d="M163.015 29.2129C161.393 31.7698 161.196 34.9659 161.049 38.0145C160.803 43.2266 159.18 47.652 158.885 52.8149" stroke="#EFEFEF" stroke-width="1.5" stroke-miterlimit="10" stroke-linecap="round" stroke-linejoin="round"/>
<path d="M173.489 110.394C173.784 103.805 173.341 91.2176 173.489 87.038C173.636 82.8585 175.161 67.7139 174.177 61.42C173.735 58.6172 172.948 56.3554 172.456 53.7985C172.358 53.8477 172.309 53.8968 172.21 53.946C168.523 55.8145 164.245 56.257 160.164 55.7162C156.328 55.2244 152.444 53.8968 149.297 51.5366C148.559 53.7493 147.92 55.962 147.576 58.7647C146.642 66.4846 146.15 74.9912 146.592 85.4154C146.838 91.0701 147.428 95.643 147.527 99.1341C147.674 106.805 148.756 110.64 145.068 117.032C142.118 122.146 141.479 121.507 143.298 123.916C145.117 126.276 150.674 118.901 152.001 117.819C155.591 114.918 153.329 113.443 154.066 108.673C155.984 96.233 155.197 96.7247 155.64 91.3651C156.132 84.6778 158.443 68.8448 159.278 68.6973C161.786 68.2056 163.655 83.8419 164.736 90.3325C165.867 97.3639 164.638 96.2822 165.917 103.412C166.9 108.772 169.555 113.64 167.883 117.131C166.212 120.622 168.572 121.9 169.703 125.096C170.834 128.292 173.489 131.243 175.308 129.718C177.128 128.194 177.128 125.785 175.997 122.982C174.866 120.179 173.194 116.983 173.489 110.394Z" fill="#060001"/>
<path d="M153.87 53.6016C153.624 54.4866 153.378 55.3717 153.132 56.2568" stroke="#EFEFEF" stroke-width="1.5" stroke-miterlimit="10" stroke-linecap="round" stroke-linejoin="round"/>
<path d="M165.425 55.3721C165.474 56.208 165.523 57.0439 165.572 57.8798" stroke="#EFEFEF" stroke-width="1.5" stroke-miterlimit="10" stroke-linecap="round" stroke-linejoin="round"/>
<path d="M158.197 55.5195C158.197 59.0107 158.688 62.5018 159.721 65.7963" stroke="#EFEFEF" stroke-width="1.5" stroke-miterlimit="10" stroke-linecap="round" stroke-linejoin="round"/>
<path d="M148.313 111.181C149.543 112.705 152.296 112.509 153.329 110.837" stroke="#4F28FE" stroke-width="1.5" stroke-miterlimit="10" stroke-linecap="round" stroke-linejoin="round"/>
<path d="M169.506 115.951C170.391 116.934 171.817 117.475 173.145 117.229" stroke="#4F28FE" stroke-width="1.5" stroke-miterlimit="10" stroke-linecap="round" stroke-linejoin="round"/>
<path d="M155.541 8.51164C155.64 9.5934 156.082 10.7243 156.279 11.9536C156.525 13.3796 156.574 14.953 157.361 16.2315C158.787 18.4933 160.852 21.1978 163.507 20.5585C169.211 19.0834 170.489 14.658 171.62 9.88843C171.325 6.49564 170.244 -0.289961 161.737 1.57854C157.066 2.56195 155.197 5.06968 155.541 8.51164Z" fill="#E6373C"/>
<path d="M169.85 10.4788C170.047 10.233 170.391 10.1346 170.686 10.1346C170.834 10.1346 171.03 10.1838 171.129 10.233C171.227 10.2821 171.325 10.3313 171.424 10.3805C171.473 10.1838 171.522 10.0363 171.571 9.83961C172.555 5.75842 170.391 -1.42053 161.884 0.447962C157.459 1.43138 155.394 4.67666 155.443 7.92194C159.033 9.83961 162.475 9.49541 166.31 8.56116C166.9 8.41365 167.638 10.233 167.982 10.7247C168.375 11.2164 169.555 11.8064 169.752 10.528C169.85 10.528 169.85 10.4788 169.85 10.4788Z" fill="#060001"/>
<path d="M169.801 10.5282C170.096 10.0365 172.014 9.20059 171.67 11.4625C171.325 13.7243 171.178 13.9702 170.145 14.6094C169.162 15.2978 169.801 10.5282 169.801 10.5282Z" fill="#E6373C"/>
<path d="M154.755 7.57758C154.706 7.87261 154.706 8.21681 154.804 8.51183C154.902 8.80686 155.099 9.10188 155.394 9.20022C155.738 9.34774 156.131 9.20022 156.427 8.95437C156.722 8.70851 156.918 8.36432 157.066 8.02012C157.361 7.43007 158.688 3.74225 157.066 4.23396C155.787 4.57816 154.853 6.39748 154.755 7.57758Z" fill="#060001"/>
<path d="M159.967 13.7734C159.918 14.9535 159.918 16.1828 159.868 17.3629C160.606 17.7071 161.442 17.8055 162.327 17.5596" stroke="#F49460" stroke-width="1.5" stroke-miterlimit="10" stroke-linecap="round" stroke-linejoin="round"/>
<path d="M157.656 12.4949C158.148 12.2491 158.787 12.2491 159.278 12.5933C159.77 12.8883 160.016 13.4784 160.016 14.0684" stroke="#F49460" stroke-width="1.5" stroke-miterlimit="10" stroke-linecap="round" stroke-linejoin="round"/>
<path d="M170.539 11.2163C170.096 11.6588 169.899 12.3472 170.047 12.9373" stroke="#F49460" stroke-width="1.5" stroke-miterlimit="10" stroke-linecap="round" stroke-linejoin="round"/>
<path d="M172.653 56.8472C172.653 56.8472 171.522 59.0107 170.686 59.5516C169.85 60.0925 168.129 61.6167 167.982 64.272C167.785 66.9272 166.752 67.1731 167.982 67.3698C169.211 67.5664 169.555 63.6819 170.145 63.3377C170.686 62.9444 171.079 64.862 173.046 66.4355C173.046 66.4355 174.079 64.3703 174.472 63.0427C174.866 61.7151 175.997 60.24 175.997 60.24L172.653 56.8472Z" fill="#E6373C"/>
<path d="M183.372 41.899C181.848 37.9653 180.52 28.8195 177.373 23.6074L172.85 32.5565C172.85 32.5565 177.324 45.6852 176.242 47.9471C175.505 49.5697 172.456 55.5685 171.03 58.6171C171.768 61.2232 175.407 65.9928 176.242 63.6326C178.848 59.3055 181.995 54.4376 183.225 52.0774C184.749 49.2747 184.897 45.7835 183.372 41.899Z" fill="#4F28FE"/>
<path d="M172.456 33.1958C172.899 34.6218 173.341 35.9986 173.833 37.4245" stroke="#EFEFEF" stroke-width="1.5" stroke-miterlimit="10" stroke-linecap="round" stroke-linejoin="round"/>
<path d="M176.39 47.6518C177.177 46.7667 178.357 46.275 179.537 46.3242" stroke="#EFEFEF" stroke-width="1.5" stroke-miterlimit="10" stroke-linecap="round" stroke-linejoin="round"/>
<path d="M155.984 269.609C208.4 249.007 213.317 208.244 213.317 208.244L266.619 210.949C266.619 210.949 258.112 257.513 226.741 272.314C199.451 279.444 155.984 269.609 155.984 269.609Z" fill="#EFEFEF"/>
<path d="M186.372 253.924C186.372 253.924 233.527 257.661 236.133 257.415" stroke="white" stroke-width="1.5" stroke-miterlimit="10" stroke-linecap="round" stroke-linejoin="round" stroke-dasharray="12 12"/>
<path d="M216.71 218.127L253.637 219.848C253.637 219.848 252.507 222.75 251.916 224.175L214.989 223.045L216.71 218.127Z" fill="#AEC5CE"/>
<path d="M240.951 228.994L212.432 227.667L210.711 232.584L238.64 233.469C239.329 231.895 240.115 230.42 240.951 228.994Z" fill="#AEC5CE"/>
<path d="M205.991 240.254L223.742 241.238" stroke="white" stroke-width="1.5" stroke-miterlimit="10" stroke-linecap="round" stroke-linejoin="round"/>
<path d="M202.156 243.844L217.3 244.63" stroke="white" stroke-width="1.5" stroke-miterlimit="10" stroke-linecap="round" stroke-linejoin="round"/>
<path d="M235.395 242.024L244.541 242.664" stroke="white" stroke-width="1.5" stroke-miterlimit="10" stroke-linecap="round" stroke-linejoin="round"/>
<path d="M233.33 246.548L242.476 247.188" stroke="white" stroke-width="1.5" stroke-miterlimit="10" stroke-linecap="round" stroke-linejoin="round"/>
<path d="M48.0537 172.054C59.1172 168.858 64.1326 162.761 70.1807 159.565C76.2779 156.369 97.323 137.438 103.027 136.356C108.731 135.274 117.68 140.634 121.269 140.634C124.859 140.634 138.43 138.864 141.97 144.912C145.56 151.009 138.381 161.335 128.399 162.761C118.417 164.187 110.894 163.843 110.894 163.843C110.894 163.843 95.8971 179.577 92.3076 183.855C88.7181 188.133 89.1115 189.559 89.1115 189.559C89.1115 189.559 79.474 219.209 75.1961 230.617C70.9182 242.024 61.9691 253.826 61.9691 253.826C61.9691 253.826 34.8267 245.27 35.5151 219.898C36.2527 194.575 48.0537 172.054 48.0537 172.054Z" fill="#4F28FE"/>
<path d="M77.3596 191.772C80.9491 191.083 84.4894 190.346 88.0789 189.657" stroke="#EFEFEF" stroke-width="1.5" stroke-miterlimit="10" stroke-linecap="round" stroke-linejoin="round"/>
<path d="M102.929 140.143C104.895 143.388 106.862 146.633 108.829 149.878" stroke="#EFEFEF" stroke-width="1.5" stroke-miterlimit="10" stroke-linecap="round" stroke-linejoin="round"/>
<path d="M107.01 139.946C107.846 141.47 108.682 143.044 109.517 144.568" stroke="#EFEFEF" stroke-width="1.5" stroke-miterlimit="10" stroke-linecap="round" stroke-linejoin="round"/>
<path d="M122.744 142.552C125.99 144.469 125.154 149.878 128.153 152.189C129.628 153.32 131.694 153.369 133.562 153.369C135.775 153.369 138.135 153.32 139.954 152.042C141.331 151.058 142.216 149.485 142.757 147.911" stroke="#EFEFEF" stroke-width="1.5" stroke-miterlimit="10" stroke-linecap="round" stroke-linejoin="round"/>
<path d="M80.9983 152.14C72.9342 158.287 65.8536 162.564 60.1989 167.727C54.5443 172.939 48.0537 172.054 48.0537 172.054" stroke="#EFEFEF" stroke-width="1.5" stroke-miterlimit="10" stroke-linecap="round" stroke-linejoin="round"/>
</svg>
