<svg width="560" height="423" viewBox="0 0 560 423" fill="none" xmlns="http://www.w3.org/2000/svg">
    <path d="M201.474 109.786H168.368C168.474 109.943 168.579 110.101 168.632 110.311C170.526 113.729 172.316 117.199 174.105 120.67C174.684 121.721 175.211 122.825 175.737 123.877H208.737C206.368 119.145 203.947 114.465 201.474 109.786Z" fill="#4F28FE"/>
    <path opacity="0.22" d="M181.053 116.831H175.947L176 116.884C176.316 117.409 176.579 117.935 176.842 118.461C176.947 118.619 177 118.776 177.105 118.934H182.158C181.789 118.251 181.421 117.515 181.053 116.831Z" fill="black"/>
    <path opacity="0.22" d="M193.632 116.831H183.368L183.421 116.884C183.737 117.409 184 117.935 184.263 118.461C184.368 118.619 184.421 118.776 184.526 118.934H194.789C194.421 118.251 194.053 117.515 193.632 116.831Z" fill="black"/>
    <path d="M181.526 115.517H176.421L176.474 115.569C176.789 116.095 177.053 116.621 177.316 117.147C177.421 117.304 177.474 117.462 177.579 117.62H182.632C182.316 116.989 181.947 116.253 181.526 115.517Z" fill="#EFEFEF"/>
    <path d="M194.158 115.517H183.895L183.947 115.569C184.263 116.095 184.526 116.621 184.79 117.147C184.895 117.304 184.947 117.462 185.053 117.62H195.263C194.895 116.989 194.526 116.253 194.158 115.517Z" fill="#02BBDC"/>
    <path d="M175.895 113.414H189.053" stroke="#EFEFEF" stroke-width="1.5" stroke-miterlimit="10" stroke-linecap="round" stroke-linejoin="round"/>
    <path d="M377.421 201.272C377.421 209.737 376.316 217.887 374.158 225.668C369.632 242.178 360.684 256.9 348.579 268.363C337.737 278.668 324.368 286.397 309.474 290.499C301.632 292.654 293.316 293.811 284.789 293.811C276.211 293.811 267.947 292.654 260.105 290.499C246.105 286.66 233.368 279.562 222.895 270.098C213.211 261.37 205.368 250.696 200.053 238.603C195 227.193 192.211 214.574 192.211 201.272C192.211 185.077 196.368 169.882 203.684 156.684C204.684 154.792 205.79 153.004 206.947 151.216C207.632 150.165 208.368 149.113 209.053 148.061C210.526 145.958 212.105 143.908 213.737 141.962C224.316 129.343 238.158 119.563 254 113.99C263.632 110.625 274 108.785 284.789 108.785C295.579 108.785 305.947 110.625 315.579 113.99C334.737 120.72 351.053 133.602 362.105 150.27C363.842 152.846 365.421 155.528 366.842 158.262C373.632 171.091 377.421 185.761 377.421 201.272Z" fill="#02BBDC"/>
    <path d="M366.421 242.18C366.421 258.848 329.895 272.308 284.842 272.308C239.79 272.308 203.263 258.795 203.263 242.18" stroke="#EFEFEF" stroke-width="1.5" stroke-miterlimit="10" stroke-linecap="round" stroke-linejoin="round"/>
    <path opacity="0.11" d="M353.368 263.527C353.789 263.054 354.211 262.581 354.632 262.108C354.842 261.897 355 261.687 355.211 261.424C355.789 260.741 356.421 260.004 357 259.321C357.158 259.111 357.316 258.953 357.474 258.743C357.895 258.164 358.368 257.638 358.789 257.06C359 256.797 359.158 256.587 359.368 256.324C359.789 255.745 360.211 255.22 360.579 254.641C360.737 254.431 360.895 254.221 361.053 253.958C362.158 252.38 363.211 250.75 364.211 249.121C364.316 248.91 364.421 248.752 364.526 248.542C364.895 247.911 365.316 247.228 365.684 246.544C365.789 246.334 365.947 246.124 366.053 245.913C366.474 245.177 366.842 244.441 367.263 243.652C367.316 243.547 367.368 243.442 367.421 243.337C367.895 242.443 368.316 241.549 368.737 240.603C368.737 240.55 368.789 240.498 368.789 240.445C369.158 239.604 369.579 238.762 369.947 237.921C370.053 237.763 370.105 237.553 370.158 237.395C370.316 237.027 370.474 236.712 370.579 236.344L370.526 236.396C371.947 232.926 373.211 229.351 374.211 225.67L372.158 225.25C351.789 233.189 327.579 237.658 337.263 249.173C345.526 259.005 339.684 256.902 343.421 262.423C335.895 267.155 327.684 270.836 318.895 273.254C311.053 275.41 302.737 276.567 294.211 276.567C285.632 276.567 277.368 275.41 269.526 273.254C269.211 273.149 268.947 273.097 268.632 272.992C265.579 266.419 262.579 259.794 259.632 253.117C259.211 252.118 257.474 251.276 255.421 251.066C245.105 249.751 235 247.911 225.053 245.545C218.684 238.394 213.368 230.245 209.474 221.359C204.421 209.949 201.632 197.33 201.632 184.027C201.632 171.619 204.105 159.788 208.526 148.957C208 149.693 207.526 150.429 207.053 151.165C205.895 152.953 204.789 154.793 203.789 156.634C196.474 169.884 192.316 185.079 192.316 201.221C192.316 214.471 195.105 227.142 200.158 238.552C205.474 250.645 213.316 261.371 223 270.047C233.526 279.511 246.211 286.557 260.211 290.448C268.053 292.604 276.368 293.76 284.895 293.76C293.474 293.76 301.737 292.604 309.579 290.448C324.421 286.347 337.789 278.67 348.684 268.312C348.895 268.102 349.053 267.944 349.263 267.734C349.737 267.313 350.158 266.84 350.632 266.419C350.895 266.156 351.158 265.841 351.474 265.578C351.842 265.157 352.263 264.789 352.632 264.368C352.842 264.053 353.105 263.79 353.368 263.527Z" fill="black"/>
    <path d="M318.316 117.62C318.316 122.72 303.316 126.821 284.789 126.821C266.316 126.821 251.316 122.72 251.316 117.62C251.316 116.305 252.316 115.096 254.053 113.992C263.684 110.574 274.053 108.734 284.842 108.734C295.632 108.734 306 110.574 315.632 113.992C317.368 115.096 318.316 116.305 318.316 117.62Z" fill="#EFEFEF"/>
    <path d="M377.474 201.273C377.474 214.944 336 225.986 284.842 225.986C233.684 225.986 192.211 214.944 192.211 201.273" stroke="#EFEFEF" stroke-width="1.5" stroke-miterlimit="10" stroke-linecap="round" stroke-linejoin="round"/>
    <path d="M363.895 149.22C363.895 161.155 328.895 170.83 285.789 170.83C242.684 170.83 207.684 161.155 207.684 149.22" stroke="#EFEFEF" stroke-width="1.5" stroke-miterlimit="10" stroke-linecap="round" stroke-linejoin="round"/>
    <path d="M260.158 290.447C244.474 273.885 233.895 242.127 233.895 205.69C233.895 152.164 256.737 108.786 284.842 108.786C313 108.786 335.789 152.164 335.789 205.69C335.789 242.18 325.211 273.938 309.526 290.447" stroke="#EFEFEF" stroke-width="1.5" stroke-miterlimit="10" stroke-linecap="round" stroke-linejoin="round"/>
    <path opacity="0.11" d="M366.842 158.264C363.316 169.515 337.737 200.169 318.053 217.52C315.684 215.943 313.316 214.366 311 212.788C332.105 190.495 349.737 168.727 362.105 150.271C363.842 152.848 365.421 155.529 366.842 158.264Z" fill="black"/>
    <path d="M284.842 108.734V293.813" stroke="#EFEFEF" stroke-width="1.5" stroke-miterlimit="10" stroke-linecap="round" stroke-linejoin="round"/>
    <path opacity="0.11" d="M211.211 183.133C214.474 182.502 216.105 182.134 219.211 181.293C213.789 171.461 209.789 161.786 206.947 151.165C207.632 150.114 208.368 149.062 209.053 148.01C210.526 145.907 212.105 143.857 213.737 141.911C216.684 154.951 222.579 166.781 229.684 178.086C232.368 177.139 233.737 176.613 236.316 175.509C238.053 183.238 240.053 190.968 242.316 198.539C231.421 194.49 220.895 189.653 211.211 183.133Z" fill="black"/>
    <path d="M344.684 112.467C347.158 114.15 349.579 115.78 352.053 117.41C360.105 113.834 366.526 112.362 370.684 113.414C370.474 111.731 369.842 110.364 368.842 109.312C365.158 105.422 356.526 106.841 344.684 112.467Z" fill="#AEC5CE"/>
    <path d="M238.053 264.631C219 277.513 203.474 284.717 194.947 284.033C196.053 285.505 197.263 286.872 198.368 288.292C198.789 288.818 199.263 289.396 199.684 289.922C208.053 290.868 223.684 283.718 242.895 270.783C241.263 268.733 239.632 266.682 238.053 264.631Z" fill="#EFEFEF"/>
    <path d="M299.368 213.682C301.263 215.522 303.105 217.363 305 219.203C353.474 172.092 384.316 125.77 374.105 115.201C373.263 114.307 372.105 113.729 370.737 113.361C372.895 128.977 343.316 171.04 299.368 213.682Z" fill="#EFEFEF"/>
    <path d="M242 102.424L249.79 99.4798C232.368 81.3926 218.158 72.4541 211 76.713C210.158 77.2388 209.474 77.8698 208.842 78.711C216.737 79.71 228.368 88.2805 242 102.424Z" fill="#AEC5CE"/>
    <path d="M290.579 265.63C288.21 266.945 285.842 268.259 283.474 269.521C313.895 310.743 341.632 335.561 352.684 328.936C353.526 328.41 354.263 327.779 354.842 326.938C341.474 325.255 317 301.542 290.579 265.63Z" fill="#E6373C"/>
    <path d="M359.263 282.929C356.842 284.611 354.526 286.346 352.158 288.081C357.947 307.115 359.158 321.049 354.842 326.938C357 327.2 358.895 326.938 360.474 325.991C367.474 321.837 366.474 305.801 359.263 282.929Z" fill="#AEC5CE"/>
    <path d="M184 143.121C169.105 143.226 159.579 146.065 157.737 151.744C157.368 152.848 157.316 154.057 157.526 155.319C161.421 151.638 170.053 149.851 182.158 149.798C182.789 147.537 183.368 145.329 184 143.121Z" fill="#AEC5CE"/>
    <path d="M201 190.442C175.474 177.139 159.158 164.362 157.526 155.266C156.526 156.16 155.842 157.212 155.474 158.368C152.526 167.412 169.526 181.819 198.421 196.909C199.263 194.753 200.105 192.597 201 190.442Z" fill="#EFEFEF"/>
    <path d="M418.947 239.814C406.579 251.434 347.526 244.441 280.158 222.673C258.789 215.785 238.947 208.161 221.737 200.432C220.632 202.483 219.632 204.586 218.632 206.689C236.053 214.523 256.211 222.305 277.947 229.298C350.632 252.748 413.684 259.058 418.789 243.337C419.105 242.285 419.158 241.076 418.947 239.814Z" fill="white"/>
    <path d="M391.895 205.9L389.684 212.578C406.947 222.936 417.684 232.558 418.947 239.814C419.947 238.92 420.632 237.869 421 236.712C423.421 229.193 412.211 218.046 391.895 205.9Z" fill="#EFEFEF"/>
    <path d="M349.053 294.917L352.737 278.565L364.895 284.349L349.053 294.917Z" fill="#AEC5CE"/>
    <path d="M345.842 104.843L339 117.514L360.684 120.143L345.842 104.843Z" fill="#AEC5CE"/>
    <path d="M228.79 264.053L249.158 263.212L244.895 278.565L228.79 264.053Z" fill="#EFEFEF"/>
    <path d="M178.263 155.582L187.789 144.435L179.053 138.494L178.263 155.582Z" fill="#AEC5CE"/>
    <path d="M215.316 200.59L222.105 212.525L229.316 198.224L215.316 200.59Z" fill="white"/>
    <path d="M242.737 189.285C214.211 135.917 200.053 90.6465 208.842 78.711C206.632 78.4481 204.79 78.711 203.211 79.6574C190.263 87.3866 204.684 136.022 235.737 193.754C238.105 192.23 240.421 190.757 242.737 189.285Z" fill="#E6373C"/>
    <path d="M225.737 187.813L246.684 202.009L243.369 178.664L225.737 187.813Z" fill="#E6373C"/>
    <path d="M72.579 190.495C69.2632 193.334 66.5264 204.376 67.9474 212.946C69.3685 221.516 70.5264 247.017 73.6843 249.751C73.6843 249.751 84.2632 249.015 88.7369 249.594C93.158 250.172 94.6316 252.012 99.2106 254.589C103.79 257.165 111.684 262.739 115.684 265.63C119.684 268.47 122.684 268.365 125.263 270.52C127.842 272.676 131.737 276.409 134.737 276.251C137.737 276.094 140.632 276.83 145.895 277.829C151.158 278.828 156.632 279.985 160.368 278.092C164.105 276.251 164.947 276.094 166.105 273.202C167.263 270.31 166.947 267.471 166.947 267.471C166.947 267.471 174.105 274.201 178.105 275.042C182.105 275.883 185.579 274.884 187.421 272.203C189.263 269.469 191.316 267.05 190.263 263.632C189.263 260.215 186.947 256.639 184.368 255.062C184.368 255.062 193.421 258.059 197.263 257.375C201.158 256.639 202.842 255.798 204.158 252.643C205.474 249.489 206 245.493 206 245.493C206 245.493 209.421 247.333 210.316 249.383C211.211 251.434 214.211 256.271 217.895 255.693C221.632 255.115 223.79 253.117 224.79 250.277C225.79 247.438 224.947 244.967 224.947 243.126C224.947 241.286 223.947 237.553 221.526 234.819C219.105 232.085 216.105 228.509 216.105 228.509L161.632 209.633L72.579 190.495Z" fill="#E6373C"/>
    <path opacity="0.17" d="M178.737 222.621C178.474 219.518 177.211 216.101 174.737 214.05L168.842 212C168.053 212 167.263 212.052 166.474 212.157C165.842 212.736 166.421 215.733 165.737 216.258C159.211 221.096 158.895 220.044 151.053 221.359C147.053 221.99 133.632 222.358 129.789 223.725C119.737 227.247 115.316 226.985 113.526 227.405C113.158 227.51 112.789 227.616 112.421 227.721C112.263 227.773 112.421 227.721 112.421 227.721C112.368 227.773 112.263 227.773 112.211 227.826C112.158 227.878 112 227.984 111.947 227.984C111.895 228.036 111.684 228.246 111.632 228.299C111.579 228.352 111.526 228.404 111.526 228.457C111.421 228.562 111.368 228.667 111.316 228.825C111.263 228.877 111.263 228.93 111.211 229.035C111.158 229.193 111.105 229.351 111.053 229.508C111.053 229.561 111 229.771 111 229.824C111 229.876 111 230.087 111 230.139C111 230.297 111 230.455 111 230.613C111 231.086 111.053 231.138 111.105 231.454C111.158 231.822 111.263 232.19 111.368 232.558C111.842 234.135 112.526 235.502 113.316 236.922C114.895 239.656 119.211 241.234 120.947 243.81C123.579 247.753 123.632 252.801 126.579 256.482C128.158 258.374 129.842 260.162 131.684 261.792C132.526 262.528 133.579 263.212 134.526 263.895C137.105 265.683 139.789 267.418 142.632 268.838C142.684 268.89 142.737 268.89 142.842 268.943C141.474 266.577 140.316 264.053 139.526 261.477C137.474 257.27 136.211 252.17 139.053 248.7C140.579 246.86 142.474 246.386 144.474 246.754C143.263 245.545 142.316 244.178 141.842 242.601C140.632 238.499 143.684 235.345 147.526 234.661C151.632 233.925 155.211 235.397 158.579 237.448C159.105 235.029 160.632 232.979 162.737 231.559C166 229.351 170.263 229.035 173.737 230.613C174 230.402 174.211 230.244 174.474 230.034C175.684 229.035 177.105 227.826 177.842 226.669C178.263 225.986 178.421 225.67 178.632 224.934C178.737 224.461 178.737 224.408 178.789 223.935C178.789 223.409 178.789 222.989 178.737 222.621Z" fill="#060001"/>
    <path d="M151.211 276.094C147.895 273.36 143.211 268.102 141.053 264.947C138.895 261.792 134.895 257.218 134.053 254.904C133.211 252.591 130.737 247.911 131.737 244.599C132.737 241.286 138.211 241.023 140.316 242.601C140.316 242.601 139 238.605 141.474 235.029C143.895 231.454 147.632 231.612 149.474 231.875C151.316 232.137 157.79 236.764 157.79 236.764C157.79 236.764 157.368 232.032 160.79 229.193C164.211 226.354 168.947 226.774 172.842 228.352C176.737 229.929 179 231.191 180.842 231.664C182.684 232.085 184.842 233.084 186.263 233.242C187.684 233.399 193.421 234.241 196 235.818" stroke="#060001" stroke-width="1.5" stroke-miterlimit="10" stroke-linecap="round" stroke-linejoin="round"/>
    <path d="M184.632 222.936C183.316 225.092 183.316 228.93 183.316 228.93C183.316 228.93 191.895 232.085 194.947 233.084C197.947 234.083 201.947 235.818 202.684 237.816C203.421 239.814 206.105 245.387 206.105 245.387" stroke="#060001" stroke-width="1.5" stroke-miterlimit="10" stroke-linecap="round" stroke-linejoin="round"/>
    <path d="M208.526 245.019C208.263 241.286 211.684 236.554 211.684 236.554" stroke="#060001" stroke-width="1.5" stroke-miterlimit="10" stroke-linecap="round" stroke-linejoin="round"/>
    <path d="M187.053 236.291C187.79 240.865 186.632 248.174 183.158 251.013" stroke="#060001" stroke-width="1.5" stroke-miterlimit="10" stroke-linecap="round" stroke-linejoin="round"/>
    <path d="M167.579 228.562C171.737 231.296 175.053 234.135 174.158 238.131C173.316 242.127 170.737 243.284 168.263 242.443C165.842 241.602 161.526 239.288 161.526 239.288" stroke="#060001" stroke-width="1.5" stroke-miterlimit="10" stroke-linecap="round" stroke-linejoin="round"/>
    <path d="M142.053 241.864C145.632 244.178 150.211 247.753 152.105 245.755C153.947 243.757 156.263 240.182 154.263 237.868C152.263 235.555 149.684 232.979 149.684 232.979" stroke="#060001" stroke-width="1.5" stroke-miterlimit="10" stroke-linecap="round" stroke-linejoin="round"/>
    <path d="M133 249.015C136.421 250.856 137.737 251.487 139 250.435C140.579 249.121 142 247.28 140.421 245.44C138.842 243.6 138.263 243.126 138.263 243.126" stroke="#060001" stroke-width="1.5" stroke-miterlimit="10" stroke-linecap="round" stroke-linejoin="round"/>
    <path d="M157.79 236.712C158.368 240.287 162.684 243.284 164.79 244.441C166.947 245.598 172.684 248.174 174.947 249.752C177.263 251.329 183.263 254.747 184.421 255.062" stroke="#060001" stroke-width="1.5" stroke-miterlimit="10" stroke-linecap="round" stroke-linejoin="round"/>
    <path d="M141.632 244.283C144.948 247.596 147.79 249.173 150.369 250.856C152.948 252.591 156.263 258.006 158.263 259.426C160.263 260.846 167 267.418 167 267.418" stroke="#060001" stroke-width="1.5" stroke-miterlimit="10" stroke-linecap="round" stroke-linejoin="round"/>
    <path d="M149.369 253.011C147.211 253.958 145.421 255.64 144.369 257.743" stroke="#060001" stroke-width="1.5" stroke-miterlimit="10" stroke-linecap="round" stroke-linejoin="round"/>
    <path d="M164.263 250.487C163.053 251.434 162.368 253.064 162.474 254.641" stroke="#060001" stroke-width="1.5" stroke-miterlimit="10" stroke-linecap="round" stroke-linejoin="round"/>
    <path d="M202.526 246.859C202.105 249.331 201.158 251.749 199.79 253.852" stroke="#060001" stroke-width="1.5" stroke-miterlimit="10" stroke-linecap="round" stroke-linejoin="round"/>
    <path d="M113.895 249.278C113.79 252.223 112 255.009 109.369 256.324" stroke="#060001" stroke-width="1.5" stroke-miterlimit="10" stroke-linecap="round" stroke-linejoin="round"/>
    <path d="M89.4738 247.017C89.2106 238.289 90.6316 234.135 91.3158 230.718C92.0527 227.3 92.4737 217.257 93.3158 213.84" stroke="#060001" stroke-width="1.5" stroke-miterlimit="10" stroke-linecap="round" stroke-linejoin="round"/>
    <path d="M88.6842 230.771C88.1053 232.558 87.5264 234.346 86.8948 236.134" stroke="#060001" stroke-width="1.5" stroke-miterlimit="10" stroke-linecap="round" stroke-linejoin="round"/>
    <path d="M110.316 226.196C114.211 230.034 120.421 230.507 125.79 229.403C131.158 228.299 136.211 225.88 141.579 224.776C145.842 223.882 150.263 223.83 154.632 223.146C158.947 222.515 163.369 221.148 166.579 218.204" stroke="#060001" stroke-width="1.5" stroke-miterlimit="10" stroke-linecap="round" stroke-linejoin="round"/>
    <path d="M188.158 251.592H276.526C279.842 251.592 282.211 249.436 281.105 247.333L267.368 220.623C266.684 219.308 264.842 218.467 262.79 218.467H174.421C171.105 218.467 168.737 220.623 169.842 222.726L183.579 249.383C184.211 250.698 186.053 251.592 188.158 251.592Z" fill="#4F28FE"/>
    <path d="M188.579 249.751H276.947C280.263 249.751 282.632 247.596 281.526 245.493L267.79 218.835C267.105 217.52 265.263 216.679 263.211 216.679H174.842C171.526 216.679 169.158 218.835 170.263 220.938L184 247.596C184.684 248.858 186.526 249.751 188.579 249.751Z" fill="#060001"/>
    <path d="M174.79 229.719H273.474L270.526 224.04H171.842L174.79 229.719Z" fill="white"/>
    <path opacity="0.22" d="M227.263 224.04H171.842L174.79 229.719H220.895C223.053 227.878 225.158 225.985 227.263 224.04Z" fill="black"/>
    <path d="M206.211 241.444H216.211C215.526 240.287 214.79 239.078 214.053 237.921H204.369C204.947 239.131 205.579 240.287 206.211 241.444Z" fill="#EFEFEF"/>
    <path d="M263.632 241.391H273.632C272.947 240.235 272.211 239.025 271.474 237.869H261.79C262.368 239.025 263 240.235 263.632 241.391Z" fill="#4F28FE"/>
    <path d="M201.105 237.921H188.369L190.211 241.444H202.895C202.263 240.287 201.684 239.131 201.105 237.921Z" fill="#EFEFEF"/>
    <path d="M219.684 241.444H251.316L249.474 237.921H217.526C218.263 239.078 219 240.287 219.684 241.444Z" fill="#EFEFEF"/>
    <path d="M72.579 190.495C83.3685 188.391 86.6842 189.601 94.1579 189.022C101.632 188.444 117.263 186.025 122.316 186.025C127.421 186.025 147.526 189.601 152.895 190.232C158.316 190.81 159.79 190.232 164.263 191.441C168.737 192.65 172.053 196.226 178.053 198.013C184.053 199.801 192.737 203.114 197.263 204.586C201.737 206.058 207.895 212.999 210 214.208C212.105 215.417 221.105 214.523 225.105 217.783C227.579 219.834 226.632 224.356 221.263 226.722C215.842 229.14 206.579 229.719 200.579 227.616C194.579 225.512 191.895 223.146 188.579 223.146C185.263 223.146 179.579 222.253 175.368 220.465C171.158 218.677 168.789 218.046 167.579 218.046C166.368 218.046 158.474 217.52 141.947 220.833C125.421 224.145 117.474 223.146 117.474 223.146L72.579 190.495Z" fill="#E6373C"/>
    <path d="M211.526 216.679C215.263 219.571 220.526 220.465 225 218.888" stroke="#060001" stroke-width="1.5" stroke-miterlimit="10" stroke-linecap="round" stroke-linejoin="round"/>
    <path d="M164.368 209.055C165.316 211.947 166.895 214.576 168.947 216.784" stroke="#060001" stroke-width="1.5" stroke-miterlimit="10" stroke-linecap="round" stroke-linejoin="round"/>
    <path d="M190.105 221.569C190.895 220.465 191.684 219.308 192.474 218.204" stroke="#060001" stroke-width="1.5" stroke-miterlimit="10" stroke-linecap="round" stroke-linejoin="round"/>
    <path d="M198.947 206.321C198.632 206.847 198.368 207.425 198.053 207.951" stroke="#060001" stroke-width="1.5" stroke-miterlimit="10" stroke-linecap="round" stroke-linejoin="round"/>
    <path d="M194.579 204.533C195.368 205.217 195.684 206.426 195.316 207.425" stroke="#060001" stroke-width="1.5" stroke-miterlimit="10" stroke-linecap="round" stroke-linejoin="round"/>
    <path d="M493.684 241.128C492.842 243.915 493.632 260.214 489.053 272.886C484.421 285.558 477.842 283.875 477.842 283.875C477.842 283.875 476.421 283.349 471.316 279.932C466.211 276.567 459.737 274.779 455.737 274.411C451.684 274.043 443.789 273.307 437.895 274.831C432.684 276.199 421.789 275.725 416.947 275.83C416.842 275.83 416.789 275.83 416.737 275.83C416.632 275.83 416.579 275.83 416.474 275.83C416.316 275.83 416.211 275.83 416.105 275.83C415.842 275.83 415.632 275.83 415.421 275.883C415.368 275.883 415.316 275.883 415.263 275.883C411.421 276.093 399.158 273.727 396.526 273.517C393.842 273.254 387.789 272.203 384.737 270.888C383.211 270.204 381.684 269.048 380.421 267.786C379.158 266.524 378.158 265.104 377.579 263.895C376.421 261.529 378.211 257.007 378.263 256.797C378 256.849 370.526 258.532 365.895 256.797C361.211 255.062 359.526 248.962 360.474 244.861C361.474 240.76 367.579 239.078 367.579 239.078C367.579 239.078 357.316 237.605 354.737 235.975C352.158 234.398 351.789 229.35 353.211 225.197C354.579 221.148 360.842 219.728 361.211 219.676C360.947 219.676 358.474 219.834 355.895 219.781C355.579 219.781 355.316 219.781 355 219.781C354.842 219.781 354.684 219.781 354.526 219.781C354.211 219.781 353.895 219.834 353.579 219.886C353.474 219.886 353.368 219.886 353.263 219.939C352.737 219.991 352.158 220.096 351.579 220.202C350.158 220.517 348.684 220.938 347.211 221.464C344.211 222.515 339.263 221.726 336.842 219.571C334.421 217.415 333.737 213.682 336.053 210.527C336.684 209.686 337.368 209.002 338.158 208.476C338.316 208.371 338.474 208.266 338.579 208.214C339.053 207.951 339.526 207.688 340.053 207.477C340.211 207.425 340.421 207.32 340.579 207.267H340.632C340.789 207.215 340.947 207.162 341.158 207.109C341.789 206.899 342.526 206.689 343.263 206.531C343.474 206.478 343.632 206.426 343.842 206.373C344.316 206.268 344.842 206.163 345.368 206.058H345.421C346 205.953 346.579 205.848 347.158 205.742C347.789 205.637 348.474 205.532 349.158 205.374C356.737 204.06 369 203.85 380.632 202.325L400.789 205.217L425.895 212.052L493.737 230.507C493.842 230.244 495.789 233.925 493.684 241.128Z" fill="#4F28FE"/>
    <path opacity="0.22" d="M451.737 244.914C450.158 246.175 447.211 244.966 445.474 246.07C442.263 248.121 439.421 250.066 437 254.062C435 257.375 432.79 261.318 430.579 264.473C427.053 269.416 423.053 273.622 417.842 275.83C417.526 275.83 417.211 275.83 416.947 275.83C416.842 275.83 416.79 275.83 416.737 275.83C416.632 275.83 416.579 275.83 416.474 275.83C416.316 275.83 416.211 275.83 416.105 275.83C415.842 275.83 415.632 275.83 415.421 275.883C415.369 275.883 415.316 275.883 415.263 275.883C411.421 276.093 399.158 273.727 396.526 273.517C393.842 273.254 387.79 272.202 384.737 270.888C383.211 270.204 381.684 269.047 380.421 267.786C390.368 268.048 398.632 264.315 403.421 261.949C407.263 260.056 415.158 257.638 415.526 252.064C415.842 246.912 402.474 250.277 399.421 250.014C409.053 247.7 413.79 241.233 409.211 236.343C405.105 231.927 385.053 237.027 379.474 237.763C382.158 236.238 393 235.186 396.158 230.402C398.895 226.248 395.895 221.568 391.947 220.569C386.474 219.202 386.474 221.463 380.895 220.885C375.105 220.306 361.211 219.781 361.211 219.781C360.947 219.781 358.474 219.938 355.895 219.886C355.579 219.886 355.316 219.886 355 219.886C354.842 219.886 354.684 219.886 354.526 219.886C354.211 219.886 353.895 219.938 353.579 219.991C353.474 219.991 353.368 219.991 353.263 220.044C352.737 220.096 352.158 220.201 351.579 220.306C349.158 219.938 346.842 219.045 344.632 217.467C341.632 215.311 339.105 212.157 338.158 208.529C338.316 208.424 338.474 208.318 338.579 208.266C339.053 208.003 339.526 207.74 340.053 207.53C340.211 207.477 340.421 207.372 340.579 207.319H340.632C340.79 207.267 340.947 207.214 341.158 207.162C341.79 206.951 342.526 206.741 343.263 206.583C343.474 206.531 343.632 206.478 343.842 206.426C344.316 206.32 344.842 206.215 345.368 206.11H345.421C346 206.005 346.579 205.9 347.158 205.795C347.79 205.689 348.474 205.584 349.158 205.427C356.737 204.112 369 203.902 380.632 202.377L400.79 205.269L425.895 212.104C424.158 217.52 424.053 223.672 424.79 229.455C424.526 229.928 424.526 230.559 425 231.085C425 231.138 425 231.138 425 231.19C425.158 231.979 425.737 232.295 426.369 232.242C431.632 236.343 439.158 237.027 445.316 239.025C447.474 239.708 449.895 240.602 451.684 242.074C452.737 242.653 452.684 244.125 451.737 244.914Z" fill="black"/>
    <path d="M361.632 219.518C365.947 218.94 369.947 219.571 372.895 219.676C375.842 219.834 379.211 220.833 382.895 220.36C386.579 219.886 394.79 219.413 397.316 224.303C399.842 229.193 397.158 233.136 395.895 233.978C394.632 234.819 386.263 235.713 383.421 236.869C380.579 238.026 374 238.552 369.789 238.762" stroke="#060001" stroke-width="1.5" stroke-miterlimit="10" stroke-linecap="round" stroke-linejoin="round"/>
    <path d="M383.421 236.869C388.632 236.869 396.947 235.292 400.947 234.503C404.947 233.715 410.421 235.502 411.632 238.447C412.895 241.391 412.526 245.23 408.947 247.596C407.053 248.858 399.368 249.909 396 250.593C392.579 251.276 390.053 252.854 387.158 253.747C384.263 254.641 380.737 255.062 378.158 256.639" stroke="#060001" stroke-width="1.5" stroke-miterlimit="10" stroke-linecap="round" stroke-linejoin="round"/>
    <path d="M402.947 249.278C407.158 249.015 411.105 248.594 412.947 248.91C414.842 249.225 417.053 251.066 416.474 254.01C415.895 256.955 414.474 257.901 412.947 258.69C411.368 259.478 407.842 262.055 405.579 262.896C403.316 263.737 401.684 264.631 398.947 265.946C396.211 267.26 390.211 269.731 390.211 269.731" stroke="#060001" stroke-width="1.5" stroke-miterlimit="10" stroke-linecap="round" stroke-linejoin="round"/>
    <path d="M409.842 249.909C408.053 250.54 406.474 251.434 407.368 254.063C407.842 255.588 409.421 257.113 411.79 256.271C414.158 255.483 415.263 254.694 415.263 254.694" stroke="#060001" stroke-width="1.5" stroke-miterlimit="10" stroke-linecap="round" stroke-linejoin="round"/>
    <path d="M407.211 236.238C401.158 237.448 400 237.027 399.105 239.709C398.211 242.39 400.053 244.914 401.579 245.703C403.105 246.491 409.684 245.229 409.684 245.229" stroke="#060001" stroke-width="1.5" stroke-miterlimit="10" stroke-linecap="round" stroke-linejoin="round"/>
    <path d="M391.368 221.937C386.526 223.409 384.316 223.935 383.579 226.406C382.842 228.877 383.368 231.191 386.053 232.4C388.737 233.61 393.579 233.189 395.053 232.032C396.474 230.875 396.947 228.457 396.947 228.457" stroke="#060001" stroke-width="1.5" stroke-miterlimit="10" stroke-linecap="round" stroke-linejoin="round"/>
    <path d="M372.842 225.302C371.211 228.351 371.158 232.19 372.684 235.292" stroke="#060001" stroke-width="1.5" stroke-miterlimit="10" stroke-linecap="round" stroke-linejoin="round"/>
    <path d="M387.842 241.128C388 243.021 388.105 244.861 388.263 246.754" stroke="#060001" stroke-width="1.5" stroke-miterlimit="10" stroke-linecap="round" stroke-linejoin="round"/>
    <path d="M398.263 254.746C398.737 256.008 399.211 257.27 399.684 258.584" stroke="#060001" stroke-width="1.5" stroke-miterlimit="10" stroke-linecap="round" stroke-linejoin="round"/>
    <path d="M400.211 255.43C400.105 256.113 400.526 256.849 401.105 257.165" stroke="#060001" stroke-width="1.5" stroke-miterlimit="10" stroke-linecap="round" stroke-linejoin="round"/>
    <path d="M362 218.677C363.789 217.31 365 215.207 365.263 212.946" stroke="#060001" stroke-width="1.5" stroke-miterlimit="10" stroke-linecap="round" stroke-linejoin="round"/>
    <path d="M384.105 209.265C382.421 212.578 381.526 216.258 381.421 219.939" stroke="#060001" stroke-width="1.5" stroke-miterlimit="10" stroke-linecap="round" stroke-linejoin="round"/>
    <path d="M462.632 272.781C467.263 268.364 470.684 262.738 472.474 256.586" stroke="#060001" stroke-width="1.5" stroke-miterlimit="10" stroke-linecap="round" stroke-linejoin="round"/>
    <path d="M466.158 273.622C466.947 272.729 467.684 271.835 468.474 270.888" stroke="#060001" stroke-width="1.5" stroke-miterlimit="10" stroke-linecap="round" stroke-linejoin="round"/>
    <path d="M424.632 259.794C428.158 259.636 431.368 257.638 434 255.272C436.632 252.906 438.947 250.172 441.842 248.121C444.737 246.07 448.421 244.703 451.842 245.65" stroke="#060001" stroke-width="1.5" stroke-miterlimit="10" stroke-linecap="round" stroke-linejoin="round"/>
    <path d="M363.695 191.936L340.955 210.501L343.953 214.166L366.693 195.6L363.695 191.936Z" fill="#060001"/>
    <path d="M360.766 211.588C367.046 206.461 369.691 199.316 366.674 195.629C363.658 191.941 356.122 193.108 349.842 198.235C343.563 203.361 340.918 210.507 343.934 214.194C346.951 217.882 354.487 216.715 360.766 211.588Z" fill="#060001"/>
    <path d="M357.498 207.595C363.778 202.468 366.423 195.323 363.406 191.635C360.389 187.948 352.854 189.115 346.574 194.241C340.295 199.368 337.65 206.514 340.666 210.201C343.683 213.889 351.219 212.722 357.498 207.595Z" fill="white"/>
    <path d="M356.632 202.588C358.947 200.537 358.368 198.171 358.368 198.171L357.684 196.226L359.053 195.227L358 192.966L356.632 194.07L355.579 191.809L354 193.018L354.421 193.86L345.579 200.695L345.158 199.959L343.579 201.168L344.526 203.482L343.263 204.428L344.158 206.531L345.579 205.48C345.579 205.48 347.421 209.371 350.474 207.373C353.526 205.375 353.053 203.745 353.053 203.745C353.263 204.007 354.316 204.691 356.632 202.588ZM354.947 201.747C353.421 202.64 352.895 201.431 352.368 200.327C351.737 198.96 351.526 198.381 351.526 198.381L355.105 195.49C355.105 195.49 355.947 197.172 356.421 198.276C356.842 199.486 356.421 200.8 354.947 201.747ZM349.895 205.743C348.684 206.584 348 206.058 347.474 205.217C346.895 204.428 346.211 202.483 346.211 202.483L349.684 199.749C349.684 199.749 351.053 202.272 351.158 202.903C351.263 203.534 351.105 204.901 349.895 205.743Z" fill="#E6373C"/>
    <path d="M348.79 213.524L350.053 214.944" stroke="white" stroke-width="1.5" stroke-miterlimit="10" stroke-linecap="round" stroke-linejoin="round"/>
    <path d="M346.79 213.104L348.842 215.785" stroke="white" stroke-width="1.5" stroke-miterlimit="10" stroke-linecap="round" stroke-linejoin="round"/>
    <path d="M486.789 225.985C483.632 224.461 478.474 222.988 474.368 221.253C470.263 219.466 460.737 214.839 457.632 211.526C454.474 208.214 447.053 204.638 442.263 203.481C437.421 202.325 427.421 198.486 422.263 196.541C419.579 195.489 417 194.701 413.684 194.49C410.368 194.28 407.474 193.176 402.842 192.072C398.21 190.968 391.526 189.18 388.684 188.654C385.105 188.023 379.474 188.391 376.631 188.128C373.737 187.813 368.21 184.711 365.158 184.185C362.158 183.659 359.842 184.08 359.947 187.865C360.053 191.599 366.842 197.593 369.526 199.591C372.21 201.589 379.632 205.742 382.579 205.9C385.526 206.005 398.21 213.051 402.421 213.366C405.737 219.676 410.316 224.934 416.158 229.088C418.895 231.033 421.842 232.768 424.789 234.451C428.21 236.396 431.684 238.499 435.474 239.498C440.105 240.708 444.263 238.762 448.789 237.921C452.684 237.185 456.632 236.869 460.632 237.027C463.737 237.185 466.789 237.605 469.737 238.341C482.684 234.083 493.158 230.087 493.895 230.297C493.842 230.244 489.947 227.563 486.789 225.985Z" fill="#4F28FE"/>
    <path d="M374.421 202.64C379.474 205.374 381.737 204.533 385.263 206.373C389.526 208.582 400.684 213.682 402.474 213.366C402.474 213.366 407.263 224.092 416.21 229.508C429.947 237.868 433.368 240.497 444.21 239.34" stroke="#060001" stroke-width="1.5" stroke-miterlimit="10" stroke-linecap="round" stroke-linejoin="round"/>
    <path d="M364.21 184.816C366.579 186.761 369.579 187.918 372.632 188.128" stroke="#060001" stroke-width="1.5" stroke-miterlimit="10" stroke-linecap="round" stroke-linejoin="round"/>
    <path d="M388.263 188.97C388.21 189.706 388.21 190.389 388.158 191.125" stroke="#060001" stroke-width="1.5" stroke-miterlimit="10" stroke-linecap="round" stroke-linejoin="round"/>
    <path d="M330.789 78.6587H278.421C278.579 78.9216 278.737 79.1845 278.895 79.4474C281.947 84.8105 284.737 90.3313 287.579 95.7995C288.474 97.4821 289.316 99.1646 290.211 100.9H342.368C338.526 93.4335 334.737 86.0198 330.789 78.6587Z" fill="#4F28FE"/>
    <path opacity="0.22" d="M313.368 89.0166H294.684C294.684 89.0692 294.737 89.0692 294.737 89.1218C295.158 89.8579 295.526 90.594 295.895 91.3301C296 91.5404 296.158 91.8033 296.263 92.0136H314.895C314.421 91.0146 313.895 90.0156 313.368 89.0166Z" fill="black"/>
    <path opacity="0.22" d="M312.632 94.6431H297.842C297.842 94.6956 297.895 94.6956 297.895 94.7482C298.316 95.4843 298.684 96.2204 299.053 96.9565C299.158 97.1669 299.316 97.4298 299.421 97.6401H314.158C313.684 96.6937 313.158 95.6421 312.632 94.6431Z" fill="black"/>
    <path opacity="0.22" d="M334.579 89.0166H315.895C315.895 89.0692 315.947 89.0692 315.947 89.1218C316.368 89.8579 316.737 90.594 317.105 91.3301C317.211 91.5404 317.368 91.8033 317.474 92.0136H336.105C335.632 91.0146 335.105 90.0156 334.579 89.0166Z" fill="black"/>
    <path d="M315.684 87.5444H297C297 87.597 297.053 87.597 297.053 87.6496C297.474 88.3857 297.842 89.1218 298.21 89.8579C298.316 90.0682 298.474 90.3311 298.579 90.5415H317.21C316.737 89.5424 316.21 88.5434 315.684 87.5444Z" fill="#EFEFEF"/>
    <path d="M314.947 93.2231H300.158C300.158 93.2757 300.21 93.2757 300.21 93.3283C300.632 94.0644 301 94.8005 301.368 95.5366C301.474 95.747 301.632 96.0099 301.737 96.2202H316.474C316.053 95.2212 315.526 94.2222 314.947 93.2231Z" fill="#EFEFEF"/>
    <path d="M336.947 87.5444H318.263C318.263 87.597 318.316 87.597 318.316 87.6496C318.737 88.3857 319.105 89.1218 319.474 89.8579C319.579 90.0682 319.737 90.3311 319.842 90.5415H338.474C338 89.5424 337.474 88.5434 336.947 87.5444Z" fill="#02BBDC"/>
    <path d="M282.316 80.9199L287.105 83.4437" stroke="white" stroke-width="1.5" stroke-miterlimit="10" stroke-linecap="round" stroke-linejoin="round"/>
    <path d="M285.842 80.9199L283.526 83.4437" stroke="white" stroke-width="1.5" stroke-miterlimit="10" stroke-linecap="round" stroke-linejoin="round"/>
    <path d="M412.421 320.313H353.526C352.684 318.683 351.842 317.106 351.053 315.476C348.368 310.218 345.684 304.96 342.789 299.86C342.632 299.597 342.526 299.334 342.368 299.124H401.421C403.737 303.382 406 307.694 408.211 312.058C408.684 313.004 409.211 313.951 409.684 314.897C410.579 316.632 411.474 318.473 412.421 320.313Z" fill="#4F28FE"/>
    <path d="M368.316 305.38H360.369C360.369 305.433 360.421 305.433 360.421 305.486C360.79 306.169 361.158 306.905 361.526 307.589C361.632 307.799 361.737 308.009 361.842 308.22H369.79C369.316 307.273 368.842 306.327 368.316 305.38Z" fill="#EFEFEF"/>
    <path d="M398.105 305.38H372.579C372.579 305.433 372.632 305.433 372.632 305.486C373 306.169 373.368 306.905 373.737 307.589C373.842 307.799 373.947 308.009 374.053 308.22H399.579C399.105 307.273 398.579 306.327 398.105 305.38Z" fill="#EFEFEF"/>
    <path d="M392 310.849H369.21C369.21 310.901 369.263 310.901 369.263 310.954C369.631 311.637 370 312.373 370.368 313.057C370.474 313.267 370.579 313.478 370.684 313.688H393.421C393 312.741 392.526 311.795 392 310.849Z" fill="#EFEFEF"/>
    <path d="M413.579 310.849H394.368C394.368 310.901 394.421 310.901 394.421 310.954C394.789 311.637 395.158 312.373 395.526 313.057C395.632 313.267 395.737 313.478 395.842 313.688H415C414.579 312.741 414.105 311.795 413.579 310.849Z" fill="#EFEFEF"/>
    <path opacity="0.22" d="M367.105 306.484H359.158C359.158 306.537 359.211 306.537 359.211 306.59C359.579 307.273 359.947 308.009 360.316 308.693C360.421 308.903 360.526 309.113 360.632 309.324H368.579C368.105 308.377 367.632 307.431 367.105 306.484Z" fill="black"/>
    <path opacity="0.22" d="M396.895 306.484H371.368C371.368 306.537 371.421 306.537 371.421 306.59C371.789 307.273 372.158 308.009 372.526 308.693C372.632 308.903 372.737 309.113 372.842 309.324H398.368C397.895 308.377 397.421 307.431 396.895 306.484Z" fill="black"/>
    <path opacity="0.22" d="M390.789 311.953H368C368 312.005 368.053 312.005 368.053 312.058C368.421 312.741 368.789 313.477 369.158 314.161C369.263 314.371 369.368 314.582 369.474 314.792H392.211C391.789 313.898 391.316 312.899 390.789 311.953Z" fill="black"/>
    <path opacity="0.22" d="M409.632 314.845H394.737C394.632 314.634 394.526 314.424 394.421 314.214C394.053 313.53 393.684 312.794 393.316 312.111C393.316 312.058 393.263 312.058 393.263 312.005H408.211C408.632 312.952 409.158 313.898 409.632 314.845Z" fill="black"/>
    <path d="M368.316 305.38H360.369C360.369 305.433 360.421 305.433 360.421 305.486C360.79 306.169 361.158 306.905 361.526 307.589C361.632 307.799 361.737 308.009 361.842 308.22H369.79C369.316 307.273 368.842 306.327 368.316 305.38Z" fill="#02BBDC"/>
    <path d="M398.105 305.38H372.579C372.579 305.433 372.632 305.433 372.632 305.486C373 306.169 373.368 306.905 373.737 307.589C373.842 307.799 373.947 308.009 374.053 308.22H399.579C399.105 307.273 398.579 306.327 398.105 305.38Z" fill="#02BBDC"/>
    <path d="M392 310.849H369.21C369.21 310.901 369.263 310.901 369.263 310.954C369.631 311.637 370 312.373 370.368 313.057C370.474 313.267 370.579 313.478 370.684 313.688H393.421C393 312.741 392.526 311.795 392 310.849Z" fill="#02BBDC"/>
    <path d="M413.579 310.849H394.368C394.368 310.901 394.421 310.901 394.421 310.954C394.789 311.637 395.158 312.373 395.526 313.057C395.632 313.267 395.737 313.478 395.842 313.688H415C414.579 312.741 414.105 311.795 413.579 310.849Z" fill="#02BBDC"/>
    <path d="M347.842 301.963H353.684" stroke="white" stroke-width="1.5" stroke-miterlimit="10" stroke-linecap="round" stroke-linejoin="round"/>
</svg>
