<svg width="428" height="255" viewBox="0 0 428 255" fill="none" xmlns="http://www.w3.org/2000/svg">
<path d="M134.474 34.7856H101.368C101.474 34.9434 101.579 35.1011 101.632 35.3114C103.526 38.7291 105.316 42.1993 107.105 45.6695C107.684 46.7211 108.211 47.8253 108.737 48.8769H141.737C139.368 44.1447 136.947 39.4652 134.474 34.7856Z" fill="#4F28FE"/>
<path opacity="0.22" d="M114.053 41.8311H108.947L109 41.8836C109.316 42.4094 109.579 42.9352 109.842 43.461C109.947 43.6187 110 43.7765 110.105 43.9342H115.158C114.789 43.2507 114.421 42.5146 114.053 41.8311Z" fill="black"/>
<path opacity="0.22" d="M126.632 41.8311H116.368L116.421 41.8836C116.737 42.4094 117 42.9352 117.263 43.461C117.368 43.6187 117.421 43.7765 117.526 43.9342H127.789C127.421 43.2507 127.053 42.5146 126.632 41.8311Z" fill="black"/>
<path d="M114.526 40.5166H109.421L109.474 40.5692C109.789 41.095 110.053 41.6208 110.316 42.1466C110.421 42.3043 110.474 42.462 110.579 42.6198H115.632C115.316 41.9888 114.947 41.2527 114.526 40.5166Z" fill="#EFEFEF"/>
<path d="M127.158 40.5166H116.895L116.947 40.5692C117.263 41.095 117.526 41.6208 117.79 42.1466C117.895 42.3043 117.947 42.462 118.053 42.6198H128.263C127.895 41.9888 127.526 41.2527 127.158 40.5166Z" fill="#02BBDC"/>
<path d="M108.895 38.4136H122.053" stroke="#EFEFEF" stroke-width="1.5" stroke-miterlimit="10" stroke-linecap="round" stroke-linejoin="round"/>
<path d="M310.421 126.272C310.421 134.737 309.316 142.887 307.158 150.668C302.632 167.178 293.684 181.9 281.579 193.363C270.737 203.668 257.368 211.397 242.474 215.499C234.632 217.654 226.316 218.811 217.789 218.811C209.211 218.811 200.947 217.654 193.105 215.499C179.105 211.66 166.368 204.562 155.895 195.098C146.211 186.37 138.368 175.696 133.053 163.603C128 152.193 125.211 139.574 125.211 126.272C125.211 110.077 129.368 94.8818 136.684 81.6844C137.684 79.7915 138.79 78.0038 139.947 76.2161C140.632 75.1645 141.368 74.113 142.053 73.0614C143.526 70.9582 145.105 68.9076 146.737 66.9622C157.316 54.3432 171.158 44.5634 187 38.99C196.632 35.6249 207 33.7847 217.789 33.7847C228.579 33.7847 238.947 35.6249 248.579 38.99C267.737 45.7202 284.053 58.6021 295.105 75.2697C296.842 77.8461 298.421 80.5276 299.842 83.2617C306.632 96.0911 310.421 110.761 310.421 126.272Z" fill="#02BBDC"/>
<path d="M299.421 167.18C299.421 183.848 262.895 197.308 217.842 197.308C172.79 197.308 136.263 183.795 136.263 167.18" stroke="#EFEFEF" stroke-width="1.5" stroke-miterlimit="10" stroke-linecap="round" stroke-linejoin="round"/>
<path opacity="0.11" d="M286.368 188.527C286.789 188.054 287.211 187.581 287.632 187.108C287.842 186.897 288 186.687 288.211 186.424C288.789 185.741 289.421 185.004 290 184.321C290.158 184.111 290.316 183.953 290.474 183.743C290.895 183.164 291.368 182.638 291.789 182.06C292 181.797 292.158 181.587 292.368 181.324C292.789 180.745 293.211 180.22 293.579 179.641C293.737 179.431 293.895 179.221 294.053 178.958C295.158 177.38 296.211 175.75 297.211 174.121C297.316 173.91 297.421 173.752 297.526 173.542C297.895 172.911 298.316 172.228 298.684 171.544C298.789 171.334 298.947 171.124 299.053 170.913C299.474 170.177 299.842 169.441 300.263 168.652C300.316 168.547 300.368 168.442 300.421 168.337C300.895 167.443 301.316 166.549 301.737 165.603C301.737 165.55 301.789 165.498 301.789 165.445C302.158 164.604 302.579 163.762 302.947 162.921C303.053 162.763 303.105 162.553 303.158 162.395C303.316 162.027 303.474 161.712 303.579 161.344L303.526 161.396C304.947 157.926 306.211 154.351 307.211 150.67L305.158 150.25C284.789 158.189 260.579 162.658 270.263 174.173C278.526 184.005 272.684 181.902 276.421 187.423C268.895 192.155 260.684 195.836 251.895 198.254C244.053 200.41 235.737 201.567 227.211 201.567C218.632 201.567 210.368 200.41 202.526 198.254C202.211 198.149 201.947 198.097 201.632 197.992C198.579 191.419 195.579 184.794 192.632 178.117C192.211 177.118 190.474 176.276 188.421 176.066C178.105 174.751 168 172.911 158.053 170.545C151.684 163.394 146.368 155.245 142.474 146.359C137.421 134.949 134.632 122.33 134.632 109.027C134.632 96.6187 137.105 84.7884 141.526 73.957C141 74.6931 140.526 75.4293 140.053 76.1654C138.895 77.9531 137.789 79.7933 136.789 81.6336C129.474 94.8836 125.316 110.079 125.316 126.221C125.316 139.471 128.105 152.142 133.158 163.552C138.474 175.645 146.316 186.371 156 195.047C166.526 204.511 179.211 211.557 193.211 215.448C201.053 217.604 209.368 218.76 217.895 218.76C226.474 218.76 234.737 217.604 242.579 215.448C257.421 211.347 270.789 203.67 281.684 193.312C281.895 193.102 282.053 192.944 282.263 192.734C282.737 192.313 283.158 191.84 283.632 191.419C283.895 191.156 284.158 190.841 284.474 190.578C284.842 190.157 285.263 189.789 285.632 189.368C285.842 189.053 286.105 188.79 286.368 188.527Z" fill="black"/>
<path d="M251.316 42.6198C251.316 47.7199 236.316 51.8211 217.789 51.8211C199.316 51.8211 184.316 47.7199 184.316 42.6198C184.316 41.3053 185.316 40.096 187.053 38.9918C196.684 35.5742 207.053 33.7339 217.842 33.7339C228.632 33.7339 239 35.5742 248.632 38.9918C250.368 40.096 251.316 41.3053 251.316 42.6198Z" fill="#EFEFEF"/>
<path d="M310.474 126.273C310.474 139.944 269 150.986 217.842 150.986C166.684 150.986 125.211 139.944 125.211 126.273" stroke="#EFEFEF" stroke-width="1.5" stroke-miterlimit="10" stroke-linecap="round" stroke-linejoin="round"/>
<path d="M296.895 74.2197C296.895 86.1552 261.895 95.8298 218.789 95.8298C175.684 95.8298 140.684 86.1552 140.684 74.2197" stroke="#EFEFEF" stroke-width="1.5" stroke-miterlimit="10" stroke-linecap="round" stroke-linejoin="round"/>
<path d="M193.158 215.447C177.474 198.885 166.895 167.127 166.895 130.69C166.895 77.164 189.737 33.7861 217.842 33.7861C246 33.7861 268.789 77.164 268.789 130.69C268.789 167.18 258.211 198.938 242.526 215.447" stroke="#EFEFEF" stroke-width="1.5" stroke-miterlimit="10" stroke-linecap="round" stroke-linejoin="round"/>
<path opacity="0.11" d="M299.842 83.2635C296.316 94.5155 270.737 125.169 251.053 142.52C248.684 140.943 246.316 139.366 244 137.788C265.105 115.495 282.737 93.7268 295.105 75.2715C296.842 77.8479 298.421 80.5294 299.842 83.2635Z" fill="black"/>
<path d="M217.842 33.7339V218.813" stroke="#EFEFEF" stroke-width="1.5" stroke-miterlimit="10" stroke-linecap="round" stroke-linejoin="round"/>
<path opacity="0.11" d="M144.211 108.133C147.474 107.502 149.105 107.134 152.211 106.293C146.789 96.4607 142.789 86.7861 139.947 76.1651C140.632 75.1135 141.368 74.0619 142.053 73.0103C143.526 70.9072 145.105 68.8566 146.737 66.9111C149.684 79.9508 155.579 91.7811 162.684 103.086C165.368 102.139 166.737 101.613 169.316 100.509C171.053 108.238 173.053 115.968 175.316 123.539C164.421 119.49 153.895 114.653 144.211 108.133Z" fill="black"/>
<path d="M277.684 37.4672C280.158 39.1497 282.579 40.7796 285.053 42.4096C293.105 38.8342 299.526 37.362 303.684 38.4136C303.474 36.731 302.842 35.364 301.842 34.3124C298.158 30.4215 289.526 31.8412 277.684 37.4672Z" fill="#AEC5CE"/>
<path d="M171.053 189.631C152 202.513 136.474 209.717 127.947 209.033C129.053 210.505 130.263 211.872 131.368 213.292C131.789 213.818 132.263 214.396 132.684 214.922C141.053 215.868 156.684 208.718 175.895 195.783C174.263 193.733 172.632 191.682 171.053 189.631Z" fill="#EFEFEF"/>
<path d="M232.368 138.682C234.263 140.522 236.105 142.363 238 144.203C286.474 97.0918 317.316 50.7695 307.105 40.2011C306.263 39.3073 305.105 38.7289 303.737 38.3608C305.895 53.9769 276.316 96.0403 232.368 138.682Z" fill="#EFEFEF"/>
<path d="M175 27.4243L182.79 24.4798C165.368 6.39257 151.158 -2.5459 144 1.71302C143.158 2.23881 142.474 2.86976 141.842 3.71103C149.737 4.71004 161.368 13.2805 175 27.4243Z" fill="#AEC5CE"/>
<path d="M223.579 190.63C221.21 191.945 218.842 193.259 216.474 194.521C246.895 235.743 274.632 260.561 285.684 253.936C286.526 253.41 287.263 252.779 287.842 251.938C274.474 250.255 250 226.542 223.579 190.63Z" fill="#E6373C"/>
<path d="M292.263 207.929C289.842 209.611 287.526 211.346 285.158 213.081C290.947 232.115 292.158 246.049 287.842 251.938C290 252.2 291.895 251.938 293.474 250.991C300.474 246.837 299.474 230.801 292.263 207.929Z" fill="#AEC5CE"/>
<path d="M117 68.1206C102.105 68.2258 92.579 71.065 90.7369 76.7436C90.3684 77.8478 90.3158 79.0571 90.5263 80.319C94.4211 76.6384 103.053 74.8507 115.158 74.7982C115.789 72.5373 116.368 70.3289 117 68.1206Z" fill="#AEC5CE"/>
<path d="M134 115.442C108.474 102.139 92.1579 89.3623 90.5264 80.2661C89.5264 81.16 88.8422 82.2116 88.4737 83.3683C85.5264 92.4119 102.526 106.819 131.421 121.909C132.263 119.753 133.105 117.597 134 115.442Z" fill="#EFEFEF"/>
<path d="M351.947 164.814C339.579 176.434 280.526 169.441 213.158 147.673C191.789 140.785 171.947 133.161 154.737 125.432C153.632 127.483 152.632 129.586 151.632 131.689C169.053 139.523 189.211 147.305 210.947 154.298C283.632 177.748 346.684 184.058 351.789 168.337C352.105 167.285 352.158 166.076 351.947 164.814Z" fill="white"/>
<path d="M324.895 130.9L322.684 137.578C339.947 147.936 350.684 157.558 351.947 164.814C352.947 163.92 353.632 162.869 354 161.712C356.421 154.193 345.211 143.046 324.895 130.9Z" fill="#EFEFEF"/>
<path d="M282.053 219.917L285.737 203.565L297.895 209.349L282.053 219.917Z" fill="#AEC5CE"/>
<path d="M278.842 29.8428L272 42.5144L293.684 45.1433L278.842 29.8428Z" fill="#AEC5CE"/>
<path d="M161.79 189.053L182.158 188.212L177.895 203.565L161.79 189.053Z" fill="#EFEFEF"/>
<path d="M111.263 80.5819L120.789 69.4351L112.053 63.4937L111.263 80.5819Z" fill="#AEC5CE"/>
<path d="M148.316 125.59L155.105 137.525L162.316 123.224L148.316 125.59Z" fill="white"/>
<path d="M175.737 114.285C147.211 60.9172 133.053 15.6465 141.842 3.711C139.632 3.4481 137.79 3.711 136.211 4.65742C123.263 12.3866 137.684 61.0224 168.737 118.754C171.105 117.23 173.421 115.757 175.737 114.285Z" fill="#E6373C"/>
<path d="M158.737 112.813L179.684 127.009L176.369 103.664L158.737 112.813Z" fill="#E6373C"/>
<path d="M5.579 115.495C2.26321 118.334 -0.473625 129.376 0.947427 137.946C2.36848 146.516 3.52637 172.017 6.68427 174.751C6.68427 174.751 17.2632 174.015 21.7369 174.594C26.158 175.172 27.6316 177.012 32.2106 179.589C36.7895 182.165 44.6843 187.739 48.6843 190.63C52.6843 193.47 55.6843 193.365 58.2632 195.52C60.8422 197.676 64.7369 201.409 67.7369 201.251C70.7369 201.094 73.6317 201.83 78.8948 202.829C84.158 203.828 89.6317 204.985 93.3685 203.092C97.1053 201.251 97.9474 201.094 99.1053 198.202C100.263 195.31 99.9474 192.471 99.9474 192.471C99.9474 192.471 107.105 199.201 111.105 200.042C115.105 200.883 118.579 199.884 120.421 197.203C122.263 194.469 124.316 192.05 123.263 188.632C122.263 185.215 119.947 181.639 117.368 180.062C117.368 180.062 126.421 183.059 130.263 182.375C134.158 181.639 135.842 180.798 137.158 177.643C138.474 174.489 139 170.493 139 170.493C139 170.493 142.421 172.333 143.316 174.383C144.211 176.434 147.211 181.271 150.895 180.693C154.632 180.115 156.79 178.117 157.79 175.277C158.79 172.438 157.947 169.967 157.947 168.126C157.947 166.286 156.947 162.553 154.526 159.819C152.105 157.085 149.105 153.509 149.105 153.509L94.6317 134.633L5.579 115.495Z" fill="#E6373C"/>
<path opacity="0.17" d="M111.737 147.621C111.474 144.518 110.211 141.101 107.737 139.05L101.842 137C101.053 137 100.263 137.052 99.4737 137.157C98.8421 137.736 99.4211 140.733 98.7368 141.258C92.2105 146.096 91.8947 145.044 84.0526 146.359C80.0526 146.99 66.6316 147.358 62.7895 148.725C52.7368 152.247 48.3158 151.985 46.5263 152.405C46.1579 152.51 45.7895 152.616 45.4211 152.721C45.2632 152.773 45.4211 152.721 45.4211 152.721C45.3684 152.773 45.2632 152.773 45.2105 152.826C45.1579 152.878 45 152.984 44.9474 152.984C44.8947 153.036 44.6842 153.246 44.6316 153.299C44.579 153.352 44.5263 153.404 44.5263 153.457C44.4211 153.562 44.3684 153.667 44.3158 153.825C44.2632 153.877 44.2632 153.93 44.2105 154.035C44.1579 154.193 44.1053 154.351 44.0526 154.508C44.0526 154.561 44 154.771 44 154.824C44 154.876 44 155.087 44 155.139C44 155.297 44 155.455 44 155.613C44 156.086 44.0526 156.138 44.1053 156.454C44.1579 156.822 44.2632 157.19 44.3684 157.558C44.8421 159.135 45.5263 160.502 46.3158 161.922C47.8947 164.656 52.2105 166.234 53.9474 168.81C56.579 172.753 56.6316 177.801 59.579 181.482C61.1579 183.374 62.8421 185.162 64.6842 186.792C65.5263 187.528 66.579 188.212 67.5263 188.895C70.1053 190.683 72.7895 192.418 75.6316 193.838C75.6842 193.89 75.7368 193.89 75.8421 193.943C74.4737 191.577 73.3158 189.053 72.5263 186.477C70.4737 182.27 69.2105 177.17 72.0526 173.7C73.579 171.86 75.4737 171.386 77.4737 171.754C76.2632 170.545 75.3158 169.178 74.8421 167.601C73.6316 163.499 76.6842 160.345 80.5263 159.661C84.6316 158.925 88.2105 160.397 91.5789 162.448C92.1053 160.029 93.6316 157.979 95.7369 156.559C99 154.351 103.263 154.035 106.737 155.613C107 155.402 107.211 155.244 107.474 155.034C108.684 154.035 110.105 152.826 110.842 151.669C111.263 150.986 111.421 150.67 111.632 149.934C111.737 149.461 111.737 149.408 111.789 148.935C111.789 148.409 111.789 147.989 111.737 147.621Z" fill="#060001"/>
<path d="M84.2106 201.094C80.8948 198.36 76.2106 193.102 74.0527 189.947C71.8948 186.792 67.8948 182.218 67.0527 179.904C66.2106 177.591 63.7369 172.911 64.7369 169.599C65.7369 166.286 71.2106 166.023 73.3159 167.601C73.3159 167.601 72.0001 163.605 74.4738 160.029C76.8948 156.454 80.6317 156.612 82.4738 156.875C84.3159 157.137 90.7895 161.764 90.7895 161.764C90.7895 161.764 90.3685 157.032 93.7895 154.193C97.2106 151.354 101.947 151.774 105.842 153.352C109.737 154.929 112 156.191 113.842 156.664C115.684 157.085 117.842 158.084 119.263 158.242C120.684 158.399 126.421 159.241 129 160.818" stroke="#060001" stroke-width="1.5" stroke-miterlimit="10" stroke-linecap="round" stroke-linejoin="round"/>
<path d="M117.632 147.936C116.316 150.092 116.316 153.93 116.316 153.93C116.316 153.93 124.895 157.085 127.947 158.084C130.947 159.083 134.947 160.818 135.684 162.816C136.421 164.814 139.105 170.387 139.105 170.387" stroke="#060001" stroke-width="1.5" stroke-miterlimit="10" stroke-linecap="round" stroke-linejoin="round"/>
<path d="M141.526 170.019C141.263 166.286 144.684 161.554 144.684 161.554" stroke="#060001" stroke-width="1.5" stroke-miterlimit="10" stroke-linecap="round" stroke-linejoin="round"/>
<path d="M120.053 161.291C120.79 165.865 119.632 173.174 116.158 176.013" stroke="#060001" stroke-width="1.5" stroke-miterlimit="10" stroke-linecap="round" stroke-linejoin="round"/>
<path d="M100.579 153.562C104.737 156.296 108.053 159.135 107.158 163.131C106.316 167.127 103.737 168.284 101.263 167.443C98.8422 166.602 94.5264 164.288 94.5264 164.288" stroke="#060001" stroke-width="1.5" stroke-miterlimit="10" stroke-linecap="round" stroke-linejoin="round"/>
<path d="M75.0527 166.864C78.6317 169.178 83.2106 172.753 85.1054 170.755C86.9475 168.757 89.2633 165.182 87.2633 162.868C85.2633 160.555 82.6843 157.979 82.6843 157.979" stroke="#060001" stroke-width="1.5" stroke-miterlimit="10" stroke-linecap="round" stroke-linejoin="round"/>
<path d="M66 174.015C69.4211 175.856 70.7369 176.487 72 175.435C73.579 174.121 75 172.28 73.4211 170.44C71.8421 168.6 71.2632 168.126 71.2632 168.126" stroke="#060001" stroke-width="1.5" stroke-miterlimit="10" stroke-linecap="round" stroke-linejoin="round"/>
<path d="M90.7896 161.712C91.3685 165.287 95.6843 168.284 97.7896 169.441C99.9475 170.598 105.684 173.174 107.947 174.752C110.263 176.329 116.263 179.747 117.421 180.062" stroke="#060001" stroke-width="1.5" stroke-miterlimit="10" stroke-linecap="round" stroke-linejoin="round"/>
<path d="M74.6317 169.283C77.9475 172.596 80.7896 174.173 83.3686 175.856C85.9475 177.591 89.2633 183.006 91.2633 184.426C93.2633 185.846 100 192.418 100 192.418" stroke="#060001" stroke-width="1.5" stroke-miterlimit="10" stroke-linecap="round" stroke-linejoin="round"/>
<path d="M82.3685 178.011C80.2106 178.958 78.4212 180.64 77.3685 182.743" stroke="#060001" stroke-width="1.5" stroke-miterlimit="10" stroke-linecap="round" stroke-linejoin="round"/>
<path d="M97.2632 175.487C96.0527 176.434 95.3685 178.064 95.4737 179.641" stroke="#060001" stroke-width="1.5" stroke-miterlimit="10" stroke-linecap="round" stroke-linejoin="round"/>
<path d="M135.526 171.859C135.105 174.331 134.158 176.749 132.79 178.852" stroke="#060001" stroke-width="1.5" stroke-miterlimit="10" stroke-linecap="round" stroke-linejoin="round"/>
<path d="M46.8948 174.278C46.7896 177.223 45.0001 180.009 42.3685 181.324" stroke="#060001" stroke-width="1.5" stroke-miterlimit="10" stroke-linecap="round" stroke-linejoin="round"/>
<path d="M22.4738 172.017C22.2106 163.289 23.6316 159.135 24.3158 155.718C25.0527 152.3 25.4737 142.257 26.3158 138.84" stroke="#060001" stroke-width="1.5" stroke-miterlimit="10" stroke-linecap="round" stroke-linejoin="round"/>
<path d="M21.6842 155.771C21.1053 157.558 20.5264 159.346 19.8948 161.134" stroke="#060001" stroke-width="1.5" stroke-miterlimit="10" stroke-linecap="round" stroke-linejoin="round"/>
<path d="M43.3159 151.196C47.2107 155.034 53.4212 155.507 58.7896 154.403C64.158 153.299 69.2106 150.88 74.5791 149.776C78.8422 148.882 83.2633 148.83 87.6317 148.146C91.9475 147.515 96.3685 146.148 99.5791 143.204" stroke="#060001" stroke-width="1.5" stroke-miterlimit="10" stroke-linecap="round" stroke-linejoin="round"/>
<path d="M121.158 176.592H209.526C212.842 176.592 215.211 174.436 214.105 172.333L200.368 145.623C199.684 144.308 197.842 143.467 195.79 143.467H107.421C104.105 143.467 101.737 145.623 102.842 147.726L116.579 174.383C117.211 175.698 119.053 176.592 121.158 176.592Z" fill="#4F28FE"/>
<path d="M121.579 174.751H209.947C213.263 174.751 215.632 172.596 214.526 170.493L200.79 143.835C200.105 142.52 198.263 141.679 196.211 141.679H107.842C104.526 141.679 102.158 143.835 103.263 145.938L117 172.596C117.684 173.858 119.526 174.751 121.579 174.751Z" fill="#060001"/>
<path d="M107.79 154.719H206.474L203.526 149.04H104.842L107.79 154.719Z" fill="white"/>
<path opacity="0.22" d="M160.263 149.04H104.842L107.79 154.719H153.895C156.053 152.878 158.158 150.985 160.263 149.04Z" fill="black"/>
<path d="M139.211 166.444H149.211C148.526 165.287 147.79 164.078 147.053 162.921H137.369C137.947 164.131 138.579 165.287 139.211 166.444Z" fill="#EFEFEF"/>
<path d="M196.632 166.391H206.632C205.947 165.235 205.211 164.025 204.474 162.869H194.79C195.368 164.025 196 165.235 196.632 166.391Z" fill="#4F28FE"/>
<path d="M134.105 162.921H121.369L123.211 166.444H135.895C135.263 165.287 134.684 164.131 134.105 162.921Z" fill="#EFEFEF"/>
<path d="M152.684 166.444H184.316L182.474 162.921H150.526C151.263 164.078 152 165.287 152.684 166.444Z" fill="#EFEFEF"/>
<path d="M5.57898 115.495C16.3685 113.391 19.6842 114.601 27.1579 114.022C34.6316 113.444 50.2632 111.025 55.3158 111.025C60.4211 111.025 80.5263 114.601 85.8948 115.232C91.3158 115.81 92.7895 115.232 97.2632 116.441C101.737 117.65 105.053 121.226 111.053 123.013C117.053 124.801 125.737 128.114 130.263 129.586C134.737 131.058 140.895 137.999 143 139.208C145.105 140.417 154.105 139.523 158.105 142.783C160.579 144.834 159.632 149.356 154.263 151.722C148.842 154.14 139.579 154.719 133.579 152.616C127.579 150.512 124.895 148.146 121.579 148.146C118.263 148.146 112.579 147.253 108.368 145.465C104.158 143.677 101.789 143.046 100.579 143.046C99.3684 143.046 91.4737 142.52 74.9474 145.833C58.4211 149.145 50.4737 148.146 50.4737 148.146L5.57898 115.495Z" fill="#E6373C"/>
<path d="M144.526 141.679C148.263 144.571 153.526 145.465 158 143.888" stroke="#060001" stroke-width="1.5" stroke-miterlimit="10" stroke-linecap="round" stroke-linejoin="round"/>
<path d="M97.3684 134.055C98.3158 136.947 99.8947 139.576 101.947 141.784" stroke="#060001" stroke-width="1.5" stroke-miterlimit="10" stroke-linecap="round" stroke-linejoin="round"/>
<path d="M123.105 146.569C123.895 145.465 124.684 144.308 125.474 143.204" stroke="#060001" stroke-width="1.5" stroke-miterlimit="10" stroke-linecap="round" stroke-linejoin="round"/>
<path d="M131.947 131.321C131.632 131.847 131.368 132.425 131.053 132.951" stroke="#060001" stroke-width="1.5" stroke-miterlimit="10" stroke-linecap="round" stroke-linejoin="round"/>
<path d="M127.579 129.533C128.368 130.217 128.684 131.426 128.316 132.425" stroke="#060001" stroke-width="1.5" stroke-miterlimit="10" stroke-linecap="round" stroke-linejoin="round"/>
<path d="M426.684 166.128C425.842 168.915 426.632 185.214 422.053 197.886C417.421 210.558 410.842 208.875 410.842 208.875C410.842 208.875 409.421 208.349 404.316 204.932C399.211 201.567 392.737 199.779 388.737 199.411C384.684 199.043 376.789 198.307 370.895 199.831C365.684 201.199 354.789 200.725 349.947 200.83C349.842 200.83 349.789 200.83 349.737 200.83C349.632 200.83 349.579 200.83 349.474 200.83C349.316 200.83 349.211 200.83 349.105 200.83C348.842 200.83 348.632 200.83 348.421 200.883C348.368 200.883 348.316 200.883 348.263 200.883C344.421 201.093 332.158 198.727 329.526 198.517C326.842 198.254 320.789 197.203 317.737 195.888C316.211 195.204 314.684 194.048 313.421 192.786C312.158 191.524 311.158 190.104 310.579 188.895C309.421 186.529 311.211 182.007 311.263 181.797C311 181.849 303.526 183.532 298.895 181.797C294.211 180.062 292.526 173.962 293.474 169.861C294.474 165.76 300.579 164.078 300.579 164.078C300.579 164.078 290.316 162.605 287.737 160.975C285.158 159.398 284.789 154.35 286.211 150.197C287.579 146.148 293.842 144.728 294.211 144.676C293.947 144.676 291.474 144.834 288.895 144.781C288.579 144.781 288.316 144.781 288 144.781C287.842 144.781 287.684 144.781 287.526 144.781C287.211 144.781 286.895 144.834 286.579 144.886C286.474 144.886 286.368 144.886 286.263 144.939C285.737 144.991 285.158 145.096 284.579 145.202C283.158 145.517 281.684 145.938 280.211 146.464C277.211 147.515 272.263 146.726 269.842 144.571C267.421 142.415 266.737 138.682 269.053 135.527C269.684 134.686 270.368 134.002 271.158 133.476C271.316 133.371 271.474 133.266 271.579 133.214C272.053 132.951 272.526 132.688 273.053 132.477C273.211 132.425 273.421 132.32 273.579 132.267H273.632C273.789 132.215 273.947 132.162 274.158 132.109C274.789 131.899 275.526 131.689 276.263 131.531C276.474 131.478 276.632 131.426 276.842 131.373C277.316 131.268 277.842 131.163 278.368 131.058H278.421C279 130.953 279.579 130.848 280.158 130.742C280.789 130.637 281.474 130.532 282.158 130.374C289.737 129.06 302 128.85 313.632 127.325L333.789 130.217L358.895 137.052L426.737 155.507C426.842 155.244 428.789 158.925 426.684 166.128Z" fill="#4F28FE"/>
<path opacity="0.22" d="M384.737 169.914C383.158 171.175 380.211 169.966 378.474 171.07C375.263 173.121 372.421 175.066 370 179.062C368 182.375 365.79 186.318 363.579 189.473C360.053 194.416 356.053 198.622 350.842 200.83C350.526 200.83 350.211 200.83 349.947 200.83C349.842 200.83 349.79 200.83 349.737 200.83C349.632 200.83 349.579 200.83 349.474 200.83C349.316 200.83 349.211 200.83 349.105 200.83C348.842 200.83 348.632 200.83 348.421 200.883C348.369 200.883 348.316 200.883 348.263 200.883C344.421 201.093 332.158 198.727 329.526 198.517C326.842 198.254 320.79 197.202 317.737 195.888C316.211 195.204 314.684 194.047 313.421 192.786C323.368 193.048 331.632 189.315 336.421 186.949C340.263 185.056 348.158 182.638 348.526 177.064C348.842 171.912 335.474 175.277 332.421 175.014C342.053 172.7 346.79 166.233 342.211 161.343C338.105 156.927 318.053 162.027 312.474 162.763C315.158 161.238 326 160.186 329.158 155.402C331.895 151.248 328.895 146.568 324.947 145.569C319.474 144.202 319.474 146.463 313.895 145.885C308.105 145.306 294.211 144.781 294.211 144.781C293.947 144.781 291.474 144.938 288.895 144.886C288.579 144.886 288.316 144.886 288 144.886C287.842 144.886 287.684 144.886 287.526 144.886C287.211 144.886 286.895 144.938 286.579 144.991C286.474 144.991 286.368 144.991 286.263 145.044C285.737 145.096 285.158 145.201 284.579 145.306C282.158 144.938 279.842 144.045 277.632 142.467C274.632 140.311 272.105 137.157 271.158 133.529C271.316 133.424 271.474 133.318 271.579 133.266C272.053 133.003 272.526 132.74 273.053 132.53C273.211 132.477 273.421 132.372 273.579 132.319H273.632C273.79 132.267 273.947 132.214 274.158 132.162C274.79 131.951 275.526 131.741 276.263 131.583C276.474 131.531 276.632 131.478 276.842 131.426C277.316 131.32 277.842 131.215 278.368 131.11H278.421C279 131.005 279.579 130.9 280.158 130.795C280.79 130.689 281.474 130.584 282.158 130.427C289.737 129.112 302 128.902 313.632 127.377L333.79 130.269L358.895 137.104C357.158 142.52 357.053 148.672 357.79 154.455C357.526 154.928 357.526 155.559 358 156.085C358 156.138 358 156.138 358 156.19C358.158 156.979 358.737 157.295 359.369 157.242C364.632 161.343 372.158 162.027 378.316 164.025C380.474 164.708 382.895 165.602 384.684 167.074C385.737 167.653 385.684 169.125 384.737 169.914Z" fill="black"/>
<path d="M294.632 144.518C298.947 143.94 302.947 144.571 305.895 144.676C308.842 144.834 312.211 145.833 315.895 145.36C319.579 144.886 327.79 144.413 330.316 149.303C332.842 154.193 330.158 158.136 328.895 158.978C327.632 159.819 319.263 160.713 316.421 161.869C313.579 163.026 307 163.552 302.789 163.762" stroke="#060001" stroke-width="1.5" stroke-miterlimit="10" stroke-linecap="round" stroke-linejoin="round"/>
<path d="M316.421 161.869C321.632 161.869 329.947 160.292 333.947 159.503C337.947 158.715 343.421 160.502 344.632 163.447C345.895 166.391 345.526 170.23 341.947 172.596C340.053 173.858 332.368 174.909 329 175.593C325.579 176.276 323.053 177.854 320.158 178.747C317.263 179.641 313.737 180.062 311.158 181.639" stroke="#060001" stroke-width="1.5" stroke-miterlimit="10" stroke-linecap="round" stroke-linejoin="round"/>
<path d="M335.947 174.278C340.158 174.015 344.105 173.594 345.947 173.91C347.842 174.225 350.053 176.066 349.474 179.01C348.895 181.955 347.474 182.901 345.947 183.69C344.368 184.478 340.842 187.055 338.579 187.896C336.316 188.737 334.684 189.631 331.947 190.946C329.211 192.26 323.211 194.731 323.211 194.731" stroke="#060001" stroke-width="1.5" stroke-miterlimit="10" stroke-linecap="round" stroke-linejoin="round"/>
<path d="M342.842 174.909C341.053 175.54 339.474 176.434 340.368 179.063C340.842 180.588 342.421 182.113 344.79 181.271C347.158 180.483 348.263 179.694 348.263 179.694" stroke="#060001" stroke-width="1.5" stroke-miterlimit="10" stroke-linecap="round" stroke-linejoin="round"/>
<path d="M340.211 161.238C334.158 162.448 333 162.027 332.105 164.709C331.211 167.39 333.053 169.914 334.579 170.703C336.105 171.491 342.684 170.229 342.684 170.229" stroke="#060001" stroke-width="1.5" stroke-miterlimit="10" stroke-linecap="round" stroke-linejoin="round"/>
<path d="M324.368 146.937C319.526 148.409 317.316 148.935 316.579 151.406C315.842 153.877 316.368 156.191 319.053 157.4C321.737 158.61 326.579 158.189 328.053 157.032C329.474 155.875 329.947 153.457 329.947 153.457" stroke="#060001" stroke-width="1.5" stroke-miterlimit="10" stroke-linecap="round" stroke-linejoin="round"/>
<path d="M305.842 150.302C304.211 153.351 304.158 157.19 305.684 160.292" stroke="#060001" stroke-width="1.5" stroke-miterlimit="10" stroke-linecap="round" stroke-linejoin="round"/>
<path d="M320.842 166.128C321 168.021 321.105 169.861 321.263 171.754" stroke="#060001" stroke-width="1.5" stroke-miterlimit="10" stroke-linecap="round" stroke-linejoin="round"/>
<path d="M331.263 179.746C331.737 181.008 332.211 182.27 332.684 183.584" stroke="#060001" stroke-width="1.5" stroke-miterlimit="10" stroke-linecap="round" stroke-linejoin="round"/>
<path d="M333.211 180.43C333.105 181.113 333.526 181.849 334.105 182.165" stroke="#060001" stroke-width="1.5" stroke-miterlimit="10" stroke-linecap="round" stroke-linejoin="round"/>
<path d="M295 143.677C296.789 142.31 298 140.207 298.263 137.946" stroke="#060001" stroke-width="1.5" stroke-miterlimit="10" stroke-linecap="round" stroke-linejoin="round"/>
<path d="M317.105 134.265C315.421 137.578 314.526 141.258 314.421 144.939" stroke="#060001" stroke-width="1.5" stroke-miterlimit="10" stroke-linecap="round" stroke-linejoin="round"/>
<path d="M395.632 197.781C400.263 193.364 403.684 187.738 405.474 181.586" stroke="#060001" stroke-width="1.5" stroke-miterlimit="10" stroke-linecap="round" stroke-linejoin="round"/>
<path d="M399.158 198.622C399.947 197.729 400.684 196.835 401.474 195.888" stroke="#060001" stroke-width="1.5" stroke-miterlimit="10" stroke-linecap="round" stroke-linejoin="round"/>
<path d="M357.632 184.794C361.158 184.636 364.368 182.638 367 180.272C369.632 177.906 371.947 175.172 374.842 173.121C377.737 171.07 381.421 169.703 384.842 170.65" stroke="#060001" stroke-width="1.5" stroke-miterlimit="10" stroke-linecap="round" stroke-linejoin="round"/>
<path d="M296.695 116.936L273.955 135.501L276.953 139.166L299.693 120.6L296.695 116.936Z" fill="#060001"/>
<path d="M293.766 136.588C300.046 131.461 302.691 124.316 299.674 120.629C296.658 116.941 289.122 118.108 282.842 123.235C276.563 128.361 273.918 135.507 276.934 139.194C279.951 142.882 287.487 141.715 293.766 136.588Z" fill="#060001"/>
<path d="M290.498 132.595C296.778 127.468 299.423 120.323 296.406 116.635C293.389 112.948 285.854 114.115 279.574 119.241C273.295 124.368 270.65 131.514 273.666 135.201C276.683 138.889 284.219 137.722 290.498 132.595Z" fill="white"/>
<path d="M289.632 127.588C291.947 125.537 291.368 123.171 291.368 123.171L290.684 121.226L292.053 120.227L291 117.966L289.632 119.07L288.579 116.809L287 118.018L287.421 118.86L278.579 125.695L278.158 124.959L276.579 126.168L277.526 128.482L276.263 129.428L277.158 131.531L278.579 130.48C278.579 130.48 280.421 134.371 283.474 132.373C286.526 130.375 286.053 128.745 286.053 128.745C286.263 129.007 287.316 129.691 289.632 127.588ZM287.947 126.747C286.421 127.64 285.895 126.431 285.368 125.327C284.737 123.96 284.526 123.381 284.526 123.381L288.105 120.49C288.105 120.49 288.947 122.172 289.421 123.276C289.842 124.486 289.421 125.8 287.947 126.747ZM282.895 130.743C281.684 131.584 281 131.058 280.474 130.217C279.895 129.428 279.211 127.483 279.211 127.483L282.684 124.749C282.684 124.749 284.053 127.272 284.158 127.903C284.263 128.534 284.105 129.901 282.895 130.743Z" fill="#E6373C"/>
<path d="M281.79 138.524L283.053 139.944" stroke="white" stroke-width="1.5" stroke-miterlimit="10" stroke-linecap="round" stroke-linejoin="round"/>
<path d="M279.79 138.104L281.842 140.785" stroke="white" stroke-width="1.5" stroke-miterlimit="10" stroke-linecap="round" stroke-linejoin="round"/>
<path d="M419.789 150.985C416.632 149.461 411.474 147.988 407.368 146.253C403.263 144.466 393.737 139.839 390.632 136.526C387.474 133.214 380.053 129.638 375.263 128.481C370.421 127.325 360.421 123.486 355.263 121.541C352.579 120.489 350 119.701 346.684 119.49C343.368 119.28 340.474 118.176 335.842 117.072C331.21 115.968 324.526 114.18 321.684 113.654C318.105 113.023 312.474 113.391 309.631 113.128C306.737 112.813 301.21 109.711 298.158 109.185C295.158 108.659 292.842 109.08 292.947 112.865C293.053 116.599 299.842 122.593 302.526 124.591C305.21 126.589 312.632 130.742 315.579 130.9C318.526 131.005 331.21 138.051 335.421 138.366C338.737 144.676 343.316 149.934 349.158 154.088C351.895 156.033 354.842 157.768 357.789 159.451C361.21 161.396 364.684 163.499 368.474 164.498C373.105 165.708 377.263 163.762 381.789 162.921C385.684 162.185 389.632 161.869 393.632 162.027C396.737 162.185 399.789 162.605 402.737 163.341C415.684 159.083 426.158 155.087 426.895 155.297C426.842 155.244 422.947 152.563 419.789 150.985Z" fill="#4F28FE"/>
<path d="M307.421 127.64C312.474 130.374 314.737 129.533 318.263 131.373C322.526 133.582 333.684 138.682 335.474 138.366C335.474 138.366 340.263 149.092 349.21 154.508C362.947 162.868 366.368 165.497 377.21 164.34" stroke="#060001" stroke-width="1.5" stroke-miterlimit="10" stroke-linecap="round" stroke-linejoin="round"/>
<path d="M297.21 109.816C299.579 111.761 302.579 112.918 305.632 113.128" stroke="#060001" stroke-width="1.5" stroke-miterlimit="10" stroke-linecap="round" stroke-linejoin="round"/>
<path d="M321.263 113.97C321.21 114.706 321.21 115.389 321.158 116.125" stroke="#060001" stroke-width="1.5" stroke-miterlimit="10" stroke-linecap="round" stroke-linejoin="round"/>
<path d="M263.79 3.6582H211.421C211.579 3.9211 211.737 4.184 211.895 4.44689C214.947 9.80998 217.737 15.3308 220.579 20.799C221.474 22.4816 222.316 24.1641 223.211 25.8992H275.368C271.526 18.433 267.737 11.0193 263.79 3.6582Z" fill="#4F28FE"/>
<path opacity="0.22" d="M246.369 14.0161H227.684C227.684 14.0687 227.737 14.0687 227.737 14.1213C228.158 14.8574 228.526 15.5935 228.895 16.3296C229 16.5399 229.158 16.8028 229.263 17.0131H247.895C247.421 16.0141 246.895 15.0151 246.369 14.0161Z" fill="black"/>
<path opacity="0.22" d="M245.632 19.6426H230.842C230.842 19.6952 230.895 19.6952 230.895 19.7477C231.316 20.4838 231.684 21.2199 232.053 21.9561C232.158 22.1664 232.316 22.4293 232.421 22.6396H247.158C246.684 21.6932 246.158 20.6416 245.632 19.6426Z" fill="black"/>
<path opacity="0.22" d="M267.579 14.0161H248.895C248.895 14.0687 248.947 14.0687 248.947 14.1213C249.368 14.8574 249.737 15.5935 250.105 16.3296C250.211 16.5399 250.368 16.8028 250.474 17.0131H269.105C268.632 16.0141 268.105 15.0151 267.579 14.0161Z" fill="black"/>
<path d="M248.684 12.5439H230C230 12.5965 230.053 12.5965 230.053 12.6491C230.474 13.3852 230.842 14.1213 231.211 14.8574C231.316 15.0678 231.474 15.3307 231.579 15.541H250.211C249.737 14.542 249.211 13.543 248.684 12.5439Z" fill="#EFEFEF"/>
<path d="M247.947 18.2227H233.158C233.158 18.2752 233.211 18.2752 233.211 18.3278C233.632 19.0639 234 19.8 234.368 20.5361C234.474 20.7465 234.632 21.0094 234.737 21.2197H249.474C249.053 20.2207 248.526 19.2217 247.947 18.2227Z" fill="#EFEFEF"/>
<path d="M269.948 12.5439H251.263C251.263 12.5965 251.316 12.5965 251.316 12.6491C251.737 13.3852 252.105 14.1213 252.474 14.8574C252.579 15.0678 252.737 15.3307 252.842 15.541H271.474C271 14.542 270.474 13.543 269.948 12.5439Z" fill="#02BBDC"/>
<path d="M215.316 5.91943L220.105 8.44323" stroke="white" stroke-width="1.5" stroke-miterlimit="10" stroke-linecap="round" stroke-linejoin="round"/>
<path d="M218.842 5.91943L216.526 8.44323" stroke="white" stroke-width="1.5" stroke-miterlimit="10" stroke-linecap="round" stroke-linejoin="round"/>
<path d="M345.421 245.312H286.526C285.684 243.683 284.842 242.105 284.053 240.475C281.368 235.217 278.684 229.959 275.789 224.859C275.632 224.596 275.526 224.333 275.368 224.123H334.421C336.737 228.382 339 232.693 341.211 237.058C341.684 238.004 342.211 238.95 342.684 239.897C343.579 241.632 344.474 243.472 345.421 245.312Z" fill="#4F28FE"/>
<path d="M301.316 230.38H293.369C293.369 230.432 293.421 230.432 293.421 230.485C293.79 231.169 294.158 231.905 294.526 232.588C294.632 232.799 294.737 233.009 294.842 233.219H302.79C302.316 232.273 301.842 231.326 301.316 230.38Z" fill="#EFEFEF"/>
<path d="M331.105 230.38H305.579C305.579 230.432 305.632 230.432 305.632 230.485C306 231.169 306.368 231.905 306.737 232.588C306.842 232.799 306.947 233.009 307.053 233.219H332.579C332.105 232.273 331.579 231.326 331.105 230.38Z" fill="#EFEFEF"/>
<path d="M325 235.848H302.21C302.21 235.901 302.263 235.901 302.263 235.953C302.631 236.637 303 237.373 303.368 238.057C303.474 238.267 303.579 238.477 303.684 238.687H326.421C326 237.741 325.526 236.795 325 235.848Z" fill="#EFEFEF"/>
<path d="M346.579 235.848H327.368C327.368 235.901 327.421 235.901 327.421 235.953C327.789 236.637 328.158 237.373 328.526 238.057C328.632 238.267 328.737 238.477 328.842 238.687H348C347.579 237.741 347.105 236.795 346.579 235.848Z" fill="#EFEFEF"/>
<path opacity="0.22" d="M300.105 231.484H292.158C292.158 231.536 292.211 231.536 292.211 231.589C292.579 232.273 292.947 233.009 293.316 233.692C293.421 233.903 293.526 234.113 293.632 234.323H301.579C301.105 233.377 300.632 232.43 300.105 231.484Z" fill="black"/>
<path opacity="0.22" d="M329.895 231.484H304.368C304.368 231.536 304.421 231.536 304.421 231.589C304.789 232.273 305.158 233.009 305.526 233.692C305.632 233.903 305.737 234.113 305.842 234.323H331.368C330.895 233.377 330.421 232.43 329.895 231.484Z" fill="black"/>
<path opacity="0.22" d="M323.789 236.952H301C301 237.005 301.053 237.005 301.053 237.057C301.421 237.741 301.789 238.477 302.158 239.16C302.263 239.371 302.368 239.581 302.474 239.791H325.211C324.789 238.898 324.316 237.899 323.789 236.952Z" fill="black"/>
<path opacity="0.22" d="M342.632 239.844H327.737C327.632 239.634 327.526 239.424 327.421 239.213C327.053 238.53 326.684 237.794 326.316 237.11C326.316 237.057 326.263 237.057 326.263 237.005H341.211C341.632 237.951 342.158 238.898 342.632 239.844Z" fill="black"/>
<path d="M301.316 230.38H293.369C293.369 230.432 293.421 230.432 293.421 230.485C293.79 231.169 294.158 231.905 294.526 232.588C294.632 232.799 294.737 233.009 294.842 233.219H302.79C302.316 232.273 301.842 231.326 301.316 230.38Z" fill="#02BBDC"/>
<path d="M331.105 230.38H305.579C305.579 230.432 305.632 230.432 305.632 230.485C306 231.169 306.368 231.905 306.737 232.588C306.842 232.799 306.947 233.009 307.053 233.219H332.579C332.105 232.273 331.579 231.326 331.105 230.38Z" fill="#02BBDC"/>
<path d="M325 235.848H302.21C302.21 235.901 302.263 235.901 302.263 235.953C302.631 236.637 303 237.373 303.368 238.057C303.474 238.267 303.579 238.477 303.684 238.687H326.421C326 237.741 325.526 236.795 325 235.848Z" fill="#02BBDC"/>
<path d="M346.579 235.848H327.368C327.368 235.901 327.421 235.901 327.421 235.953C327.789 236.637 328.158 237.373 328.526 238.057C328.632 238.267 328.737 238.477 328.842 238.687H348C347.579 237.741 347.105 236.795 346.579 235.848Z" fill="#02BBDC"/>
<path d="M280.842 226.962H286.684" stroke="white" stroke-width="1.5" stroke-miterlimit="10" stroke-linecap="round" stroke-linejoin="round"/>
</svg>
