<svg width="113" height="24" viewBox="0 0 113 24" fill="none" xmlns="http://www.w3.org/2000/svg">
    <g clip-path="url(#clip0)">
        <path d="M10.1304 21.3263H10.0226C9.80707 22.8479 8.42748 24.0007 6.1643 24.0007C2.71566 24.0007 -3.05176e-05 21.3053 -3.05176e-05 16.2194C-3.05176e-05 11.1113 2.7371 8.31006 6.81092 8.31006C9.48373 8.31006 11.4879 9.50499 12.6091 11.8311L9.93626 13.372C9.48487 12.1987 8.55668 11.2422 6.81092 11.2422C4.78473 11.2422 3.47005 12.4161 3.47005 14.9374V17.3716C3.47005 19.893 4.78473 21.0668 6.81092 21.0668C8.44722 21.0668 9.7636 20.2844 9.7636 18.8061V18.0442H6.9616V15.2839H9.53452C10.4242 15.2839 11.2774 15.6403 11.9065 16.2747C12.5355 16.9091 12.8889 17.7696 12.8889 18.6667V23.5278C12.8889 23.5838 12.8669 23.6375 12.8276 23.6771C12.7884 23.7167 12.7351 23.7389 12.6796 23.7389H10.3397C10.2842 23.7389 10.2309 23.7167 10.1917 23.6771C10.1524 23.6375 10.1304 23.5838 10.1304 23.5278V21.3263ZM15.0009 23.7389V8.56782H25.0292C25.0847 8.56782 25.138 8.59005 25.1774 8.62962C25.2167 8.66919 25.2389 8.72289 25.239 8.77893V11.2906C25.2389 11.3466 25.2167 11.4003 25.1774 11.4399C25.138 11.4795 25.0847 11.5017 25.0292 11.5017H18.2769V14.6102H24.2471V17.5224H18.2769V20.8051H25.0292C25.0847 20.8051 25.138 20.8273 25.1774 20.8669C25.2167 20.9065 25.2389 20.9602 25.239 21.0162V23.5278C25.2389 23.5839 25.2167 23.6376 25.1774 23.6771C25.138 23.7167 25.0847 23.7389 25.0292 23.7389H15.0009ZM31.5969 16.5693L30.1525 13.5262H30.0881V23.5278C30.0881 23.5556 30.0827 23.5831 30.0722 23.6088C30.0616 23.6344 30.0461 23.6577 30.0266 23.6773C30.0071 23.6969 29.984 23.7125 29.9585 23.723C29.9331 23.7336 29.9058 23.739 29.8782 23.7389H27.2156C27.16 23.7389 27.1067 23.7167 27.0674 23.6771C27.028 23.6376 27.0058 23.5839 27.0057 23.5278V8.56782H30.5835L34.7025 15.7403L36.147 18.7834H36.2113V8.77893C36.2114 8.72289 36.2336 8.66919 36.273 8.62962C36.3123 8.59005 36.3656 8.56782 36.4212 8.56782H39.0838C39.1114 8.56775 39.1387 8.57315 39.1641 8.58373C39.1896 8.5943 39.2127 8.60984 39.2322 8.62945C39.2517 8.64906 39.2672 8.67236 39.2777 8.69801C39.2883 8.72366 39.2937 8.75116 39.2937 8.77893V23.7389H35.7159L31.5969 16.5693ZM41.5326 11.9495C41.5326 11.5053 41.6194 11.0654 41.788 10.6549C41.9566 10.2445 42.2036 9.87161 42.5151 9.55749C42.8266 9.24336 43.1964 8.99419 43.6034 8.82419C44.0103 8.65418 44.4466 8.56669 44.8871 8.56669H48.8396C51.3183 8.56669 52.805 10.1099 52.805 12.4571C52.805 14.7826 51.5338 15.6521 50.003 15.7175V15.8478C51.4261 15.8478 53.3885 16.8043 53.3885 19.4127C53.3885 21.8026 51.7285 23.7372 49.5088 23.7372H41.5326V11.9495ZM44.8086 14.7826H48.0637C48.4295 14.7826 48.7802 14.6361 49.0388 14.3753C49.2975 14.1145 49.4427 13.7608 49.4427 13.3919V12.741C49.4427 12.3721 49.2975 12.0183 49.0389 11.7574C48.7803 11.4965 48.4295 11.3499 48.0637 11.3497H44.8109L44.8086 14.7826ZM44.8086 20.9559H48.5806C48.9522 20.9559 49.3085 20.807 49.5712 20.5421C49.834 20.2771 49.9816 19.9177 49.9816 19.543V18.8488C49.9816 18.4857 49.8386 18.1374 49.584 17.8805C49.3294 17.6237 48.9841 17.4793 48.624 17.4792H44.8109L44.8086 20.9559ZM63.7756 23.7378L62.6979 20.1297H57.6762L56.5984 23.7378H53.279L58.1416 8.85688C58.1691 8.7729 58.2219 8.69971 58.2928 8.64764C58.3637 8.59557 58.4489 8.56726 58.5366 8.56669H61.9785C62.067 8.56663 62.1533 8.59484 62.225 8.64728C62.2966 8.69971 62.35 8.77369 62.3774 8.85859L67.1735 23.7378H63.7756ZM60.2209 11.566H60.1131L58.4537 17.3261H61.9023L60.2209 11.566ZM72.7865 16.5654L71.3421 13.5223H71.2738V23.5278C71.2737 23.5839 71.2515 23.6376 71.2121 23.6771C71.1728 23.7167 71.1195 23.7389 71.0639 23.7389H68.4013C68.3457 23.7389 68.2924 23.7167 68.253 23.6771C68.2137 23.6376 68.1915 23.5839 68.1914 23.5278V8.56782H71.7692L75.8882 15.7403L77.3326 18.7834H77.3969V8.77893C77.3971 8.72289 77.4193 8.66919 77.4586 8.62962C77.498 8.59005 77.5513 8.56782 77.6068 8.56782H80.2695C80.3251 8.56782 80.3784 8.59005 80.4177 8.62962C80.4571 8.66919 80.4792 8.72289 80.4794 8.77893V23.7389H76.9015L72.7865 16.5654ZM87.9601 17.1304L85.9982 19.5203V23.5256C85.9982 23.5816 85.9762 23.6352 85.9369 23.6748C85.8977 23.7144 85.8444 23.7367 85.7889 23.7367H82.9322C82.9046 23.7367 82.8773 23.7313 82.8519 23.7208C82.8264 23.7102 82.8033 23.6946 82.7838 23.675C82.7643 23.6554 82.7488 23.6321 82.7382 23.6065C82.7277 23.5808 82.7222 23.5533 82.7222 23.5256V8.77893C82.7222 8.75116 82.7277 8.72366 82.7382 8.69801C82.7488 8.67236 82.7643 8.64906 82.7838 8.62945C82.8033 8.60984 82.8264 8.5943 82.8519 8.58373C82.8773 8.57315 82.9046 8.56775 82.9322 8.56782H85.7889C85.8444 8.56782 85.8977 8.59006 85.9369 8.62965C85.9762 8.66924 85.9982 8.72294 85.9982 8.77893V15.7841H86.128L88.2614 12.8497L91.6469 8.56782H95.3539L90.2887 14.806L95.8064 23.7395H91.9482L87.9601 17.1304Z" fill="white"/>
        <path d="M101.698 4.55214L98.4967 1.90621L95.7506 5.2856L99.6743 8.529L94.1769 15.2929L97.5273 18.0623L102.433 12.0262C102.871 11.4868 103.2 10.8656 103.4 10.1981C103.601 9.53054 103.669 8.82975 103.601 8.13571C103.532 7.44167 103.329 6.76799 103.003 6.15311C102.676 5.53824 102.233 4.99423 101.698 4.55214ZM105.479 13.5102L108.68 16.1561L111.426 12.7773L107.503 9.53388L113 2.76997L109.649 0L104.744 6.03613C104.306 6.57547 103.977 7.19662 103.776 7.8641C103.576 8.53159 103.508 9.23233 103.576 9.92632C103.645 10.6203 103.848 11.294 104.174 11.9088C104.5 12.5236 104.944 13.0676 105.479 13.5096V13.5102Z" fill="url(#paint0_linear)"/>
    </g>
    <defs>
        <linearGradient id="paint0_linear" x1="95.7782" y1="16.9066" x2="111.53" y2="1.28731" gradientUnits="userSpaceOnUse">
            <stop stop-color="#2D79FD"/>
            <stop offset="0.18" stop-color="#2D7EFD"/>
            <stop offset="0.39" stop-color="#2D8BFD"/>
            <stop offset="0.61" stop-color="#2DA2FD"/>
            <stop offset="0.83" stop-color="#2DC2FD"/>
            <stop offset="1" stop-color="#2DDEFD"/>
        </linearGradient>
        <clipPath id="clip0">
            <rect width="113" height="24" fill="white"/>
        </clipPath>
    </defs>
</svg>
