<svg width="24" height="26" viewBox="0 0 24 26" fill="none" xmlns="http://www.w3.org/2000/svg">
    <path d="M18.5236 8.91874C15.4532 7.22939 10.5249 4.51671 2.88088 0.306474C2.36552 -0.0283272 1.77257 -0.0722023 1.26025 0.0983722L14.3753 12.9994L18.5236 8.91874Z" fill="#32BBFF"/>
    <path d="M1.26029 0.0976562C1.16427 0.129648 1.07083 0.168242 0.981474 0.21486C0.415727 0.515891 0 1.09515 0 1.82778V24.1695C0 24.9022 0.415676 25.4814 0.981474 25.7824C1.07068 25.829 1.16407 25.8677 1.25998 25.8999L14.3753 12.9987L1.26029 0.0976562Z" fill="#32BBFF"/>
    <path d="M14.3754 12.999L1.26001 25.9003C1.77248 26.0721 2.36543 26.0316 2.88095 25.6919C10.294 21.6086 15.1667 18.9281 18.2727 17.2243C18.3592 17.1766 18.4439 17.1298 18.5276 17.0836L14.3754 12.999Z" fill="#32BBFF"/>
    <path d="M0 12.999V24.1699C0 24.9025 0.415676 25.4818 0.981474 25.7828C1.07068 25.8293 1.16407 25.8681 1.25998 25.9003L14.3753 12.999H0Z" fill="#2C9FD9"/>
    <path d="M2.88093 0.306105C2.26892 -0.091411 1.54722 -0.0800868 0.981476 0.215258L14.1763 13.1948L18.5236 8.91837C15.4532 7.22903 10.525 4.51634 2.88093 0.306105Z" fill="#29CC5E"/>
    <path d="M14.1764 12.8027L0.981476 25.7822C1.54727 26.0775 2.26892 26.0946 2.88093 25.6913C10.294 21.608 15.1667 18.9275 18.2727 17.2238C18.3592 17.176 18.4439 17.1293 18.5276 17.083L14.1764 12.8027Z" fill="#D93F21"/>
    <path d="M24 12.9984C24 12.3794 23.6825 11.7547 23.0531 11.4083C23.0531 11.4083 21.8762 10.7623 18.2685 8.77734L13.9774 12.9984L18.2727 17.2237C21.8407 15.253 23.0531 14.5886 23.0531 14.5886C23.6825 14.2422 24 13.6175 24 12.9984Z" fill="#FFD500"/>
    <path d="M23.0531 14.5892C23.6825 14.2428 24 13.618 24 12.999H13.9774L18.2727 17.2243C21.8408 15.2537 23.0531 14.5892 23.0531 14.5892Z" fill="#FFAA00"/>
</svg>
