<svg width="302" height="330" viewBox="0 0 302 330" fill="none" xmlns="http://www.w3.org/2000/svg">
<path d="M300.964 115.055C300.22 106.858 296.65 90.0909 295.014 82.5643C293.378 75.0377 287.056 64.8283 282.073 55.2151C277.09 45.6019 273.892 43.5153 270.991 42.9937C265.637 42.0249 260.877 48.5828 260.282 56.1094C259.761 63.7105 271.066 87.6317 271.066 87.6317L270.025 99.8532C269.653 90.7616 264.521 79.7325 259.687 68.5544C254.852 57.3762 245.928 38.895 240.127 32.1881C234.325 25.4067 221.236 7.74529 216.922 4.9135C212.534 2.0817 201.973 2.97594 202.643 16.5388C203.163 26.301 220.715 51.5636 220.715 51.5636C221.087 55.5132 223.393 64.9774 223.393 64.9774C223.393 64.9774 206.287 38.3734 204.651 33.8276C203.014 29.2818 192.751 19.3706 186.206 12.5146C179.661 5.6587 172.224 -0.452017 168.059 1.11292C163.82 2.67786 159.06 8.8631 162.332 19.8177C165.605 30.7723 181.223 49.4025 181.223 49.4025C182.487 59.9845 198.701 89.1967 198.701 89.1967C198.701 89.1967 198.552 102.909 200.263 115.577C201.973 128.246 203.684 134.282 199.668 135.027C193.643 136.07 185.537 91.5068 176.017 85.3216C151.846 69.5231 138.905 69.6722 134.517 76.3791C129.906 83.384 122.989 92.0285 119.196 99.406C116.221 94.8603 111.982 92.103 106.404 92.8482C94.5786 94.4877 98.4459 125.935 92.4961 145.311C88.5543 158.129 91.1574 165.059 97.4791 190.098C100.008 200.233 102.165 211.262 104.321 221.62C105.66 227.88 106.924 233.916 108.338 239.356C109.453 243.604 110.643 247.479 111.907 250.833C112.428 252.323 113.023 253.664 113.618 254.931C114.734 257.241 115.701 259.775 116.519 262.458C117.932 267.078 118.899 272.071 119.717 277.064V277.138C121.204 286.826 121.799 296.141 122.394 300.985C123.435 309.779 155.49 325.577 185.537 329.229C206.733 331.762 219.302 320.137 225.252 312.163C228.004 308.586 228.971 303.892 227.855 299.495C225.847 291.372 226.591 276.542 232.243 267.525C232.541 267.078 232.838 266.631 233.136 266.258C248.605 245.169 253.365 232.5 264.893 216.255C266.232 214.392 267.57 212.529 269.132 210.517C274.115 204.033 284.75 183.54 287.725 170.648C289.585 162.823 294.865 144.789 297.766 134.505C300.592 124.072 301.782 123.253 300.964 115.055ZM124.625 119.005C124.551 117.589 124.402 116.099 124.253 114.683C132.881 114.981 145.152 101.493 145.152 101.493C150.73 106.709 156.383 111.478 156.383 111.478C157.573 119.75 160.771 131.674 163.894 141.808C156.457 157.011 164.564 160.215 154.523 174.225C144.483 188.235 135.856 186.968 129.831 169.158C123.882 151.273 121.948 140.094 121.948 140.094C121.948 140.094 125.369 132.866 124.625 119.005Z" fill="#4F28FE"/>
<path d="M165.902 138.902C172.075 135.996 178.62 134.878 185.834 136.219" stroke="#060001" stroke-width="1.5" stroke-miterlimit="10" stroke-linecap="round" stroke-linejoin="round"/>
<path opacity="0.27" d="M179.884 131.152C178.769 128.32 177.356 125.488 176.389 122.582C175.273 119.228 174.53 115.726 173.414 112.373C172.893 110.882 172.373 109.317 171.629 107.901C171.257 107.082 170.811 106.336 170.142 105.74C169.026 104.771 167.39 104.548 166.051 104.101C163.522 103.281 161.068 102.163 158.762 100.896C156.903 99.9275 155.118 98.7352 153.259 97.9155C151.846 97.3193 150.358 97.0212 148.871 97.3938C146.565 97.99 144.557 99.6294 142.772 101.194C138.533 104.771 134.517 108.274 129.088 109.839C125.369 110.882 121.502 110.882 117.709 110.36C116.072 111.553 114.882 113.192 114.957 115.353C115.031 117.514 116.295 119.527 117.56 121.091C119.27 123.253 121.353 125.041 123.435 126.755C123.807 127.053 124.179 127.351 124.625 127.649C124.774 125.19 124.848 122.358 124.7 119.154C124.625 117.738 124.477 116.248 124.328 114.832C132.955 115.13 145.227 101.642 145.227 101.642C150.805 106.858 156.457 111.627 156.457 111.627C157.647 119.899 160.845 131.822 163.969 141.957C158.019 154.03 162.035 158.576 158.762 166.996C159.952 167.518 161.291 167.816 162.63 167.891C165.01 167.965 167.39 167.443 169.472 166.4C171.555 165.357 173.116 163.717 174.381 161.78C177.133 157.681 178.992 152.912 180.554 148.217C181.521 145.162 182.19 142.181 181.967 138.977C181.669 136.07 180.851 133.611 179.884 131.152Z" fill="#060001"/>
<path d="M235.813 169.158C221.459 177.579 209.262 189.725 200.783 204.108" stroke="#060001" stroke-width="1.5" stroke-miterlimit="10" stroke-linecap="round" stroke-linejoin="round"/>
<path d="M215.955 213.05C205.469 227.284 184.644 230.265 173.042 243.604C164.489 253.441 162.481 268.419 168.133 280.194" stroke="#060001" stroke-width="1.5" stroke-miterlimit="10" stroke-linecap="round" stroke-linejoin="round"/>
<path opacity="0.27" d="M264.818 216.106C253.291 232.352 248.605 245.02 233.061 266.11C232.764 266.557 232.466 266.929 232.169 267.376C226.963 265.811 220.566 264.694 213.055 264.47C186.727 263.576 175.72 271.252 153.631 273.785C139.351 275.425 127.972 273.562 119.568 276.766C118.824 271.848 117.783 266.78 116.37 262.16C115.552 259.477 114.585 256.869 113.469 254.633C112.874 253.367 112.279 252.025 111.759 250.535C110.494 247.181 109.304 243.306 108.189 239.058C106.776 233.618 105.437 227.582 104.173 221.322C179.364 204.481 247.415 213.349 264.818 216.106Z" fill="#060001"/>
<path d="M270.694 101.94C270.173 110.957 269.801 122.061 269.801 122.061C265.339 131.897 266.603 129.811 262.067 147.472C261.025 151.347 255.373 151.571 255.373 151.571" stroke="#060001" stroke-width="1.5" stroke-miterlimit="10" stroke-linecap="round" stroke-linejoin="round"/>
<path d="M225.252 69.1504C228.376 82.2661 233.656 93.5933 233.656 93.5933C233.656 93.5933 234.028 122.284 234.177 129.661C234.549 145.683 224.136 135.921 218.633 136.294" stroke="#060001" stroke-width="1.5" stroke-miterlimit="10" stroke-linecap="round" stroke-linejoin="round"/>
<path d="M245.333 89.4204C242.73 89.7185 240.127 89.9421 237.523 90.2401" stroke="#060001" stroke-width="1.5" stroke-miterlimit="10" stroke-linecap="round" stroke-linejoin="round"/>
<path d="M211.344 81.7446C209.039 84.8 205.171 86.663 201.304 86.514" stroke="#060001" stroke-width="1.5" stroke-miterlimit="10" stroke-linecap="round" stroke-linejoin="round"/>
<path d="M189.479 46.0488C187.991 47.8373 186.504 49.6258 185.016 51.4143" stroke="#060001" stroke-width="1.5" stroke-miterlimit="10" stroke-linecap="round" stroke-linejoin="round"/>
<path d="M280.957 116.695C279.024 116.993 277.09 117.291 275.231 117.589" stroke="#060001" stroke-width="1.5" stroke-miterlimit="10" stroke-linecap="round" stroke-linejoin="round"/>
<path d="M277.387 90.4637C278.577 90.3147 279.693 90.1656 280.883 90.0166" stroke="#060001" stroke-width="1.5" stroke-miterlimit="10" stroke-linecap="round" stroke-linejoin="round"/>
<path d="M227.557 50.5947C225.773 50.9673 224.136 52.3087 223.541 54.0972" stroke="#060001" stroke-width="1.5" stroke-miterlimit="10" stroke-linecap="round" stroke-linejoin="round"/>
<path d="M148.722 94.7114C147.458 96.7235 146.193 98.7356 144.855 100.748" stroke="#060001" stroke-width="1.5" stroke-miterlimit="10" stroke-linecap="round" stroke-linejoin="round"/>
<path d="M133.029 94.7114C131.691 98.512 130.054 102.611 126.633 104.846C124.402 106.262 121.502 106.635 118.973 105.89" stroke="#060001" stroke-width="1.5" stroke-miterlimit="10" stroke-linecap="round" stroke-linejoin="round"/>
<path d="M118.973 99.9277C117.411 102.76 115.775 106.113 116.072 108.498C116.295 110.361 117.709 111.926 119.345 112.82C120.981 113.714 122.84 114.012 124.7 114.385" stroke="#060001" stroke-width="1.5" stroke-miterlimit="10" stroke-linecap="round" stroke-linejoin="round"/>
<path d="M127.675 187.341C118.675 194.718 112.577 205.524 110.866 217.075" stroke="#060001" stroke-width="1.5" stroke-miterlimit="10" stroke-linecap="round" stroke-linejoin="round"/>
<path d="M202.271 138.455C198.626 139.573 195.354 141.958 193.272 145.236" stroke="#060001" stroke-width="1.5" stroke-miterlimit="10" stroke-linecap="round" stroke-linejoin="round"/>
<path d="M0.422302 220.503C21.8417 220.503 22.5111 199.711 22.5111 199.711C22.5111 199.711 25.486 217.671 38.2038 220.354C38.2038 220.354 26.081 226.017 24.0729 246.809C24.0729 246.883 19.8337 220.503 0.422302 220.503Z" fill="#EFEFEF"/>
<path d="M90.7111 78.3165C96.7353 77.9439 97.9997 66.6167 97.9997 66.6167C97.9997 66.6167 100.603 78.6891 105.288 79.5088C105.288 79.5088 98.5203 80.254 98.074 93.5933C98.074 93.5933 96.8097 79.956 90.7111 78.3165Z" fill="#EFEFEF"/>
<path d="M61.0363 56.5566C84.092 57.8234 85.505 35.02 85.505 35.02C85.505 35.02 87.4387 55.8114 102.09 57.3763C102.09 57.3763 86.2488 60.8788 85.505 85.9923C85.505 86.0669 80.8195 58.196 61.0363 56.5566Z" fill="#EFEFEF"/>
<path d="M87.885 254.335H62.6725V261.191H87.885V254.335Z" fill="#EFEFEF"/>
<path d="M260.282 227.135H84.1663C76.9522 227.135 71.1511 221.322 71.1511 214.094V187.714C71.1511 180.485 76.9522 174.672 84.1663 174.672H260.282C267.496 174.672 273.297 180.485 273.297 187.714V214.094C273.297 221.322 267.496 227.135 260.282 227.135Z" fill="white"/>
<path d="M255.819 220.577H133.773C126.559 220.577 120.758 214.765 120.758 207.536V197.327C120.758 190.098 126.559 184.286 133.773 184.286H255.819C263.033 184.286 268.835 190.098 268.835 197.327V207.536C268.835 214.69 263.033 220.577 255.819 220.577Z" fill="#EFEFEF"/>
<path opacity="0.44" d="M157.796 203.587C157.349 209.325 153.408 213.349 147.755 213.349C142.103 213.349 137.417 208.729 137.417 202.99C137.417 197.252 141.88 192.334 147.755 192.632C153.408 192.781 158.316 196.805 157.796 203.587Z" fill="#060001"/>
<path opacity="0.44" d="M188.735 203.587C188.289 209.325 184.347 213.349 178.694 213.349C172.968 213.349 168.357 208.729 168.357 202.99C168.357 197.252 172.819 192.334 178.694 192.632C184.421 192.781 189.255 196.805 188.735 203.587Z" fill="#060001"/>
<path opacity="0.44" d="M219.748 203.587C219.302 209.325 215.36 213.349 209.708 213.349C204.056 213.349 199.37 208.729 199.37 202.99C199.37 197.252 203.833 192.334 209.708 192.632C215.36 192.781 220.269 196.805 219.748 203.587Z" fill="#060001"/>
<path opacity="0.44" d="M250.762 203.587C250.316 209.325 246.374 213.349 240.722 213.349C234.995 213.349 230.384 208.729 230.384 202.99C230.384 197.252 234.846 192.334 240.722 192.632C246.374 192.781 251.208 196.805 250.762 203.587Z" fill="#060001"/>
<path d="M161.737 200.531C161.291 206.269 157.349 210.293 151.697 210.293C145.97 210.293 141.359 205.673 141.359 199.935C141.359 194.197 145.822 189.278 151.697 189.576C157.349 189.725 162.258 193.75 161.737 200.531Z" fill="#060001"/>
<path d="M192.677 200.531C192.23 206.269 188.289 210.293 182.636 210.293C176.984 210.293 172.298 205.673 172.298 199.935C172.298 194.197 176.761 189.278 182.636 189.576C188.289 189.725 193.197 193.75 192.677 200.531Z" fill="#060001"/>
<path d="M223.69 200.531C223.244 206.269 219.302 210.293 213.65 210.293C207.923 210.293 203.312 205.673 203.312 199.935C203.312 194.197 207.774 189.278 213.65 189.576C219.302 189.725 224.211 193.75 223.69 200.531Z" fill="#060001"/>
<path d="M254.629 200.531C254.183 206.269 250.241 210.293 244.589 210.293C238.937 210.293 234.251 205.673 234.251 199.935C234.251 194.197 238.713 189.278 244.589 189.576C250.316 189.725 255.15 193.75 254.629 200.531Z" fill="#060001"/>
<path d="M243.845 233.693H200.188V240.549H243.845V233.693Z" fill="white"/>
<path d="M109.304 141.659C104.619 147.695 97.4047 151.72 89.8187 152.465" stroke="#94F700" stroke-width="1.5" stroke-miterlimit="10" stroke-linecap="round" stroke-linejoin="round"/>
<path d="M143.367 152.763H22.5111V162.45H143.367V152.763Z" fill="#4F28FE"/>
<path d="M143.367 162.525C142.4 162.823 106.33 151.645 85.5051 133.909C84.6126 133.164 83.7945 132.418 82.902 131.599C82.0839 132.344 81.1914 133.164 80.3733 133.909C59.5489 151.719 23.4036 162.897 22.5111 162.525C21.5443 162.152 35.3777 229.37 80.3733 255.08C81.1914 255.527 82.0839 256.049 82.9764 256.496C83.8689 256.049 84.687 255.601 85.5051 255.08C130.575 229.296 144.409 162.152 143.367 162.525Z" fill="#060001"/>
<path d="M85.505 245.392C84.6869 245.914 83.7945 246.361 82.9764 246.808C82.0839 246.361 81.2658 245.914 80.3733 245.392C36.7163 220.428 22.3623 156.489 22.4367 152.986C22.4367 152.912 22.4367 152.837 22.5111 152.837C23.4779 153.135 59.5489 141.957 80.3733 124.221C81.2658 123.476 82.0839 122.731 82.902 121.911C83.7201 122.656 84.6126 123.476 85.505 124.221C106.329 142.032 142.475 153.21 143.367 152.837C144.037 154.104 129.98 219.906 85.505 245.392Z" fill="#94F700"/>
<path d="M84.9101 231.606C84.2407 231.979 83.5713 232.351 82.902 232.649C82.2326 232.277 81.5633 231.979 80.8939 231.606C46.0874 211.635 35.3776 159.693 36.1214 159.992C36.1957 159.992 36.4932 159.917 37.0882 159.842C42.2199 158.501 66.3912 150.304 80.8939 137.859C81.5633 137.263 82.2326 136.666 82.902 136.07C83.5713 136.666 84.2407 137.263 84.9101 137.859C99.4128 150.304 123.584 158.501 128.716 159.842C129.311 159.992 129.608 160.066 129.683 159.992C130.501 159.693 119.791 211.635 84.9101 231.606Z" fill="#060001"/>
<path d="M128.79 159.768C125.443 173.405 113.023 210.144 84.9844 226.24C84.3151 226.613 83.6457 226.986 82.9764 227.358C82.307 226.986 81.6376 226.613 80.9683 226.24C52.9296 210.218 40.5094 173.405 37.1626 159.768C42.2943 158.426 66.4655 150.229 80.9683 137.784C81.6376 137.188 82.307 136.592 82.9764 135.996C83.6457 136.592 84.3151 137.188 84.9844 137.784C99.4872 150.155 123.658 158.426 128.79 159.768Z" fill="#4F28FE"/>
<path d="M86.9181 185.403L105.734 166.102L99.4128 159.171L96.2891 162.078L99.7847 165.953L97.4791 168.039L93.9836 164.388L91.3805 167.071L94.7273 170.275L82.9764 181.9C80.2246 180.41 76.8778 180.037 73.6054 180.857C66.6887 182.496 63.1931 189.65 65.1268 196.208C66.9862 202.841 73.9028 206.641 80.4477 204.704C87.0669 202.841 90.2649 196.879 88.8518 190.172C88.48 188.309 87.8106 186.744 86.9181 185.403ZM79.2577 200.605C74.9441 201.872 70.4817 199.338 69.2174 195.016C67.953 190.694 70.2586 186.073 74.7953 184.956C79.109 183.912 83.6457 185.924 84.7613 191.066C85.5794 195.538 83.497 199.338 79.2577 200.605Z" fill="white"/>
<path opacity="0.44" d="M82.9764 246.808C82.0839 246.361 81.2658 245.914 80.3733 245.392C36.7163 220.428 22.3623 156.489 22.4367 152.986C22.4367 152.912 22.4367 152.837 22.5111 152.837C23.4779 153.135 59.5489 141.957 80.3733 124.221C81.2658 123.476 82.0839 122.731 82.902 121.911C83.7945 122.656 83.7945 246.361 82.9764 246.808Z" fill="#D2ECF9"/>
</svg>
