<svg width="516" height="525" viewBox="0 0 516 525" fill="none" xmlns="http://www.w3.org/2000/svg">
    <path d="M377.964 213.055C377.22 204.858 373.65 188.091 372.014 180.564C370.378 173.038 364.056 162.828 359.073 153.215C354.09 143.602 350.892 141.515 347.991 140.994C342.637 140.025 337.877 146.583 337.282 154.109C336.761 161.711 348.066 185.632 348.066 185.632L347.025 197.853C346.653 188.762 341.521 177.733 336.687 166.554C331.852 155.376 322.928 136.895 317.127 130.188C311.326 123.407 298.236 105.745 293.922 102.913C289.534 100.082 278.973 100.976 279.643 114.539C280.163 124.301 297.715 149.564 297.715 149.564C298.087 153.513 300.393 162.977 300.393 162.977C300.393 162.977 283.287 136.373 281.651 131.828C280.014 127.282 269.751 117.371 263.206 110.515C256.661 103.659 249.224 97.548 245.059 99.1129C240.82 100.678 236.06 106.863 239.332 117.818C242.605 128.772 258.223 147.402 258.223 147.402C259.488 157.984 275.701 187.197 275.701 187.197C275.701 187.197 275.552 200.909 277.263 213.577C278.973 226.246 280.684 232.282 276.668 233.027C270.643 234.07 262.537 189.507 253.017 183.322C228.846 167.523 215.905 167.672 211.517 174.379C206.906 181.384 199.989 190.028 196.196 197.406C193.221 192.86 188.982 190.103 183.404 190.848C171.579 192.488 175.446 223.935 169.496 243.311C165.554 256.129 168.157 263.059 174.479 288.098C177.008 298.233 179.165 309.262 181.321 319.62C182.66 325.88 183.925 331.916 185.338 337.356C186.453 341.604 187.643 345.479 188.908 348.833C189.428 350.323 190.023 351.664 190.618 352.931C191.734 355.241 192.701 357.775 193.519 360.458C194.932 365.078 195.899 370.071 196.717 375.064V375.138C198.204 384.826 198.799 394.141 199.394 398.985C200.435 407.779 232.49 423.577 262.537 427.229C283.733 429.762 296.302 418.137 302.252 410.163C305.004 406.586 305.971 401.892 304.855 397.495C302.847 389.372 303.591 374.542 309.243 365.525C309.541 365.078 309.838 364.631 310.136 364.258C325.605 343.169 330.365 330.5 341.893 314.255C343.232 312.392 344.57 310.529 346.132 308.517C351.115 302.033 361.75 281.54 364.725 268.648C366.585 260.823 371.865 242.789 374.766 232.505C377.592 222.072 378.782 221.253 377.964 213.055ZM201.625 217.005C201.551 215.589 201.402 214.099 201.253 212.683C209.881 212.981 222.152 199.493 222.152 199.493C227.73 204.709 233.383 209.478 233.383 209.478C234.573 217.75 237.771 229.674 240.894 239.808C233.457 255.011 241.564 258.215 231.523 272.225C221.483 286.235 212.856 284.968 206.831 267.158C200.882 249.273 198.948 238.094 198.948 238.094C198.948 238.094 202.369 230.866 201.625 217.005Z" fill="#4F28FE"/>
    <path d="M242.902 236.902C249.075 233.996 255.62 232.878 262.834 234.219" stroke="#060001" stroke-width="1.5" stroke-miterlimit="10" stroke-linecap="round" stroke-linejoin="round"/>
    <path opacity="0.27" d="M256.884 229.152C255.769 226.32 254.356 223.488 253.389 220.582C252.273 217.228 251.53 213.726 250.414 210.373C249.893 208.882 249.373 207.317 248.629 205.901C248.257 205.082 247.811 204.336 247.142 203.74C246.026 202.771 244.39 202.548 243.051 202.101C240.522 201.281 238.068 200.163 235.763 198.896C233.903 197.928 232.118 196.735 230.259 195.915C228.846 195.319 227.358 195.021 225.871 195.394C223.565 195.99 221.557 197.629 219.772 199.194C215.533 202.771 211.517 206.274 206.088 207.839C202.369 208.882 198.502 208.882 194.709 208.36C193.072 209.553 191.882 211.192 191.957 213.353C192.031 215.514 193.296 217.527 194.56 219.091C196.27 221.253 198.353 223.041 200.435 224.755C200.807 225.053 201.179 225.351 201.625 225.649C201.774 223.19 201.848 220.358 201.7 217.154C201.625 215.738 201.477 214.248 201.328 212.832C209.955 213.13 222.227 199.642 222.227 199.642C227.805 204.858 233.457 209.627 233.457 209.627C234.647 217.899 237.845 229.822 240.969 239.957C235.019 252.03 239.035 256.576 235.763 264.996C236.952 265.518 238.291 265.816 239.63 265.891C242.01 265.965 244.39 265.443 246.472 264.4C248.555 263.357 250.116 261.717 251.381 259.78C254.133 255.681 255.992 250.912 257.554 246.217C258.521 243.162 259.19 240.181 258.967 236.977C258.669 234.07 257.851 231.611 256.884 229.152Z" fill="#060001"/>
    <path d="M312.813 267.158C298.459 275.579 286.262 287.725 277.783 302.108" stroke="#060001" stroke-width="1.5" stroke-miterlimit="10" stroke-linecap="round" stroke-linejoin="round"/>
    <path d="M292.955 311.05C282.469 325.284 261.644 328.265 250.042 341.604C241.489 351.441 239.481 366.419 245.133 378.194" stroke="#060001" stroke-width="1.5" stroke-miterlimit="10" stroke-linecap="round" stroke-linejoin="round"/>
    <path opacity="0.27" d="M341.818 314.106C330.291 330.352 325.605 343.02 310.061 364.11C309.764 364.557 309.466 364.929 309.169 365.376C303.963 363.811 297.566 362.694 290.055 362.47C263.727 361.576 252.72 369.252 230.631 371.785C216.351 373.425 204.972 371.562 196.568 374.766C195.824 369.848 194.783 364.78 193.37 360.16C192.552 357.477 191.585 354.869 190.469 352.633C189.874 351.367 189.279 350.025 188.759 348.535C187.494 345.181 186.304 341.306 185.189 337.058C183.776 331.618 182.437 325.582 181.173 319.322C256.364 302.481 324.415 311.349 341.818 314.106Z" fill="#060001"/>
    <path d="M347.694 199.94C347.173 208.957 346.801 220.061 346.801 220.061C342.339 229.897 343.603 227.811 339.067 245.472C338.025 249.347 332.373 249.571 332.373 249.571" stroke="#060001" stroke-width="1.5" stroke-miterlimit="10" stroke-linecap="round" stroke-linejoin="round"/>
    <path d="M302.252 167.15C305.376 180.266 310.656 191.593 310.656 191.593C310.656 191.593 311.028 220.284 311.177 227.661C311.549 243.683 301.136 233.921 295.633 234.294" stroke="#060001" stroke-width="1.5" stroke-miterlimit="10" stroke-linecap="round" stroke-linejoin="round"/>
    <path d="M322.333 187.42C319.73 187.718 317.127 187.942 314.523 188.24" stroke="#060001" stroke-width="1.5" stroke-miterlimit="10" stroke-linecap="round" stroke-linejoin="round"/>
    <path d="M288.344 179.745C286.039 182.8 282.171 184.663 278.304 184.514" stroke="#060001" stroke-width="1.5" stroke-miterlimit="10" stroke-linecap="round" stroke-linejoin="round"/>
    <path d="M266.479 144.049C264.991 145.837 263.504 147.626 262.016 149.414" stroke="#060001" stroke-width="1.5" stroke-miterlimit="10" stroke-linecap="round" stroke-linejoin="round"/>
    <path d="M357.957 214.695C356.024 214.993 354.09 215.291 352.231 215.589" stroke="#060001" stroke-width="1.5" stroke-miterlimit="10" stroke-linecap="round" stroke-linejoin="round"/>
    <path d="M354.387 188.464C355.577 188.315 356.693 188.166 357.883 188.017" stroke="#060001" stroke-width="1.5" stroke-miterlimit="10" stroke-linecap="round" stroke-linejoin="round"/>
    <path d="M304.557 148.595C302.773 148.967 301.136 150.309 300.541 152.097" stroke="#060001" stroke-width="1.5" stroke-miterlimit="10" stroke-linecap="round" stroke-linejoin="round"/>
    <path d="M225.722 192.711C224.458 194.723 223.193 196.736 221.855 198.748" stroke="#060001" stroke-width="1.5" stroke-miterlimit="10" stroke-linecap="round" stroke-linejoin="round"/>
    <path d="M210.029 192.711C208.691 196.512 207.054 200.611 203.633 202.846C201.402 204.262 198.502 204.635 195.973 203.89" stroke="#060001" stroke-width="1.5" stroke-miterlimit="10" stroke-linecap="round" stroke-linejoin="round"/>
    <path d="M195.973 197.928C194.411 200.76 192.775 204.113 193.072 206.498C193.296 208.361 194.709 209.926 196.345 210.82C197.981 211.714 199.84 212.012 201.7 212.385" stroke="#060001" stroke-width="1.5" stroke-miterlimit="10" stroke-linecap="round" stroke-linejoin="round"/>
    <path d="M204.675 285.341C195.675 292.718 189.577 303.524 187.866 315.075" stroke="#060001" stroke-width="1.5" stroke-miterlimit="10" stroke-linecap="round" stroke-linejoin="round"/>
    <path d="M279.271 236.455C275.626 237.573 272.354 239.958 270.272 243.236" stroke="#060001" stroke-width="1.5" stroke-miterlimit="10" stroke-linecap="round" stroke-linejoin="round"/>
    <path d="M77.4223 318.503C98.8417 318.503 99.5111 297.711 99.5111 297.711C99.5111 297.711 102.486 315.671 115.204 318.354C115.204 318.354 103.081 324.017 101.073 344.809C101.073 344.883 96.8337 318.503 77.4223 318.503Z" fill="#EFEFEF"/>
    <path d="M167.711 176.316C173.735 175.944 175 164.617 175 164.617C175 164.617 177.603 176.689 182.288 177.509C182.288 177.509 175.52 178.254 175.074 191.593C175.074 191.593 173.81 177.956 167.711 176.316Z" fill="#EFEFEF"/>
    <path d="M138.036 154.557C161.092 155.823 162.505 133.02 162.505 133.02C162.505 133.02 164.439 153.811 179.09 155.376C179.09 155.376 163.249 158.879 162.505 183.992C162.505 184.067 157.82 156.196 138.036 154.557Z" fill="#EFEFEF"/>
    <path d="M164.885 352.335H139.673V359.191H164.885V352.335Z" fill="#EFEFEF"/>
    <path d="M337.282 325.135H161.166C153.952 325.135 148.151 319.322 148.151 312.094V285.714C148.151 278.485 153.952 272.672 161.166 272.672H337.282C344.496 272.672 350.297 278.485 350.297 285.714V312.094C350.297 319.322 344.496 325.135 337.282 325.135Z" fill="white"/>
    <path d="M332.819 318.577H210.773C203.559 318.577 197.758 312.765 197.758 305.536V295.327C197.758 288.098 203.559 282.286 210.773 282.286H332.819C340.033 282.286 345.835 288.098 345.835 295.327V305.536C345.835 312.69 340.033 318.577 332.819 318.577Z" fill="#EFEFEF"/>
    <path opacity="0.44" d="M234.796 301.587C234.349 307.325 230.408 311.349 224.755 311.349C219.103 311.349 214.417 306.729 214.417 300.99C214.417 295.252 218.88 290.334 224.755 290.632C230.408 290.781 235.316 294.805 234.796 301.587Z" fill="#060001"/>
    <path opacity="0.44" d="M265.735 301.587C265.289 307.325 261.347 311.349 255.694 311.349C249.968 311.349 245.357 306.729 245.357 300.99C245.357 295.252 249.819 290.334 255.694 290.632C261.421 290.781 266.255 294.805 265.735 301.587Z" fill="#060001"/>
    <path opacity="0.44" d="M296.748 301.587C296.302 307.325 292.36 311.349 286.708 311.349C281.056 311.349 276.37 306.729 276.37 300.99C276.37 295.252 280.833 290.334 286.708 290.632C292.36 290.781 297.269 294.805 296.748 301.587Z" fill="#060001"/>
    <path opacity="0.44" d="M327.762 301.587C327.316 307.325 323.374 311.349 317.722 311.349C311.995 311.349 307.384 306.729 307.384 300.99C307.384 295.252 311.846 290.334 317.722 290.632C323.374 290.781 328.208 294.805 327.762 301.587Z" fill="#060001"/>
    <path d="M238.737 298.531C238.291 304.269 234.349 308.293 228.697 308.293C222.97 308.293 218.359 303.673 218.359 297.935C218.359 292.197 222.822 287.278 228.697 287.576C234.349 287.725 239.258 291.75 238.737 298.531Z" fill="#060001"/>
    <path d="M269.677 298.531C269.23 304.269 265.289 308.293 259.636 308.293C253.984 308.293 249.298 303.673 249.298 297.935C249.298 292.197 253.761 287.278 259.636 287.576C265.289 287.725 270.197 291.75 269.677 298.531Z" fill="#060001"/>
    <path d="M300.69 298.531C300.244 304.269 296.302 308.293 290.65 308.293C284.923 308.293 280.312 303.673 280.312 297.935C280.312 292.197 284.774 287.278 290.65 287.576C296.302 287.725 301.211 291.75 300.69 298.531Z" fill="#060001"/>
    <path d="M331.629 298.531C331.183 304.269 327.241 308.293 321.589 308.293C315.937 308.293 311.251 303.673 311.251 297.935C311.251 292.197 315.713 287.278 321.589 287.576C327.316 287.725 332.15 291.75 331.629 298.531Z" fill="#060001"/>
    <path d="M320.845 331.693H277.188V338.549H320.845V331.693Z" fill="white"/>
    <path d="M186.304 239.659C181.619 245.695 174.405 249.72 166.819 250.465" stroke="#94F700" stroke-width="1.5" stroke-miterlimit="10" stroke-linecap="round" stroke-linejoin="round"/>
    <path d="M220.367 250.763H99.5111V260.45H220.367V250.763Z" fill="#4F28FE"/>
    <path d="M220.367 260.525C219.4 260.823 183.33 249.645 162.505 231.909C161.613 231.164 160.794 230.418 159.902 229.599C159.084 230.344 158.191 231.164 157.373 231.909C136.549 249.719 100.404 260.897 99.5111 260.525C98.5443 260.152 112.378 327.37 157.373 353.08C158.191 353.527 159.084 354.049 159.976 354.496C160.869 354.049 161.687 353.601 162.505 353.08C207.575 327.296 221.409 260.152 220.367 260.525Z" fill="#060001"/>
    <path d="M162.505 343.392C161.687 343.914 160.794 344.361 159.976 344.808C159.084 344.361 158.266 343.914 157.373 343.392C113.716 318.428 99.3624 254.489 99.4367 250.986C99.4367 250.912 99.4368 250.837 99.5111 250.837C100.478 251.135 136.549 239.957 157.373 222.221C158.266 221.476 159.084 220.731 159.902 219.911C160.72 220.656 161.613 221.476 162.505 222.221C183.33 240.032 219.475 251.21 220.367 250.837C221.037 252.104 206.98 317.906 162.505 343.392Z" fill="#94F700"/>
    <path d="M161.91 329.606C161.241 329.979 160.571 330.351 159.902 330.649C159.233 330.277 158.563 329.979 157.894 329.606C123.087 309.635 112.378 257.693 113.121 257.992C113.196 257.992 113.493 257.917 114.088 257.842C119.22 256.501 143.391 248.304 157.894 235.859C158.563 235.263 159.233 234.666 159.902 234.07C160.571 234.666 161.241 235.263 161.91 235.859C176.413 248.304 200.584 256.501 205.716 257.842C206.311 257.992 206.608 258.066 206.683 257.992C207.501 257.693 196.791 309.635 161.91 329.606Z" fill="#060001"/>
    <path d="M205.79 257.768C202.443 271.405 190.023 308.144 161.984 324.24C161.315 324.613 160.646 324.986 159.976 325.358C159.307 324.986 158.638 324.613 157.968 324.24C129.93 308.218 117.509 271.405 114.163 257.768C119.294 256.426 143.466 248.229 157.968 235.784C158.638 235.188 159.307 234.592 159.976 233.996C160.646 234.592 161.315 235.188 161.984 235.784C176.487 248.155 200.658 256.426 205.79 257.768Z" fill="#4F28FE"/>
    <path d="M163.918 283.403L182.735 264.102L176.413 257.171L173.289 260.078L176.785 263.953L174.479 266.039L170.984 262.388L168.381 265.071L171.727 268.275L159.976 279.9C157.225 278.41 153.878 278.037 150.605 278.857C143.689 280.496 140.193 287.65 142.127 294.208C143.986 300.841 150.903 304.641 157.448 302.704C164.067 300.841 167.265 294.879 165.852 288.172C165.48 286.309 164.811 284.744 163.918 283.403ZM156.258 298.605C151.944 299.872 147.482 297.338 146.217 293.016C144.953 288.694 147.259 284.073 151.795 282.956C156.109 281.912 160.646 283.924 161.761 289.066C162.579 293.538 160.497 297.338 156.258 298.605Z" fill="white"/>
    <path opacity="0.44" d="M159.976 344.808C159.084 344.361 158.266 343.914 157.373 343.392C113.716 318.428 99.3624 254.489 99.4367 250.986C99.4367 250.912 99.4368 250.837 99.5111 250.837C100.478 251.135 136.549 239.957 157.373 222.221C158.266 221.476 159.084 220.731 159.902 219.911C160.794 220.656 160.794 344.361 159.976 344.808Z" fill="#D2ECF9"/>
</svg>
