<svg width="516" height="524" viewBox="0 0 516 524" fill="none" xmlns="http://www.w3.org/2000/svg">
    <path d="M487.069 257.926L388.376 312.59C386.74 313.482 383.839 313.631 381.98 312.813L311.623 283.064C309.764 282.246 309.54 280.907 311.251 279.94L340.554 263.727L394.177 234.052L409.944 225.35C411.58 224.458 414.481 224.309 416.34 225.127L486.697 254.877C488.556 255.546 488.705 256.959 487.069 257.926Z" fill="#060001"/>
    <path d="M487.069 255.471L388.376 310.135C386.74 311.028 383.839 311.177 381.98 310.359L311.623 280.609C309.764 279.791 309.54 278.452 311.251 277.486L340.554 261.272L394.177 231.597L409.944 222.896C411.58 222.003 414.481 221.855 416.34 222.673L486.697 252.422C488.556 253.166 488.705 254.579 487.069 255.471Z" fill="#4F28FE"/>
    <path d="M327.093 279.196L333.563 281.948L378.038 257.33L371.568 254.579L327.093 279.196Z" fill="white"/>
    <path opacity="0.44" d="M396.706 262.76C386.74 262.239 376.774 261.867 366.733 261.644C357.957 261.421 349.181 261.347 340.48 261.347L394.103 231.672C394.623 237.473 395.367 243.274 395.888 249.075C396.408 253.612 396.706 258.149 396.706 262.76Z" fill="#060001"/>
    <path d="M370.378 297.492L376.848 300.244L397.821 288.641L391.351 285.89L370.378 297.492Z" fill="white"/>
    <path d="M340.777 284.997L351.636 289.608L365.097 282.171L354.164 277.56L340.777 284.997Z" fill="#94F700"/>
    <path d="M360.412 293.253L366.882 296.004L452.932 248.331L446.461 245.654L360.412 293.253Z" fill="white"/>
    <path d="M430.843 265.883L441.404 270.346L468.922 255.099L458.361 250.637L430.843 265.883Z" fill="white"/>
    <path d="M421.323 243.646C423.034 243.274 425.042 243.795 425.488 245.431" stroke="white" stroke-width="1.5" stroke-miterlimit="10" stroke-linecap="round" stroke-linejoin="round"/>
    <path d="M421.026 241.861C424.001 241.192 427.347 242.084 428.165 244.836" stroke="white" stroke-width="1.5" stroke-miterlimit="10" stroke-linecap="round" stroke-linejoin="round"/>
    <path d="M420.728 240.225C424.744 239.332 429.355 240.522 430.397 244.315" stroke="white" stroke-width="1.5" stroke-miterlimit="10" stroke-linecap="round" stroke-linejoin="round"/>
    <path d="M218.805 307.681L117.658 357.66C115.947 358.478 113.047 358.478 111.262 357.585L42.3182 324.564C40.4589 323.671 40.3845 322.258 42.0951 321.44L143.242 271.462C144.953 270.643 147.854 270.643 149.638 271.536L218.582 304.558C220.367 305.45 220.516 306.863 218.805 307.681Z" fill="#4F28FE"/>
    <path d="M218.805 304.632L117.658 354.611C115.947 355.429 113.047 355.429 111.262 354.536L42.3182 321.515C40.4589 320.622 40.3845 319.209 42.0951 318.391L143.242 268.412C144.953 267.594 147.854 267.594 149.638 268.487L218.582 301.508C220.367 302.401 220.516 303.814 218.805 304.632Z" fill="#060001"/>
    <path d="M175.743 281.055L68.3487 334.083L55.4078 327.91L162.728 274.808L175.743 281.055Z" fill="#4F28FE"/>
    <path d="M98.693 306.491L84.1159 313.705C83.2978 318.317 82.4797 323.002 81.5128 327.613L96.2387 320.325C97.1311 315.713 97.9492 311.102 98.693 306.491Z" fill="#AEC5CE"/>
    <path d="M118.848 330.588L98.6187 340.554L104.94 343.603L119.294 336.463L118.848 330.588Z" fill="white"/>
    <path d="M132.681 323.746L119.889 330.067C119.889 330.514 119.964 331.034 119.964 331.48L120.336 335.943L139.003 326.721L132.681 323.746Z" fill="white"/>
    <path d="M161.315 309.615L167.637 312.59L189.056 301.954L182.809 298.979L161.315 309.615Z" fill="white"/>
    <path opacity="0.14" d="M138.929 303.144C146.44 299.426 153.952 295.856 161.538 292.286C158.489 290.501 155.365 288.716 152.316 286.931C145.474 282.766 138.78 278.452 132.161 273.841L101.742 288.865C105.535 291.542 109.477 294.145 113.419 296.599C119.145 300.244 125.021 303.739 130.971 307.086C133.648 305.822 136.326 304.483 138.929 303.144Z" fill="#060001"/>
    <path d="M305.301 222.003C305.301 248.406 287.452 270.643 263.206 277.337C258.372 278.675 253.24 279.419 247.885 279.419C242.53 279.419 237.473 278.675 232.564 277.337C208.319 270.643 190.469 248.406 190.469 222.003C190.469 197.014 206.459 175.743 228.771 167.86C234.721 165.777 241.34 167.711 248.034 167.711C254.728 167.711 260.9 165.703 266.85 167.86C289.311 175.743 305.301 197.014 305.301 222.003Z" fill="#4F28FE"/>
    <path opacity="0.44" d="M242.977 176.859C252.496 181.916 260.975 188.982 268.115 197.014C275.478 205.418 281.576 215.087 286.039 225.276C290.203 234.87 292.955 245.059 294.517 255.397C301.285 245.951 305.301 234.424 305.301 221.929C305.301 196.94 289.311 175.669 266.999 167.785C261.049 165.703 255.248 168.678 248.555 168.678C241.861 168.678 234.796 165.628 228.846 167.785C227.061 168.455 225.276 169.124 223.565 169.942C230.333 171.281 236.878 173.661 242.977 176.859Z" fill="#060001"/>
    <path d="M305.301 222.003C305.301 229.143 279.643 234.944 247.96 234.944C216.277 234.944 190.618 229.143 190.618 222.003" stroke="white" stroke-width="1.5" stroke-miterlimit="10" stroke-linecap="round" stroke-linejoin="round"/>
    <path d="M279.494 224.755C279.494 247.364 272.949 267.073 263.206 277.337C258.372 278.675 253.24 279.419 247.885 279.419C242.53 279.419 237.473 278.675 232.564 277.337C222.896 267.073 216.277 247.364 216.277 224.755C216.277 191.585 230.408 164.662 247.811 164.662C265.363 164.662 279.494 191.585 279.494 224.755Z" stroke="white" stroke-width="1.5" stroke-miterlimit="10" stroke-linecap="round" stroke-linejoin="round"/>
    <path d="M247.96 164.662V279.419" stroke="white" stroke-width="1.5" stroke-miterlimit="10" stroke-linecap="round" stroke-linejoin="round"/>
    <path d="M286.262 177.751C298.161 172.173 305.822 170.909 308.499 174.404C314.226 181.619 291.691 208.839 258.223 235.167C224.755 261.495 192.998 276.965 187.346 269.751C184.594 266.255 187.866 258.892 196.27 248.48" stroke="#94F700" stroke-width="1.5" stroke-miterlimit="10" stroke-linecap="round" stroke-linejoin="round"/>
    <path d="M291.988 260.157C297.641 272.131 299.054 279.865 295.633 282.617C288.418 288.344 261.198 265.809 234.87 232.341C208.542 198.873 193.072 167.116 200.286 161.464C203.782 158.712 210.922 161.538 221.334 169.868" stroke="#94F700" stroke-width="1.5" stroke-miterlimit="10" stroke-linecap="round" stroke-linejoin="round"/>
    <path d="M304.557 207.798C317.573 209.732 324.415 213.078 324.787 217.466C325.531 226.689 291.691 236.803 249.298 240.224C206.831 243.571 171.876 238.886 171.132 229.738C170.76 225.35 177.156 220.962 189.8 216.946" stroke="#94F700" stroke-width="1.5" stroke-miterlimit="10" stroke-linecap="round" stroke-linejoin="round"/>
    <path d="M295.186 203.93C296.897 207.649 295.558 212.112 291.914 213.971C288.27 215.83 283.659 214.12 281.799 210.103C279.94 206.013 281.576 201.402 285.369 199.914C289.162 198.352 293.402 200.212 295.186 203.93Z" fill="#4F28FE"/>
    <path d="M296.302 202.741C298.013 206.459 296.6 210.847 292.955 212.707C289.311 214.566 284.774 212.855 282.915 208.839C281.056 204.823 282.766 200.212 286.559 198.724C290.278 197.163 294.592 199.022 296.302 202.741Z" fill="#94F700"/>
    <path d="M293.922 203.633C294.963 205.939 294.071 208.616 291.84 209.732C289.609 210.847 286.857 209.806 285.741 207.352C284.626 204.972 285.667 202.146 287.898 201.179C290.204 200.212 292.807 201.328 293.922 203.633Z" stroke="white" stroke-width="1.5" stroke-miterlimit="10" stroke-linecap="round" stroke-linejoin="round"/>
    <path d="M209.583 261.347C209.658 265.437 212.707 268.858 216.574 269.007C220.442 269.081 223.64 265.586 223.565 261.123C223.491 256.661 220.144 253.24 216.277 253.463C212.409 253.686 209.509 257.256 209.583 261.347Z" fill="#4F28FE"/>
    <path opacity="0.44" d="M209.583 261.347C209.658 265.437 212.707 268.858 216.574 269.007C220.442 269.081 223.64 265.586 223.565 261.123C223.491 256.661 220.144 253.24 216.277 253.463C212.409 253.686 209.509 257.256 209.583 261.347Z" fill="#060001"/>
    <path d="M207.798 261.793C207.873 265.883 210.922 269.23 214.789 269.304C218.657 269.379 221.855 265.883 221.78 261.421C221.706 256.958 218.285 253.612 214.417 253.909C210.55 254.207 207.649 257.702 207.798 261.793Z" fill="#94F700"/>
    <path d="M209.955 262.09C210.029 264.619 211.889 266.701 214.269 266.701C216.649 266.701 218.508 264.544 218.508 261.941C218.434 259.264 216.425 257.256 214.046 257.33C211.666 257.404 209.881 259.561 209.955 262.09Z" stroke="white" stroke-width="1.5" stroke-miterlimit="10" stroke-linecap="round" stroke-linejoin="round"/>
    <path d="M198.204 174.776C195.378 177.751 195.08 182.214 197.609 184.817C200.138 187.42 204.749 186.973 207.798 183.701C210.847 180.429 210.922 175.743 208.17 173.438C205.418 171.132 201.03 171.727 198.204 174.776Z" fill="#4F28FE"/>
    <path opacity="0.44" d="M198.204 174.776C195.378 177.751 195.08 182.214 197.609 184.817C200.138 187.42 204.749 186.973 207.798 183.701C210.847 180.429 210.922 175.743 208.17 173.438C205.418 171.132 201.03 171.727 198.204 174.776Z" fill="#060001"/>
    <path d="M197.088 173.512C194.337 176.487 194.039 180.949 196.568 183.478C199.096 186.081 203.708 185.635 206.683 182.362C209.657 179.09 209.732 174.479 206.98 172.173C204.228 169.868 199.84 170.463 197.088 173.512Z" fill="#94F700"/>
    <path d="M198.427 174.925C196.716 176.785 196.568 179.462 198.13 181.024C199.691 182.586 202.443 182.288 204.303 180.354C206.087 178.421 206.162 175.595 204.526 174.182C202.815 172.694 200.138 173.066 198.427 174.925Z" stroke="white" stroke-width="1.5" stroke-miterlimit="10" stroke-linecap="round" stroke-linejoin="round"/>
    <path d="M310.21 188.089C306.64 193.221 303.442 197.237 300.467 200.435" stroke="#EFEFEF" stroke-width="1.5" stroke-miterlimit="10" stroke-linecap="round" stroke-linejoin="round"/>
    <path d="M226.094 262.314C230.259 260.157 234.424 257.777 238.291 254.728" stroke="white" stroke-width="1.5" stroke-miterlimit="10" stroke-linecap="round" stroke-linejoin="round"/>
    <path d="M226.168 254.133C227.73 253.24 229.366 251.976 231.151 250.488" stroke="white" stroke-width="1.5" stroke-miterlimit="10" stroke-linecap="round" stroke-linejoin="round"/>
    <path d="M291.393 198.948C293.104 197.237 294.74 195.452 296.005 193.593" stroke="white" stroke-width="1.5" stroke-miterlimit="10" stroke-linecap="round" stroke-linejoin="round"/>
    <path d="M207.501 184.891C209.434 188.535 213.971 197.311 216.574 201.104" stroke="white" stroke-width="1.5" stroke-miterlimit="10" stroke-linecap="round" stroke-linejoin="round"/>
    <path d="M210.476 183.478C212.335 187.271 214.194 190.469 216.425 193.965" stroke="white" stroke-width="1.5" stroke-miterlimit="10" stroke-linecap="round" stroke-linejoin="round"/>
    <path d="M268.71 170.165C268.71 173.289 259.413 175.892 247.96 175.892C236.506 175.892 227.209 173.363 227.209 170.165C227.209 169.347 227.804 168.603 228.92 167.934C234.87 165.852 241.266 164.662 247.96 164.662C254.653 164.662 261.049 165.777 266.999 167.934C268.04 168.603 268.71 169.347 268.71 170.165Z" fill="#EFEFEF"/>
    <path d="M275.106 88.8017L240.374 86.9424L244.985 88.1323L256.289 88.8761L275.106 88.8017Z" fill="#94F700"/>
    <path d="M405.779 207.501C397.598 155.811 361.379 113.493 313.185 96.536C298.533 91.3299 282.692 88.5781 266.255 88.5781C262.909 88.5781 259.562 88.7269 256.289 88.95C263.578 90.2887 270.643 92.2224 277.486 94.6023C328.208 112.452 365.841 158.117 372.088 213.302C383.244 210.996 394.474 208.988 405.779 207.501Z" fill="#94F700"/>
    <path d="M256.289 88.8759C243.423 89.7683 231.003 92.3714 219.326 96.5363C178.049 111.039 145.548 144.284 131.938 185.933C127.401 199.766 125.021 214.492 125.021 229.738C125.021 241.192 126.434 252.422 128.963 263.057C125.095 264.619 121.228 266.256 117.361 267.817C109.923 270.867 102.486 273.916 95.0487 276.965C89.7682 262.091 86.942 246.1 86.942 229.367C86.942 167.042 126.806 114.014 182.437 94.4538C197.312 89.1733 213.302 86.3472 229.961 86.3472C238.96 86.4959 247.736 87.314 256.289 88.8759Z" fill="#AEC5CE"/>
    <path d="M326.646 133.276C343.975 150.903 355.652 174.033 359.519 198.502" stroke="#EFEFEF" stroke-width="1.5" stroke-miterlimit="10" stroke-linecap="round" stroke-linejoin="round"/>
    <path d="M336.315 163.546C342.785 172.992 347.099 183.999 348.884 195.304" stroke="#EFEFEF" stroke-width="1.5" stroke-miterlimit="10" stroke-linecap="round" stroke-linejoin="round"/>
    <path d="M395.962 152.762C404.515 164.811 410.167 178.867 412.324 193.37" stroke="#EFEFEF" stroke-width="1.5" stroke-miterlimit="10" stroke-linecap="round" stroke-linejoin="round"/>
    <path opacity="0.12" d="M125.021 229.813C125.021 241.266 126.434 252.496 128.963 263.132C125.095 264.693 121.228 266.33 117.361 267.892C106.205 258.744 99.2135 245.728 99.2135 231.3C99.2135 211.294 112.601 194.039 132.012 186.007C127.401 199.766 125.021 214.492 125.021 229.813Z" fill="#060001"/>
    <path d="M344.57 219.475L423.554 201.997L396.482 257.628L344.57 219.475Z" fill="#94F700"/>
    <path d="M237.101 381.905L265.809 380.567L253.315 380.195L237.101 381.905Z" fill="#AEC5CE"/>
    <path d="M342.042 324.564C323.969 349.851 297.566 368.741 266.85 377.22C262.462 378.41 257.926 379.451 253.389 380.195C257.256 380.492 261.124 380.715 265.14 380.715C277.709 380.715 289.832 379.005 301.36 375.807C333.489 366.956 360.858 346.504 378.707 319.283C366.436 321.366 354.239 323.374 342.042 324.564Z" fill="#AEC5CE"/>
    <path d="M192.849 359.891C186.007 363.015 179.165 366.213 172.397 369.411C179.165 372.535 186.23 375.138 193.519 377.146C205.195 380.344 217.467 382.129 230.184 382.129C238.068 382.129 245.803 381.459 253.389 380.195C244.985 379.451 236.804 377.964 228.92 375.807C215.979 372.237 203.931 366.808 192.849 359.891Z" fill="#E6373C"/>
    <path d="M154.845 382.203L209.137 353.718L159.679 344.05L154.845 382.203Z" fill="#E6373C"/>
    <path d="M274.362 367.105C292.212 359.147 308.127 346.876 320.325 331.629" stroke="#EFEFEF" stroke-width="1.5" stroke-miterlimit="10" stroke-linecap="round" stroke-linejoin="round"/>
    <path d="M289.237 348.586C303.814 339.141 315.937 325.754 323.82 310.21" stroke="#EFEFEF" stroke-width="1.5" stroke-miterlimit="10" stroke-linecap="round" stroke-linejoin="round"/>
</svg>
