<svg width="449" height="297" viewBox="0 0 449 297" fill="none" xmlns="http://www.w3.org/2000/svg">
<path d="M447.069 171.926L348.376 226.59C346.74 227.483 343.839 227.632 341.98 226.814L271.623 197.064C269.764 196.246 269.541 194.908 271.251 193.941L300.554 177.727L354.177 148.053L369.944 139.351C371.58 138.458 374.481 138.31 376.34 139.128L446.697 168.877C448.556 169.546 448.705 170.959 447.069 171.926Z" fill="#060001"/>
<path d="M447.069 169.472L348.376 224.136C346.74 225.028 343.839 225.177 341.98 224.359L271.623 194.61C269.764 193.792 269.541 192.453 271.251 191.486L300.554 175.273L354.177 145.598L369.944 136.896C371.58 136.004 374.481 135.855 376.34 136.673L446.697 166.422C448.556 167.166 448.705 168.579 447.069 169.472Z" fill="#4F28FE"/>
<path d="M287.093 193.197L293.563 195.948L338.038 171.331L331.568 168.579L287.093 193.197Z" fill="white"/>
<path opacity="0.44" d="M356.706 176.76C346.74 176.24 336.774 175.868 326.733 175.645C317.957 175.422 309.181 175.347 300.48 175.347L354.103 145.672C354.623 151.473 355.367 157.275 355.888 163.076C356.408 167.612 356.706 172.149 356.706 176.76Z" fill="#060001"/>
<path d="M330.378 211.492L336.848 214.244L357.821 202.642L351.351 199.89L330.378 211.492Z" fill="white"/>
<path d="M300.777 198.998L311.636 203.609L325.097 196.172L314.164 191.561L300.777 198.998Z" fill="#94F700"/>
<path d="M320.412 207.253L326.882 210.005L412.932 162.332L406.461 159.654L320.412 207.253Z" fill="white"/>
<path d="M390.843 179.884L401.404 184.346L428.922 169.1L418.361 164.637L390.843 179.884Z" fill="white"/>
<path d="M381.323 157.646C383.034 157.275 385.042 157.795 385.488 159.431" stroke="white" stroke-width="1.5" stroke-miterlimit="10" stroke-linecap="round" stroke-linejoin="round"/>
<path d="M381.026 155.862C384.001 155.192 387.348 156.085 388.166 158.837" stroke="white" stroke-width="1.5" stroke-miterlimit="10" stroke-linecap="round" stroke-linejoin="round"/>
<path d="M380.728 154.225C384.744 153.333 389.356 154.523 390.397 158.316" stroke="white" stroke-width="1.5" stroke-miterlimit="10" stroke-linecap="round" stroke-linejoin="round"/>
<path d="M178.806 221.681L77.6582 271.66C75.9476 272.478 73.0471 272.478 71.2621 271.585L2.31832 238.564C0.458996 237.671 0.384621 236.258 2.0952 235.44L103.243 185.462C104.953 184.643 107.854 184.643 109.639 185.536L178.582 218.558C180.367 219.45 180.516 220.863 178.806 221.681Z" fill="#4F28FE"/>
<path d="M178.806 218.632L77.6582 268.611C75.9476 269.429 73.0471 269.429 71.2621 268.536L2.31832 235.515C0.458996 234.622 0.384621 233.209 2.0952 232.391L103.243 182.412C104.953 181.594 107.854 181.594 109.639 182.487L178.582 215.508C180.367 216.401 180.516 217.814 178.806 218.632Z" fill="#060001"/>
<path d="M135.744 195.055L28.3489 248.083L15.408 241.91L122.728 188.808L135.744 195.055Z" fill="#4F28FE"/>
<path d="M58.6931 220.491L44.116 227.705C43.2979 232.317 42.4798 237.002 41.5129 241.613L56.2388 234.325C57.1313 229.713 57.9494 225.102 58.6931 220.491Z" fill="#AEC5CE"/>
<path d="M78.8482 244.588L58.6188 254.554L64.9405 257.603L79.2945 250.463L78.8482 244.588Z" fill="white"/>
<path d="M92.6816 237.746L79.8894 244.067C79.8894 244.514 79.9638 245.034 79.9638 245.48L80.3356 249.943L99.0033 240.721L92.6816 237.746Z" fill="white"/>
<path d="M121.315 223.615L127.637 226.59L149.056 215.954L142.809 212.979L121.315 223.615Z" fill="white"/>
<path opacity="0.14" d="M98.9288 217.144C106.44 213.426 113.952 209.856 121.538 206.286C118.489 204.501 115.365 202.716 112.316 200.931C105.474 196.766 98.7801 192.452 92.1609 187.841L61.7423 202.865C65.5353 205.542 69.4771 208.145 73.4189 210.599C79.1456 214.244 85.0211 217.739 90.9709 221.086C93.6483 219.822 96.3258 218.483 98.9288 217.144Z" fill="#060001"/>
<path d="M265.301 136.004C265.301 162.406 247.452 184.644 223.206 191.337C218.372 192.676 213.24 193.42 207.885 193.42C202.53 193.42 197.473 192.676 192.564 191.337C168.319 184.644 150.469 162.406 150.469 136.004C150.469 111.014 166.46 89.7436 188.771 81.8601C194.721 79.7776 201.34 81.7113 208.034 81.7113C214.728 81.7113 220.901 79.7032 226.85 81.8601C249.311 89.7436 265.301 111.014 265.301 136.004Z" fill="#4F28FE"/>
<path opacity="0.44" d="M202.977 90.8593C212.497 95.9167 220.975 102.982 228.115 111.014C235.478 119.419 241.576 129.087 246.039 139.276C250.204 148.87 252.955 159.059 254.517 169.397C261.285 159.952 265.301 148.424 265.301 135.929C265.301 110.94 249.311 89.6693 226.999 81.7858C221.049 79.7033 215.248 82.6783 208.555 82.6783C201.861 82.6783 194.796 79.629 188.846 81.7858C187.061 82.4551 185.276 83.1245 183.565 83.9426C190.333 85.2813 196.878 87.6613 202.977 90.8593Z" fill="#060001"/>
<path d="M265.301 136.004C265.301 143.144 239.643 148.945 207.96 148.945C176.277 148.945 150.618 143.144 150.618 136.004" stroke="white" stroke-width="1.5" stroke-miterlimit="10" stroke-linecap="round" stroke-linejoin="round"/>
<path d="M239.494 138.756C239.494 161.365 232.949 181.074 223.206 191.337C218.372 192.676 213.24 193.42 207.885 193.42C202.531 193.42 197.473 192.676 192.565 191.337C182.896 181.074 176.277 161.365 176.277 138.756C176.277 105.585 190.408 78.6621 207.811 78.6621C225.363 78.6621 239.494 105.585 239.494 138.756Z" stroke="white" stroke-width="1.5" stroke-miterlimit="10" stroke-linecap="round" stroke-linejoin="round"/>
<path d="M207.96 78.6621V193.42" stroke="white" stroke-width="1.5" stroke-miterlimit="10" stroke-linecap="round" stroke-linejoin="round"/>
<path d="M246.262 91.7518C258.162 86.1738 265.822 84.9095 268.499 88.405C274.226 95.6192 251.691 122.84 218.223 149.168C184.755 175.496 152.998 190.965 147.346 183.751C144.594 180.256 147.866 172.893 156.271 162.481" stroke="#94F700" stroke-width="1.5" stroke-miterlimit="10" stroke-linecap="round" stroke-linejoin="round"/>
<path d="M251.989 174.157C257.641 186.131 259.054 193.866 255.633 196.618C248.419 202.345 221.198 179.809 194.87 146.342C168.542 112.874 153.072 81.1165 160.287 75.4641C163.782 72.7123 170.922 75.5385 181.334 83.8683" stroke="#94F700" stroke-width="1.5" stroke-miterlimit="10" stroke-linecap="round" stroke-linejoin="round"/>
<path d="M264.558 121.798C277.573 123.732 284.415 127.079 284.787 131.467C285.531 140.689 251.691 150.804 209.298 154.225C166.831 157.572 131.876 152.886 131.132 143.738C130.761 139.35 137.157 134.962 149.8 130.946" stroke="#94F700" stroke-width="1.5" stroke-miterlimit="10" stroke-linecap="round" stroke-linejoin="round"/>
<path d="M255.187 117.931C256.897 121.65 255.558 126.112 251.914 127.971C248.27 129.831 243.659 128.12 241.799 124.104C239.94 120.013 241.576 115.402 245.369 113.915C249.162 112.353 253.402 114.212 255.187 117.931Z" fill="#4F28FE"/>
<path d="M256.302 116.741C258.013 120.46 256.6 124.848 252.955 126.707C249.311 128.566 244.774 126.856 242.915 122.84C241.056 118.823 242.766 114.212 246.559 112.725C250.278 111.163 254.592 113.022 256.302 116.741Z" fill="#94F700"/>
<path d="M253.922 117.634C254.963 119.939 254.071 122.617 251.84 123.732C249.609 124.848 246.857 123.807 245.741 121.352C244.626 118.972 245.667 116.146 247.898 115.179C250.204 114.212 252.807 115.328 253.922 117.634Z" stroke="white" stroke-width="1.5" stroke-miterlimit="10" stroke-linecap="round" stroke-linejoin="round"/>
<path d="M169.583 175.347C169.658 179.438 172.707 182.859 176.574 183.007C180.442 183.082 183.64 179.586 183.565 175.124C183.491 170.661 180.144 167.24 176.277 167.463C172.409 167.687 169.509 171.256 169.583 175.347Z" fill="#4F28FE"/>
<path opacity="0.44" d="M169.583 175.347C169.658 179.438 172.707 182.859 176.574 183.007C180.442 183.082 183.64 179.586 183.565 175.124C183.491 170.661 180.144 167.24 176.277 167.463C172.409 167.687 169.509 171.256 169.583 175.347Z" fill="#060001"/>
<path d="M167.798 175.793C167.873 179.884 170.922 183.23 174.789 183.305C178.657 183.379 181.855 179.884 181.78 175.421C181.706 170.959 178.285 167.612 174.418 167.91C170.55 168.207 167.65 171.703 167.798 175.793Z" fill="#94F700"/>
<path d="M169.955 176.09C170.029 178.619 171.889 180.702 174.269 180.702C176.649 180.702 178.508 178.545 178.508 175.942C178.434 173.264 176.426 171.256 174.046 171.331C171.666 171.405 169.881 173.562 169.955 176.09Z" stroke="white" stroke-width="1.5" stroke-miterlimit="10" stroke-linecap="round" stroke-linejoin="round"/>
<path d="M158.204 88.7767C155.378 91.7517 155.08 96.214 157.609 98.8171C160.138 101.42 164.749 100.974 167.798 97.7015C170.848 94.4291 170.922 89.7436 168.17 87.438C165.418 85.1325 161.03 85.7275 158.204 88.7767Z" fill="#4F28FE"/>
<path opacity="0.44" d="M158.204 88.7767C155.378 91.7517 155.08 96.214 157.609 98.8171C160.138 101.42 164.749 100.974 167.798 97.7015C170.848 94.4291 170.922 89.7436 168.17 87.438C165.418 85.1325 161.03 85.7275 158.204 88.7767Z" fill="#060001"/>
<path d="M157.089 87.5126C154.337 90.4875 154.039 94.9499 156.568 97.4786C159.097 100.082 163.708 99.6354 166.683 96.363C169.658 93.0906 169.732 88.4794 166.98 86.1739C164.228 83.8683 159.84 84.4633 157.089 87.5126Z" fill="#94F700"/>
<path d="M158.427 88.9257C156.717 90.785 156.568 93.4625 158.13 95.0243C159.692 96.5861 162.443 96.2886 164.303 94.3549C166.088 92.4212 166.162 89.5951 164.526 88.182C162.815 86.6945 160.138 87.0664 158.427 88.9257Z" stroke="white" stroke-width="1.5" stroke-miterlimit="10" stroke-linecap="round" stroke-linejoin="round"/>
<path d="M270.21 102.09C266.64 107.222 263.442 111.238 260.467 114.436" stroke="#EFEFEF" stroke-width="1.5" stroke-miterlimit="10" stroke-linecap="round" stroke-linejoin="round"/>
<path d="M186.094 176.314C190.259 174.157 194.424 171.777 198.291 168.728" stroke="white" stroke-width="1.5" stroke-miterlimit="10" stroke-linecap="round" stroke-linejoin="round"/>
<path d="M186.168 168.133C187.73 167.241 189.366 165.976 191.151 164.489" stroke="white" stroke-width="1.5" stroke-miterlimit="10" stroke-linecap="round" stroke-linejoin="round"/>
<path d="M251.394 112.948C253.104 111.238 254.74 109.453 256.005 107.593" stroke="white" stroke-width="1.5" stroke-miterlimit="10" stroke-linecap="round" stroke-linejoin="round"/>
<path d="M167.501 98.8916C169.434 102.536 173.971 111.312 176.574 115.105" stroke="white" stroke-width="1.5" stroke-miterlimit="10" stroke-linecap="round" stroke-linejoin="round"/>
<path d="M170.476 97.4785C172.335 101.272 174.194 104.47 176.426 107.965" stroke="white" stroke-width="1.5" stroke-miterlimit="10" stroke-linecap="round" stroke-linejoin="round"/>
<path d="M228.71 84.1657C228.71 87.2894 219.413 89.8924 207.96 89.8924C196.506 89.8924 187.21 87.3638 187.21 84.1657C187.21 83.3476 187.805 82.6039 188.92 81.9345C194.87 79.8521 201.266 78.6621 207.96 78.6621C214.653 78.6621 221.049 79.7777 226.999 81.9345C228.04 82.6039 228.71 83.3476 228.71 84.1657Z" fill="#EFEFEF"/>
<path d="M235.106 2.8017L200.374 0.942383L204.985 2.13235L216.289 2.87608L235.106 2.8017Z" fill="#94F700"/>
<path d="M365.779 121.501C357.598 69.8113 321.379 27.4931 273.185 10.536C258.533 5.32993 242.692 2.57812 226.256 2.57812C222.909 2.57812 219.562 2.72687 216.29 2.94999C223.578 4.2887 230.644 6.2224 237.486 8.60234C288.208 26.4519 325.841 72.1169 332.088 127.302C343.244 124.996 354.475 122.988 365.779 121.501Z" fill="#94F700"/>
<path d="M216.29 2.87585C203.423 3.76833 191.003 6.37139 179.326 10.5363C138.049 25.039 105.548 58.2838 91.9378 99.9326C87.4011 113.766 85.0211 128.492 85.0211 143.738C85.0211 155.192 86.4342 166.422 88.9629 177.057C85.0955 178.619 81.2281 180.256 77.3607 181.817C69.9234 184.867 62.4861 187.916 55.0488 190.965C49.7683 176.091 46.9421 160.1 46.9421 143.367C46.9421 81.0419 86.8061 28.0139 142.437 8.45383C157.312 3.17334 173.302 0.347168 189.961 0.347168C198.961 0.495914 207.737 1.31402 216.29 2.87585Z" fill="#AEC5CE"/>
<path d="M286.646 47.2764C303.975 64.9028 315.652 88.0328 319.519 112.502" stroke="#EFEFEF" stroke-width="1.5" stroke-miterlimit="10" stroke-linecap="round" stroke-linejoin="round"/>
<path d="M296.315 77.5464C302.785 86.9918 307.099 97.999 308.884 109.304" stroke="#EFEFEF" stroke-width="1.5" stroke-miterlimit="10" stroke-linecap="round" stroke-linejoin="round"/>
<path d="M355.962 66.7622C364.515 78.8106 370.167 92.8671 372.324 107.37" stroke="#EFEFEF" stroke-width="1.5" stroke-miterlimit="10" stroke-linecap="round" stroke-linejoin="round"/>
<path opacity="0.12" d="M85.0211 143.813C85.0211 155.266 86.4342 166.496 88.9628 177.132C85.0954 178.693 81.228 180.33 77.3606 181.892C66.2047 172.744 59.2136 159.728 59.2136 145.3C59.2136 125.294 72.6008 108.039 92.0121 100.007C87.401 113.766 85.0211 128.492 85.0211 143.813Z" fill="#060001"/>
<path d="M304.57 133.475L383.554 115.997L356.483 171.628L304.57 133.475Z" fill="#94F700"/>
<path d="M197.101 295.905L225.809 294.567L213.315 294.195L197.101 295.905Z" fill="#AEC5CE"/>
<path d="M302.042 238.564C283.969 263.851 257.567 282.741 226.851 291.22C222.463 292.41 217.926 293.451 213.389 294.195C217.256 294.492 221.124 294.715 225.14 294.715C237.709 294.715 249.832 293.005 261.36 289.807C293.489 280.956 320.858 260.504 338.708 233.283C326.436 235.366 314.239 237.374 302.042 238.564Z" fill="#AEC5CE"/>
<path d="M152.849 273.891C146.007 277.015 139.165 280.213 132.397 283.411C139.165 286.535 146.23 289.138 153.519 291.146C165.195 294.344 177.467 296.129 190.185 296.129C198.068 296.129 205.803 295.459 213.389 294.195C204.985 293.451 196.804 291.964 188.92 289.807C175.979 286.237 163.931 280.808 152.849 273.891Z" fill="#E6373C"/>
<path d="M114.845 296.203L169.137 267.718L119.679 258.05L114.845 296.203Z" fill="#E6373C"/>
<path d="M234.362 281.105C252.212 273.147 268.128 260.876 280.325 245.629" stroke="#EFEFEF" stroke-width="1.5" stroke-miterlimit="10" stroke-linecap="round" stroke-linejoin="round"/>
<path d="M249.237 262.586C263.814 253.141 275.937 239.754 283.82 224.21" stroke="#EFEFEF" stroke-width="1.5" stroke-miterlimit="10" stroke-linecap="round" stroke-linejoin="round"/>
</svg>
